<?xml version="1.0" standalone="no"?>
<!DOCTYPE svg PUBLIC "-//W3C//DTD SVG 1.1//EN" "http://www.w3.org/Graphics/SVG/1.1/DTD/svg11.dtd" >
<svg xmlns="http://www.w3.org/2000/svg">
<metadata></metadata>
<defs>
<font id="faricynew-mediumuploaded_file" horiz-adv-x="1226" >
<font-face units-per-em="2048" ascent="1561" descent="-487" />
<missing-glyph horiz-adv-x="485" />
<glyph unicode="&#xfb01;" horiz-adv-x="1159" d="M27 877v157h166v117q0 367 403 367q141 0 287 -43l-37 -191q-113 31 -230 31q-111 0 -152.5 -39t-41.5 -131v-111h610v-1034h-229v877h-381v-877h-229v877h-166z" />
<glyph unicode="&#xfb02;" horiz-adv-x="1171" d="M27 877v157h166v117q0 367 401 367q92 0 209 -27h229v-1227q0 -47 18.5 -68.5t63.5 -21.5l-22 -199q-139 0 -214 59.5t-75 201.5v1052q-106 27 -195 27q-104 0 -145 -39t-41 -131v-111h237v-157h-237v-877h-229v877h-166z" />
<glyph unicode="&#xfb03;" horiz-adv-x="1816" d="M27 877v157h166v137q0 168 95 257.5t259 89.5q96 0 190 -31l-41 -195q-72 23 -139 23q-74 0 -104.5 -36t-30.5 -114v-131h428v117q0 367 403 367q143 0 287 -43l-37 -191q-115 31 -229 31q-111 0 -153 -39t-42 -131v-111h611v-1034h-230v877h-381v-877h-229v877h-428 v-877h-229v877h-166z" />
<glyph unicode="&#xfb04;" horiz-adv-x="1828" d="M27 877v157h166v137q0 168 95 257.5t259 89.5q96 0 190 -31l-41 -195q-72 23 -139 23q-74 0 -104.5 -36t-30.5 -114v-131h428v117q0 367 401 367q104 0 209 -27h230v-1227q0 -47 18 -68.5t64 -21.5l-23 -199q-139 0 -214 59.5t-75 201.5v1052q-106 27 -194 27 q-104 0 -145.5 -39t-41.5 -131v-111h238v-157h-238v-877h-229v877h-428v-877h-229v877h-166z" />
<glyph horiz-adv-x="0" />
<glyph unicode="&#xd;" horiz-adv-x="681" />
<glyph unicode=" "  horiz-adv-x="485" />
<glyph unicode="&#x09;" horiz-adv-x="485" />
<glyph unicode="&#xa0;" horiz-adv-x="485" />
<glyph unicode="!" horiz-adv-x="602" d="M150 125q0 63 45 105t108 42q59 0 104.5 -42t45.5 -105q0 -61 -44 -105.5t-106 -44.5q-63 0 -108 44.5t-45 105.5zM188 461v958h230v-958h-230z" />
<glyph unicode="&#x22;" horiz-adv-x="845" d="M147 1491h213l-41 -543h-129zM479 1491h213l-41 -543h-129z" />
<glyph unicode="#" horiz-adv-x="1267" d="M133 330v209h162l31 325h-148v207h166l31 334h207l-31 -334h233l31 334h209l-31 -334h146v-207h-166l-31 -325h148v-209h-166l-31 -330h-207l31 330h-234l-30 -330h-207l30 330h-143zM502 539h233l31 325h-234z" />
<glyph unicode="$" horiz-adv-x="1079" d="M88 80l66 196q190 -92 354 -92q109 0 172 51.5t63 137.5q0 57 -33.5 99t-89 69.5t-121 54.5t-132 59.5t-122 75.5t-89 115t-33.5 166q0 143 88 246.5t242 134.5v239h186v-231q127 -10 289 -80l-68 -195q-158 68 -293 68q-98 0 -149 -49t-51 -133q0 -72 63.5 -123 t155.5 -89t183 -83t154.5 -132t63.5 -212q0 -150 -97 -253.5t-257 -133.5v-240h-187v231q-180 13 -358 103z" />
<glyph unicode="%" horiz-adv-x="1972" d="M84 1030q0 164 109.5 280.5t277.5 116.5q170 0 278.5 -116.5t108.5 -280.5q0 -162 -109.5 -277.5t-277.5 -115.5t-277.5 115.5t-109.5 277.5zM272 1030q0 -96 55.5 -161.5t143.5 -65.5q90 0 144.5 64.5t54.5 162.5q0 100 -54.5 166t-144.5 66q-88 0 -143.5 -66 t-55.5 -166zM621 0l557 1403h178l-557 -1403h-178zM1120 367q0 164 109.5 280.5t277.5 116.5q170 0 278.5 -117t108.5 -280q0 -162 -109.5 -278t-277.5 -116t-277.5 116t-109.5 278zM1309 367q0 -96 55 -162t143 -66q90 0 144.5 64.5t54.5 163.5q0 100 -54.5 165.5 t-144.5 65.5q-88 0 -143 -65.5t-55 -165.5z" />
<glyph unicode="&#x26;" horiz-adv-x="1331" d="M117 358q0 139 70.5 234.5t191.5 173.5q-82 170 -82 313q0 166 101.5 266.5t256.5 100.5q150 0 244 -93t94 -220q0 -74 -27.5 -137.5t-85 -118t-104.5 -89t-127 -83.5q102 -164 271 -334q84 106 135 233l178 -80q-72 -162 -170 -284q92 -84 154 -129l-146 -136 q-68 41 -156 121q-162 -123 -350 -123q-213 0 -330.5 111.5t-117.5 273.5zM358 383q0 -100 57.5 -152.5t157.5 -52.5q94 0 191 62q-174 180 -283 350q-123 -98 -123 -207zM518 1092q0 -101 45 -218q102 66 155.5 121.5t53.5 128.5q0 59 -29.5 94t-87.5 35q-63 0 -100 -43 t-37 -118z" />
<glyph unicode="'" horiz-adv-x="528" d="M158 1491h213l-43 -543h-127z" />
<glyph unicode="(" horiz-adv-x="849" d="M213 616.5q0 538.5 348 1023.5h221q-168 -246 -258 -514t-90 -509.5t90 -510t258 -514.5h-221q-348 486 -348 1024.5z" />
<glyph unicode=")" horiz-adv-x="849" d="M68 -408q168 246 258 514.5t90 510t-90 510t-258 513.5h221q348 -485 348 -1023.5t-348 -1024.5h-221z" />
<glyph unicode="*" horiz-adv-x="993" d="M94 1116l72 215l233 -92l-16 252h227l-16 -252l235 92l70 -215l-246 -63l164 -195l-184 -133l-137 215l-136 -215l-182 133l162 195z" />
<glyph unicode="+" horiz-adv-x="1290" d="M156 416v217h381v381h217v-381h381v-217h-381v-381h-217v381h-381z" />
<glyph unicode="," horiz-adv-x="520" d="M94 -319l105 593l223 -38l-178 -580z" />
<glyph unicode="-" horiz-adv-x="937" d="M139 430v197h660v-197h-660z" />
<glyph unicode="." horiz-adv-x="571" d="M135 125q0 63 43 106t106.5 43t107.5 -43t44 -106q0 -61 -44 -105.5t-107.5 -44.5t-106.5 44.5t-43 105.5z" />
<glyph unicode="/" horiz-adv-x="874" d="M94 -199l498 1694h188l-495 -1694h-191z" />
<glyph unicode="0" horiz-adv-x="1167" d="M88 706.5q0 356.5 131 548t364.5 191.5t364.5 -191.5t131 -548t-130 -545t-365.5 -188.5t-365.5 188.5t-130 545zM322 707q0 -531 262 -531t262 531q0 537 -262 536.5t-262 -536.5z" />
<glyph unicode="1" horiz-adv-x="968" d="M88 1253l389 166h182v-1216h254v-203h-772v203h285v960l-246 -108z" />
<glyph unicode="2" horiz-adv-x="1095" d="M94 0v174q352 315 487.5 492.5t135.5 337.5q0 98 -65.5 168.5t-172.5 70.5q-147 0 -297 -82l-82 178q188 106 379 107q203 0 337 -113.5t134 -320.5q0 -197 -133 -387.5t-383 -421.5h527v-203h-867z" />
<glyph unicode="3" horiz-adv-x="1001" d="M45 51l61 193q162 -68 300 -68q119 0 189.5 68.5t70.5 169.5q0 109 -82 174t-217 65h-93v193h103q102 0 170.5 58.5t68.5 142t-58 140t-152 56.5q-133 0 -275 -74l-86 179q172 98 356 98q205 0 327 -104.5t122 -294.5q0 -82 -49 -162t-146 -131q131 -49 187.5 -142.5 t56.5 -197.5q0 -190 -135 -315.5t-361 -125.5q-168 0 -358 78z" />
<glyph unicode="4" horiz-adv-x="1165" d="M76 487l559 932h270v-899h185v-203h-185v-317h-229v317h-574zM332 520h344v596z" />
<glyph unicode="5" horiz-adv-x="1114" d="M63 80l70 182q188 -86 340 -86q139 0 222 82t83 219q0 106 -65.5 183t-217 77t-331.5 -67l51 749h731v-202h-532l-23 -304q78 20 137 21q240 0 362 -131t122 -320q0 -225 -146.5 -367.5t-384.5 -142.5q-211 1 -418 107z" />
<glyph unicode="6" horiz-adv-x="1167" d="M88 485q0 117 43 211l324 723h250l-218 -444q43 18 97 18q209 0 352 -148.5t143 -359.5q0 -213 -139 -362.5t-356 -149.5q-215 0 -355.5 149.5t-140.5 362.5zM322 485q0 -129 70.5 -219t191.5 -90t191.5 90t70.5 219q0 127 -70.5 213t-191.5 86t-191.5 -86t-70.5 -213z " />
<glyph unicode="7" horiz-adv-x="1026" d="M43 1217v202h946v-145l-524 -1274h-256l526 1217h-692z" />
<glyph unicode="8" horiz-adv-x="1136" d="M94 377q0 127 65.5 206t186.5 144q-213 121 -213 346q0 180 131 276.5t303 96.5q170 0 302 -96.5t132 -276.5q0 -205 -217 -325q121 -66 189.5 -151t68.5 -220q0 -190 -140 -297t-334.5 -107t-334 107t-139.5 297zM330 381q0 -90 68.5 -147.5t169 -57.5t170 57.5 t69.5 147.5q0 49 -19.5 88t-60.5 68.5t-79 49t-101 46.5q-104 -51 -160.5 -107.5t-56.5 -144.5zM367 1073q0 -78 55.5 -129t161.5 -100q90 49 137 100t47 129q0 72 -56.5 121t-144.5 49q-90 0 -145 -49t-55 -121z" />
<glyph unicode="9" horiz-adv-x="1167" d="M88 934q0 213 143.5 362.5t352.5 149.5t352 -149.5t143 -362.5q0 -115 -39 -205l-327 -729h-250l217 440q-55 -18 -96 -18q-209 0 -352.5 149.5t-143.5 362.5zM322 934q0 -127 71.5 -215t190 -88t190.5 88t72 215q0 129 -73 219t-189 90q-119 0 -190.5 -90t-71.5 -219z " />
<glyph unicode=":" horiz-adv-x="587" d="M143 125q0 63 43 107t106.5 44t107.5 -44t44 -107q0 -61 -44 -104.5t-107.5 -43.5t-106.5 43.5t-43 104.5zM143 825q0 61 44 106.5t106 45.5q63 0 107 -45t44 -107q0 -63 -44 -106t-107.5 -43t-106.5 43t-43 106z" />
<glyph unicode=";" horiz-adv-x="595" d="M90 -319l105 593l223 -38l-178 -580zM154 825q0 61 44 106.5t105.5 45.5t105.5 -45t44 -107q0 -63 -43 -106t-106.5 -43t-106.5 43t-43 106z" />
<glyph unicode="&#x3c;" horiz-adv-x="1212" d="M197 526l682 574l137 -164l-486 -410l486 -405l-137 -166z" />
<glyph unicode="=" horiz-adv-x="1290" d="M156 188v218h979v-218h-979zM156 647v217h979v-217h-979z" />
<glyph unicode="&#x3e;" horiz-adv-x="1212" d="M197 121l487 407l-487 408l137 166l682 -574l-682 -571z" />
<glyph unicode="?" horiz-adv-x="1038" d="M150 1321q186 125 366 125q190 0 297 -107.5t107 -240.5q0 -78 -30 -145.5t-71 -118t-83 -102.5t-71.5 -126t-29.5 -164h-225q0 104 28.5 191.5t69.5 144t82 103.5t69.5 96t28.5 100q0 66 -47 109t-135 43q-113 0 -264 -90zM373 125q0 66 43 106.5t106 40.5 q61 0 107.5 -42t46.5 -105q0 -61 -46 -105.5t-108 -44.5q-63 0 -106 44.5t-43 105.5z" />
<glyph unicode="@" horiz-adv-x="1982" d="M96 475q0 414 250 665t653 251q395 0 641 -244t246 -641q0 -223 -98 -364.5t-285 -141.5q-188 0 -243 160q-106 -160 -304 -160q-190 0 -311 143.5t-121 343.5q0 199 120 344.5t312 145.5q166 0 273 -123v94l201 -37v-618q0 -61 25.5 -96t72.5 -35q84 0 136 87t52 251 q0 352 -200.5 543.5t-516.5 191.5q-317 0 -526 -208t-209 -550q0 -334 201 -526.5t518 -192.5q184 0 340 64l47 -150q-190 -70 -385 -69q-408 0 -648.5 239.5t-240.5 632.5zM731 487q0 -131 67.5 -219t180.5 -88t188.5 86t75.5 221q0 139 -78 223.5t-186 84.5 q-113 0 -180.5 -89.5t-67.5 -218.5z" />
<glyph unicode="A" horiz-adv-x="1318" d="M49 0l467 1419h287l467 -1419h-240l-129 397h-483l-129 -397h-240zM483 602h351l-101 307q-25 76 -76 277q-37 -170 -71 -277z" />
<glyph unicode="B" horiz-adv-x="1175" d="M147 0v1419h400q233 0 354 -103.5t121 -273.5q0 -197 -184 -284q127 -43 195.5 -129t68.5 -209q0 -182 -137.5 -301t-362.5 -119h-455zM385 209h199q133 0 201.5 58.5t68.5 158.5q0 219 -272 219h-197v-436zM385 840h168q225 0 225 186q0 184 -235 184h-158v-370z" />
<glyph unicode="C" horiz-adv-x="1320" d="M96 709q0 313 194.5 525t532.5 212q203 0 400 -74l-56 -196q-172 59 -344 59q-233 0 -355 -153.5t-122 -373t122 -372t355 -152.5q172 0 346 60l58 -201q-190 -70 -404 -70q-336 0 -531.5 212.5t-195.5 523.5z" />
<glyph unicode="D" horiz-adv-x="1421" d="M147 0v1419h498q332 0 506 -201.5t174 -510.5q0 -307 -174 -507t-506 -200h-498zM385 209h238q123 0 214 41t141 112.5t73.5 157.5t23.5 187q0 219 -107.5 361t-344.5 142h-238v-1001z" />
<glyph unicode="E" horiz-adv-x="1054" d="M147 0v1419h799v-209h-561v-387h516l-24 -205h-492v-409h576v-209h-814z" />
<glyph unicode="F" horiz-adv-x="993" d="M147 0v1419h771v-209h-533v-387h487l-24 -205h-463v-618h-238z" />
<glyph unicode="G" horiz-adv-x="1519" d="M96 707q0 311 209 525t555 214q240 0 463 -94l-70 -195q-195 78 -393 78q-244 0 -379 -155.5t-135 -372.5q0 -213 130 -368t358 -155q178 0 342 68v436l227 47v-612q-268 -150 -569 -150q-330 0 -534 212.5t-204 521.5z" />
<glyph unicode="H" horiz-adv-x="1345" d="M147 0v1419h238v-588h576v588h237v-1419h-237v623h-576v-623h-238z" />
<glyph unicode="I" horiz-adv-x="532" d="M147 0v1419h238v-1419h-238z" />
<glyph unicode="J" horiz-adv-x="1001" d="M49 63l72 193q147 -72 276 -72q229 0 230 297v938h235v-960q0 -231 -127 -358.5t-338 -127.5q-172 0 -348 90z" />
<glyph unicode="K" horiz-adv-x="1261" d="M147 0v1419h238v-678l494 678h282l-454 -610l505 -809h-290l-365 616l-172 -223v-393h-238z" />
<glyph unicode="L" horiz-adv-x="1005" d="M147 0v1419l238 25v-1235h551v-209h-789z" />
<glyph unicode="M" horiz-adv-x="1773" d="M70 0l204 1419h273l270 -913q35 -123 68 -273q41 174 71 273l271 913h272l205 -1419h-238l-110 815q-14 119 -21 250q-37 -133 -71 -250l-244 -803h-266l-246 803q-41 135 -70 250q-12 -184 -20 -250l-111 -815h-237z" />
<glyph unicode="N" horiz-adv-x="1404" d="M147 0v1389l207 28l668 -989v991h235v-1419h-210l-662 985v-985h-238z" />
<glyph unicode="O" horiz-adv-x="1638" d="M96 706.5q0 307.5 204 523.5t519.5 216t519 -216t203.5 -523.5t-203.5 -520.5t-519 -213t-519.5 213t-204 520.5zM346 706.5q0 -219.5 130 -371t343 -151.5t343 151.5t130 371t-131 374t-342 154.5t-342 -154.5t-131 -374z" />
<glyph unicode="P" horiz-adv-x="1110" d="M147 0v1419h412q215 0 348 -116.5t133 -321.5t-135 -322.5t-348 -117.5h-172v-541h-238zM385 745h150q145 0 205.5 61.5t60.5 174.5q0 229 -260 229h-156v-465z" />
<glyph unicode="Q" horiz-adv-x="1638" d="M96 706.5q0 307.5 204 523.5t519.5 216t519 -216t203.5 -523q0 -242 -131 -431.5t-350 -261.5l98 -366l-207 -49l-94 376q-14 -2 -39 -2q-315 0 -519 213t-204 520.5zM346 706.5q0 -219.5 130 -371t343 -151.5t343 151.5t130 371t-131 374t-342 154.5t-342 -154.5 t-131 -374z" />
<glyph unicode="R" horiz-adv-x="1142" d="M147 0v1419h412q215 0 348 -116.5t133 -321.5q0 -147 -74.5 -251.5t-199.5 -149.5l307 -580h-264l-281 543h-143v-543h-238zM385 745h150q266 0 266 236q0 229 -260 229h-156v-465z" />
<glyph unicode="S" horiz-adv-x="1062" d="M72 80l65 196q188 -92 355 -92q104 0 166.5 51.5t62.5 137.5q0 57 -34 101t-87 76t-117.5 61.5t-130 67.5t-119 84t-87 119.5t-33.5 168.5q0 180 130 287.5t316 107.5q166 0 361 -84l-70 -193q-160 66 -291 66q-96 0 -146.5 -50t-50.5 -134q0 -61 45.5 -111.5t113 -83.5 t146 -77t146.5 -90t113 -128t45 -188q0 -178 -137.5 -289t-341.5 -111q-209 1 -420 107z" />
<glyph unicode="T" horiz-adv-x="1120" d="M59 1210v209h1002v-209h-383v-1210h-236v1210h-383z" />
<glyph unicode="U" horiz-adv-x="1351" d="M117 516v903h237v-880q0 -162 83 -258.5t239 -96.5q158 0 240.5 97.5t82.5 261.5v876h236v-901q0 -240 -154.5 -392.5t-404.5 -152.5t-404.5 153.5t-154.5 389.5z" />
<glyph unicode="V" horiz-adv-x="1310" d="M45 1419h244l295 -909q8 -27 71 -277q47 201 74 277l293 909h244l-467 -1419h-287z" />
<glyph unicode="W" horiz-adv-x="1816" d="M63 1419h240l168 -860q18 -90 43 -295q49 207 76 293l194 604h248l195 -604q14 -45 73 -293q20 176 46 295l167 860h240l-299 -1419h-276l-205 637q-33 98 -66 229q-27 -106 -63 -229l-205 -637h-277z" />
<glyph unicode="X" horiz-adv-x="1306" d="M43 0l469 729l-436 690h266l309 -491l314 491h260l-439 -684l471 -735h-272l-338 535l-340 -535h-264z" />
<glyph unicode="Y" horiz-adv-x="1269" d="M49 1419h266l316 -604l321 604h269l-469 -837v-582h-242v580z" />
<glyph unicode="Z" horiz-adv-x="1128" d="M84 0v147l637 1063h-619v209h922v-147l-631 -1063h651v-209h-960z" />
<glyph unicode="[" horiz-adv-x="641" d="M172 -408v2048h369v-178h-140v-1691h140v-179h-369z" />
<glyph unicode="\" horiz-adv-x="874" d="M94 1495h191l495 -1694h-190z" />
<glyph unicode="]" horiz-adv-x="641" d="M98 -229h142v1691h-142v178h371v-2048h-371v179z" />
<glyph unicode="^" horiz-adv-x="1247" d="M176 780l344 639h215l344 -639h-235l-217 449l-215 -449h-236z" />
<glyph unicode="_" horiz-adv-x="1024" d="M0 -137h1024v-182h-1024v182z" />
<glyph unicode="`" horiz-adv-x="528" d="M88 1495h225l129 -303h-186z" />
<glyph unicode="a" d="M82 518q0 221 135 382t348 161q182 0 305 -135v108l230 -20v-1014h-199l-20 123q-119 -150 -316 -150q-217 0 -350 162t-133 383zM319 518q0 -143 74 -242.5t199 -99.5q121 0 207 94.5t86 249.5q0 150 -84 244t-209 94q-123 0 -198 -97t-75 -243z" />
<glyph unicode="b" d="M127 0v1470l229 48v-592q119 135 306 135q215 0 349 -162t134 -383q0 -223 -135.5 -383t-347.5 -160q-195 0 -316 148l-20 -121h-199zM342 516q0 -152 84 -246t209 -94t198.5 97.5t73.5 242.5q0 143 -74.5 242.5t-197.5 99.5q-121 0 -207 -93t-86 -249z" />
<glyph unicode="c" horiz-adv-x="1046" d="M82 518.5q0 229.5 149.5 386t399.5 156.5q174 0 354 -78l-65 -184q-152 59 -285 59q-145 0 -230.5 -98t-85.5 -241.5t85 -243t231 -99.5q127 1 285 64l61 -193q-154 -74 -350 -74q-248 0 -398.5 158t-150.5 387.5z" />
<glyph unicode="d" d="M82 516q0 221 134 383t349 162q182 0 305 -135v565h230v-1491h-199l-20 121q-121 -147 -316 -148q-213 0 -348 160t-135 383zM319 516q0 -145 74 -242.5t199 -97.5t209 94.5t84 245.5q0 156 -86 249t-207 93q-123 0 -198 -99.5t-75 -242.5z" />
<glyph unicode="e" horiz-adv-x="1116" d="M82 516q0 229 133 387t354 158q231 0 353 -160t122 -422h-733q12 -135 90 -219t228 -84q143 0 303 66l45 -195q-168 -74 -354 -74q-252 0 -396.5 156t-144.5 387zM319 637h494q-41 221 -244 221q-90 0 -157.5 -53t-92.5 -168z" />
<glyph unicode="f" horiz-adv-x="675" d="M27 877v157h166v137q0 168 95 257.5t259 89.5q96 0 190 -31l-41 -195q-72 23 -139 23q-74 0 -104.5 -36t-30.5 -114v-131h237v-157h-237v-877h-229v877h-166z" />
<glyph unicode="g" horiz-adv-x="1228" d="M82 530.5q0 219.5 134 375t349 155.5q195 0 314 -141l12 114l209 -20v-1002q0 -215 -144.5 -351t-373.5 -136q-201 0 -379 90l69 182q150 -69 306 -69h4q139 0 213.5 85t74.5 224v96q-117 -133 -305 -133q-217 0 -350 155.5t-133 375zM319 530.5q0 -143.5 73 -235.5 t200 -92q121 0 207 88t86 239q0 145 -84 236.5t-209 91.5t-199 -92t-74 -235.5z" />
<glyph unicode="h" horiz-adv-x="1130" d="M127 0v1468l229 50v-603q111 145 316 146q156 0 249 -106.5t93 -288.5v-666h-230v635q0 102 -38.5 162.5t-120.5 60.5q-125 0 -197 -101.5t-72 -279.5v-477h-229z" />
<glyph unicode="i" horiz-adv-x="483" d="M104 1352q0 57 40 95t98 38q55 0 98 -38t43 -95.5t-42 -97.5t-99 -40q-59 0 -98.5 39.5t-39.5 98.5zM127 0v1034h229v-1034h-229z" />
<glyph unicode="j" horiz-adv-x="485" d="M-184 -442l39 194q71 -24 125 -24h4q143 0 143 159v1147h229v-1159q0 -168 -94 -259t-256 -91q-81 0 -190 33zM104 1352q0 57 40 95t98 38q55 0 98 -38t43 -95.5t-42 -97.5t-99 -40q-59 0 -98.5 39.5t-39.5 98.5z" />
<glyph unicode="k" horiz-adv-x="1046" d="M127 0v1470l229 48v-877l314 393h276l-328 -387l410 -647h-262l-295 471l-115 -133v-338h-229z" />
<glyph unicode="l" horiz-adv-x="495" d="M127 236v1232l229 50v-1254q0 -47 18.5 -68.5t63.5 -21.5l-22 -199q-139 0 -214 60t-75 201z" />
<glyph unicode="m" horiz-adv-x="1685" d="M127 0v1014l197 20l16 -116q102 143 285 143q207 0 290 -178q104 178 316 178q156 0 247 -105.5t91 -287.5v-668h-230v637q0 221 -157 221q-96 0 -157.5 -96t-61.5 -277v-485h-230v637q0 221 -158 221q-94 0 -156.5 -93t-62.5 -265v-500h-229z" />
<glyph unicode="n" horiz-adv-x="1130" d="M127 0v1014l197 20l20 -133q111 160 328 160q156 0 249 -106.5t93 -288.5v-666h-230v635q0 102 -38.5 162.5t-120.5 60.5q-125 0 -197 -101.5t-72 -279.5v-477h-229z" />
<glyph unicode="o" horiz-adv-x="1228" d="M82 516q0 225 150.5 385t382 160t382 -160t150.5 -385t-149.5 -384t-383 -159t-383 159t-149.5 384zM319 516q0 -147 85 -243.5t210 -96.5t210 95.5t85 245t-86 245.5t-208.5 96t-209 -96t-86.5 -246z" />
<glyph unicode="p" d="M127 -449v1475l199 8l18 -123q119 150 318 150q213 0 348 -160t135 -383q0 -221 -134 -383t-349 -162q-188 0 -306 136v-558h-229zM342 518q0 -156 86 -249t207 -93q123 0 197.5 99.5t74.5 242.5q0 145 -73.5 242.5t-198.5 97.5t-209 -94t-84 -246z" />
<glyph unicode="q" d="M82 520q0 223 135 382t348 159q195 0 316 -148l20 121l199 -8v-1425l-230 -50v558q-123 -135 -305 -136q-215 0 -349 162t-134 385zM319 520.5q0 -145.5 75 -245t198 -99.5q121 0 207 93t86 249q0 152 -84 246t-209 94t-199 -96t-74 -241.5z" />
<glyph unicode="r" horiz-adv-x="698" d="M127 0v1014l197 20l24 -147q113 174 332 174v-203q-154 0 -239 -109.5t-85 -289.5v-459h-229z" />
<glyph unicode="s" horiz-adv-x="813" d="M55 55l56 191q158 -72 260 -72q63 0 102 32t39 81q0 45 -44 79.5t-106.5 62.5t-125 63.5t-106.5 103.5t-44 162q0 137 100.5 220t243.5 83q135 0 287 -68l-66 -182q-111 49 -205 49q-122 0 -122 -100q0 -45 44 -81t106.5 -65.5t125 -67.5t106.5 -105.5t44 -157.5 q0 -135 -107.5 -222.5t-263.5 -87.5q-166 0 -324 82z" />
<glyph unicode="t" horiz-adv-x="737" d="M33 877v157h137v238l229 53v-291h238v-157h-238v-551q0 -78 30 -114t99 -36q66 0 140 23l41 -195q-94 -31 -191 -31q-162 0 -255 84t-93 250v570h-137z" />
<glyph unicode="u" horiz-adv-x="1130" d="M117 369v665h229v-635q0 -102 40 -162.5t122 -60.5q123 0 194.5 101.5t71.5 279.5v477h230v-1034h-197l-21 133q-109 -160 -327 -160q-156 0 -249 107t-93 289z" />
<glyph unicode="v" horiz-adv-x="1036" d="M29 1034h237l178 -534q29 -86 74 -279q43 184 74 279l178 534h238l-365 -1034h-250z" />
<glyph unicode="w" horiz-adv-x="1544" d="M39 1034h233l131 -518q29 -119 54 -258q27 133 59 258l143 518h226l143 -518q29 -113 59 -258q49 244 54 258l131 518h233l-280 -1034h-248l-148 535q-18 68 -57 239q-37 -172 -57 -239l-146 -535h-247z" />
<glyph unicode="x" horiz-adv-x="993" d="M27 0l335 541l-301 493h256l181 -297l182 297h250l-303 -487l338 -547h-258l-215 348l-213 -348h-252z" />
<glyph unicode="y" horiz-adv-x="1052" d="M33 -414l65 181q82 -39 150 -39q49 0 78.5 31.5t52.5 99.5l47 141h-23l-366 1034h242l174 -524q35 -109 77 -283q59 227 78 283l168 524h240l-432 -1265q-41 -117 -125 -180.5t-187 -63.5q-131 0 -239 61z" />
<glyph unicode="z" horiz-adv-x="903" d="M72 0v125l436 706h-412v203h721v-125l-436 -706h450v-203h-759z" />
<glyph unicode="{" horiz-adv-x="808" d="M145 541v151q86 0 133.5 44t47.5 116v422q0 182 78.5 273t269.5 91v-204q-72 0 -98.5 -33t-26.5 -119v-430q0 -84 -33 -138.5t-123 -97.5q90 -43 123 -97t33 -138v-430q0 -86 26.5 -119t98.5 -33v-205q-190 0 -269 91.5t-79 273.5v422q0 72 -47.5 116t-133.5 44z" />
<glyph unicode="|" horiz-adv-x="520" d="M150 -203v1778h221v-1778h-221z" />
<glyph unicode="}" horiz-adv-x="808" d="M135 -201q72 0 98.5 33t26.5 119v430q0 84 33 139t123 96q-90 41 -123 96.5t-33 139.5v430q0 86 -26.5 119t-98.5 33v204q190 0 269 -91t79 -273v-422q0 -72 47.5 -116t133.5 -44v-151q-86 0 -133.5 -44t-47.5 -116v-422q0 -182 -79 -273.5t-269 -91.5v205z" />
<glyph unicode="~" horiz-adv-x="1169" d="M158 1126q0 147 70.5 232.5t201.5 85.5q49 0 96 -22.5t76 -50.5t62.5 -50.5t58.5 -22.5q76 0 76 121h213q0 -147 -71 -232t-202 -85q-63 0 -119.5 37t-99.5 72.5t-74 35.5q-75 0 -75 -121h-213z" />
<glyph unicode="&#xa1;" horiz-adv-x="602" d="M150 1057q0 61 44 105t105 44q63 0 108.5 -44t45.5 -105q0 -63 -45.5 -105.5t-108.5 -42.5q-59 0 -104 42.5t-45 105.5zM184 -238v959h230v-959h-230z" />
<glyph unicode="&#xa2;" horiz-adv-x="1134" d="M104 518q0 203 119 351.5t324 181.5v237h186v-231q135 -14 275 -74l-66 -184q-152 59 -285 59q-150 0 -235.5 -98t-85.5 -242q0 -145 86 -243.5t235 -98.5q127 0 285 64l62 -193q-119 -59 -271 -70v-231h-186v238q-205 31 -324 181t-119 353z" />
<glyph unicode="&#xa3;" horiz-adv-x="1075" d="M109 549v162h143q-49 160 -49 301q0 199 125 316.5t331 117.5q160 0 340 -88l-69 -191q-141 68 -271 68q-109 0 -166 -59.5t-57 -163.5q0 -119 60 -301h335v-162h-299q4 -23 5 -66q0 -172 -125 -282h577v-201h-850v182q164 147 164 303q0 33 -6 64h-188z" />
<glyph unicode="&#xa4;" horiz-adv-x="1134" d="M115 225l131 131q-39 78 -39 162q0 88 43 168l-135 137l153 154l138 -139q76 41 161 41q90 0 162 -41l137 139l154 -154l-135 -137q43 -80 43 -168q0 -86 -41 -162l133 -131l-154 -153l-131 129q-80 -43 -168 -43t-168 43l-131 -129zM420 518q0 -59 44 -103t103 -44 q61 0 105.5 44t44.5 103q0 61 -44 105.5t-106 44.5q-59 0 -103 -44.5t-44 -105.5z" />
<glyph unicode="&#xa5;" horiz-adv-x="1155" d="M35 1419h262l278 -604l281 604h264l-362 -723h211v-164h-273v-167h273v-162h-273v-203h-237v203h-273v162h273v167h-273v164h207z" />
<glyph unicode="&#xa6;" horiz-adv-x="520" d="M150 -203v654h221v-654h-221zM150 920v655h221v-655h-221z" />
<glyph unicode="&#xa7;" horiz-adv-x="1099" d="M117 -80l53 184q145 -63 281 -63q164 0 163 135q0 57 -48 97t-116.5 70t-136 65.5t-115.5 107.5t-48 174q0 188 155 279q-33 61 -33 147q0 141 99.5 235.5t257.5 94.5q152 0 297 -64l-56 -184q-121 49 -227 49q-135 0 -135 -123q0 -51 48 -91t116.5 -71.5t136.5 -70.5 t116 -111.5t48 -173.5q0 -176 -160 -274q37 -68 37 -152q0 -143 -113.5 -240.5t-275.5 -97.5q-172 0 -344 78zM385 698q0 -51 35 -83.5t121.5 -75t115.5 -60.5q80 31 80 123q0 41 -26.5 74t-58 50t-91 45t-90.5 46q-86 -23 -86 -119z" />
<glyph unicode="&#xa8;" horiz-adv-x="874" d="M121 1339.5q0 51.5 37 90t88 38.5t89 -37.5t38 -91t-37 -90.5t-90 -37q-51 0 -88 38t-37 89.5zM502 1339.5q0 51.5 36.5 90t88.5 38.5q53 0 91 -37.5t38 -91.5q0 -51 -38 -89t-91 -38q-51 0 -88 38t-37 89.5z" />
<glyph unicode="&#xa9;" horiz-adv-x="1517" d="M96 684q0 291 186.5 487.5t477.5 196.5t476 -196.5t185 -487.5t-185 -486.5t-476 -195.5t-477.5 195.5t-186.5 486.5zM238 684q0 -231 145 -388t376.5 -157t376 157t144.5 388q0 229 -144.5 388t-376 159t-376.5 -159t-145 -388zM406 686q0 158 97 261.5t269 103.5 q102 0 215 -43l-41 -125q-98 33 -174 32q-104 0 -158.5 -66.5t-54.5 -162.5t54.5 -162.5t158.5 -66.5q84 0 176 35l41 -127q-109 -43 -217 -43q-172 0 -269 102t-97 262z" />
<glyph unicode="&#xaa;" horiz-adv-x="903" d="M88 1034q0 154 93 269.5t247 115.5q119 0 197 -82v62l190 -15v-712h-168l-14 67q-76 -88 -205 -88q-150 0 -245 114t-95 269zM281 1034q0 -92 46 -155.5t125.5 -63.5t133 61.5t53.5 157.5q0 102 -54.5 160.5t-131.5 58.5q-84 0 -128 -64.5t-44 -154.5z" />
<glyph unicode="&#xab;" horiz-adv-x="1148" d="M115 528l286 416l189 -127l-201 -289l201 -288l-189 -127zM559 528l287 416l188 -127l-200 -289l200 -288l-188 -127z" />
<glyph unicode="&#xac;" horiz-adv-x="1333" d="M188 412v223h942v-490h-221v267h-721z" />
<glyph unicode="&#xad;" horiz-adv-x="0" />
<glyph unicode="&#xae;" horiz-adv-x="1517" d="M96 684q0 291 186.5 487.5t477.5 196.5t476 -196.5t185 -487.5t-185 -486.5t-476 -195.5t-477.5 195.5t-186.5 486.5zM238 684q0 -231 145 -388t376.5 -157t376 157t144.5 388q0 229 -144.5 388t-376 159t-376.5 -159t-145 -388zM535 348v703h217q127 0 193.5 -59.5 t66.5 -170.5q0 -145 -125 -196l129 -277h-156l-115 254h-59v-254h-151zM686 725h68q49 0 76.5 24.5t27.5 69.5q0 96 -104 96h-68v-190z" />
<glyph unicode="&#xaf;" horiz-adv-x="710" d="M80 1255v183h553v-183h-553z" />
<glyph unicode="&#xb0;" horiz-adv-x="739" d="M94 1149q0 113 81 193.5t194 80.5q115 0 195.5 -79.5t80.5 -194.5t-80.5 -195t-195.5 -80q-113 0 -194 80t-81 195zM246 1149q0 -53 35.5 -90t87 -37t88.5 37t37 90t-37 90t-88.5 37t-87 -37t-35.5 -90z" />
<glyph unicode="&#xb1;" horiz-adv-x="1290" d="M156 -53h979v-203h-979v203zM156 416v217h381v332h217v-332h381v-217h-381v-332h-217v332h-381z" />
<glyph unicode="&#xb4;" horiz-adv-x="528" d="M88 1192l127 303h227l-170 -303h-184z" />
<glyph unicode="&#xb5;" horiz-adv-x="1126" d="M121 -449v1483h229v-602q0 -109 54.5 -182.5t159 -73.5t159.5 74t55 182v602h230v-622q0 -182 -122 -310.5t-323 -128.5q-123 0 -213 58v-480h-229z" />
<glyph unicode="&#xb6;" horiz-adv-x="1234" d="M76 989q0 178 132 304t318 126h582v-1566h-234v1345h-149v-1345h-233v710q-176 16 -296 137t-120 289z" />
<glyph unicode="&#xb7;" horiz-adv-x="532" d="M131 526.5q0 55.5 39 96.5t94 41q57 0 97 -40t40 -97.5t-40 -96.5t-97 -39q-55 0 -94 40t-39 95.5z" />
<glyph unicode="&#xb8;" horiz-adv-x="632" d="M113 -436l30 137q70 -25 142 -25q78 0 77 56q0 51 -79 51q-51 0 -123 -12l39 229h151l-14 -100q84 0 133 -44t49 -124q0 -88 -60.5 -145.5t-172.5 -57.5q-94 0 -172 35z" />
<glyph unicode="&#xba;" horiz-adv-x="935" d="M88 1034.5q0 157.5 107.5 271t273.5 113.5q164 0 270.5 -113.5t106.5 -271t-105.5 -270.5t-271.5 -113q-168 0 -274.5 113t-106.5 270.5zM281 1034.5q0 -98.5 54 -159t134 -60.5q78 0 131 60.5t53 159t-54 158.5t-130 60q-78 0 -133 -60t-55 -158.5z" />
<glyph unicode="&#xbb;" horiz-adv-x="1148" d="M115 238l200 288l-200 289l188 127l287 -416l-287 -415zM559 238l201 288l-201 289l189 127l286 -416l-286 -415z" />
<glyph unicode="&#xbf;" horiz-adv-x="1038" d="M119 109q0 78 29.5 145.5t70.5 117.5t83 102t71.5 126t29.5 164h226q0 -129 -44 -232.5t-95.5 -158t-95.5 -119t-44 -125.5q0 -68 45 -110t133 -42q120 1 267 91l94 -183q-188 -125 -367 -125q-190 0 -296.5 107.5t-106.5 241.5zM360 1081q0 61 47.5 105.5t108.5 44.5 q63 0 106.5 -44t43.5 -106q0 -63 -44 -105t-105.5 -42t-109 42t-47.5 105z" />
<glyph unicode="&#xc0;" horiz-adv-x="1318" d="M49 0l467 1419h287l467 -1419h-240l-129 397h-483l-129 -397h-240zM410 1849h225l129 -303h-186zM483 602h351l-101 307q-25 76 -76 277q-37 -170 -71 -277z" />
<glyph unicode="&#xc1;" horiz-adv-x="1318" d="M49 0l467 1419h287l467 -1419h-240l-129 397h-483l-129 -397h-240zM483 602h351l-101 307q-25 76 -76 277q-37 -170 -71 -277zM551 1546l129 303h225l-168 -303h-186z" />
<glyph unicode="&#xc2;" horiz-adv-x="1318" d="M49 0l467 1419h287l467 -1419h-240l-129 397h-483l-129 -397h-240zM346 1546l201 303h223l201 -303h-219l-95 172l-92 -172h-219zM483 602h351l-101 307q-25 76 -76 277q-37 -170 -71 -277z" />
<glyph unicode="&#xc3;" horiz-adv-x="1318" d="M49 0l467 1419h287l467 -1419h-240l-129 397h-483l-129 -397h-240zM346 1726q51 63 91 88t104 25q51 0 127.5 -42t99.5 -42q49 0 102 64l97 -133q-51 -63 -91 -89t-104 -26q-51 0 -127 42t-100 42q-52 -1 -103 -64zM483 602h351l-101 307q-25 76 -76 277 q-37 -170 -71 -277z" />
<glyph unicode="&#xc4;" horiz-adv-x="1318" d="M49 0l467 1419h287l467 -1419h-240l-129 397h-483l-129 -397h-240zM342 1693.5q0 51.5 37 90.5t88 39t89 -38t38 -91q0 -51 -37 -89t-90 -38q-51 0 -88 37.5t-37 89zM483 602h351l-101 307q-25 76 -76 277q-37 -170 -71 -277zM723 1693.5q0 51.5 37 90.5t88 39 q53 0 91 -39t38 -90.5t-38 -89t-91 -37.5q-51 0 -88 37.5t-37 89z" />
<glyph unicode="&#xc5;" horiz-adv-x="1318" d="M49 0l467 1419h287l467 -1419h-240l-129 397h-483l-129 -397h-240zM446 1724q0 86 61.5 145.5t149.5 59.5t150.5 -59.5t62.5 -145.5q0 -84 -62.5 -143t-150.5 -59t-149.5 59t-61.5 143zM483 602h351l-101 307q-25 76 -76 277q-37 -170 -71 -277zM610 1724 q0 -18 12.5 -32.5t33 -14.5t35 13.5t14.5 34t-14.5 34t-33.5 13.5q-20 0 -33.5 -14t-13.5 -34z" />
<glyph unicode="&#xc6;" horiz-adv-x="1949" d="M49 0l729 1419h856l37 -209h-549l68 -387h532l35 -205h-530l71 -409h568l35 -209h-801l-70 399h-520l-199 -399h-262zM612 604h381l-100 561z" />
<glyph unicode="&#xc7;" horiz-adv-x="1320" d="M96 709q0 313 194.5 525t532.5 212q203 0 400 -74l-56 -196q-172 59 -344 59q-233 0 -355 -153.5t-122 -373t122 -372t355 -152.5q172 0 346 60l58 -201q-184 -66 -389 -70l-11 -73q84 0 133.5 -44t49.5 -124q0 -88 -60.5 -145.5t-173.5 -57.5q-94 0 -172 35l31 137 q70 -25 141 -25q78 0 78 56q0 51 -80 51q-51 0 -123 -12l35 213q-274 43 -432 245.5t-158 479.5z" />
<glyph unicode="&#xc8;" horiz-adv-x="1054" d="M147 0v1419h799v-209h-561v-387h516l-24 -205h-492v-409h576v-209h-814zM319 1849h228l127 -303h-185z" />
<glyph unicode="&#xc9;" horiz-adv-x="1054" d="M147 0v1419h799v-209h-561v-387h516l-24 -205h-492v-409h576v-209h-814zM420 1546l127 303h227l-170 -303h-184z" />
<glyph unicode="&#xca;" horiz-adv-x="1054" d="M147 0v1419h799v-209h-561v-387h516l-24 -205h-492v-409h576v-209h-814zM244 1546l200 303h224l200 -303h-219l-94 172l-92 -172h-219z" />
<glyph unicode="&#xcb;" horiz-adv-x="1054" d="M147 0v1419h799v-209h-561v-387h516l-24 -205h-492v-409h576v-209h-814zM233 1696q0 51 37 90t88.5 39t89 -38t37.5 -91.5t-37.5 -90t-89 -36.5t-88.5 38t-37 89zM614 1696q0 51 37 90t88.5 39t90 -38t38.5 -91q0 -51 -38 -89t-91 -38q-51 0 -88 38t-37 89z" />
<glyph unicode="&#xcc;" horiz-adv-x="532" d="M18 1849h226l129 -303h-187zM147 0v1419h238v-1419h-238z" />
<glyph unicode="&#xcd;" horiz-adv-x="532" d="M147 0v1419h238v-1419h-238zM162 1546l127 303h227l-170 -303h-184z" />
<glyph unicode="&#xce;" horiz-adv-x="532" d="M-45 1546l201 303h223l201 -303h-220l-94 172l-92 -172h-219zM147 0v1419h238v-1419h-238z" />
<glyph unicode="&#xcf;" horiz-adv-x="532" d="M-51 1696q0 51 37 90t88 39t89 -38t38 -91.5t-37 -90t-90 -36.5q-51 0 -88 38t-37 89zM147 0v1419h238v-1419h-238zM330 1696q0 51 36.5 90t88.5 39q53 0 91 -38t38 -91q0 -51 -38 -89t-91 -38q-51 0 -88 38t-37 89z" />
<glyph unicode="&#xd0;" horiz-adv-x="1421" d="M0 629v170h147v620h498q332 0 506 -201.5t174 -510.5q0 -307 -174 -507t-506 -200h-498v629h-147zM385 209h238q123 0 214 41t141 112.5t73.5 157.5t23.5 187q0 219 -107.5 361t-344.5 142h-238v-411h295v-170h-295v-420z" />
<glyph unicode="&#xd1;" horiz-adv-x="1404" d="M147 0v1389l207 28l668 -989v991h235v-1419h-210l-662 985v-985h-238zM389 1726q53 63 92 88t103 25q53 0 128.5 -42t100.5 -42q49 0 102 64l97 -133q-55 -66 -93 -90.5t-102 -24.5q-51 0 -128 42t-101 42q-52 -1 -103 -64z" />
<glyph unicode="&#xd2;" horiz-adv-x="1638" d="M96 706.5q0 307.5 204 523.5t519.5 216t519 -216t203.5 -523.5t-203.5 -520.5t-519 -213t-519.5 213t-204 520.5zM346 706.5q0 -219.5 130 -371t343 -151.5t343 151.5t130 371t-131 374t-342 154.5t-342 -154.5t-131 -374zM563 1849h228l127 -303h-185z" />
<glyph unicode="&#xd3;" horiz-adv-x="1638" d="M96 706.5q0 307.5 204 523.5t519.5 216t519 -216t203.5 -523.5t-203.5 -520.5t-519 -213t-519.5 213t-204 520.5zM346 706.5q0 -219.5 130 -371t343 -151.5t343 151.5t130 371t-131 374t-342 154.5t-342 -154.5t-131 -374zM707 1546l129 303h225l-168 -303h-186z" />
<glyph unicode="&#xd4;" horiz-adv-x="1638" d="M96 706.5q0 307.5 204 523.5t519.5 216t519 -216t203.5 -523.5t-203.5 -520.5t-519 -213t-519.5 213t-204 520.5zM346 706.5q0 -219.5 130 -371t343 -151.5t343 151.5t130 371t-131 374t-342 154.5t-342 -154.5t-131 -374zM508 1546l201 303h223l201 -303h-220l-94 172 l-92 -172h-219z" />
<glyph unicode="&#xd5;" horiz-adv-x="1638" d="M96 706.5q0 307.5 204 523.5t519.5 216t519 -216t203.5 -523.5t-203.5 -520.5t-519 -213t-519.5 213t-204 520.5zM346 706.5q0 -219.5 130 -371t343 -151.5t343 151.5t130 371t-131 374t-342 154.5t-342 -154.5t-131 -374zM508 1726q53 63 92 88t102 25q53 0 129 -42 t101 -42q49 0 102 64l96 -133q-55 -66 -93 -90.5t-101 -24.5q-51 0 -128 42t-101 42q-52 -1 -103 -64z" />
<glyph unicode="&#xd6;" horiz-adv-x="1638" d="M96 706.5q0 307.5 204 523.5t519.5 216t519 -216t203.5 -523.5t-203.5 -520.5t-519 -213t-519.5 213t-204 520.5zM346 706.5q0 -219.5 130 -371t343 -151.5t343 151.5t130 371t-131 374t-342 154.5t-342 -154.5t-131 -374zM502 1696q0 51 36.5 90t88 39t89.5 -38 t38 -91.5t-37 -90t-90 -36.5q-51 0 -88 38t-37 89zM883 1696q0 51 36.5 90t88.5 39q53 0 91 -38t38 -91q0 -51 -38 -89t-91 -38q-51 0 -88 38t-37 89z" />
<glyph unicode="&#xd7;" horiz-adv-x="1060" d="M106 256l271 270l-271 271l152 151l270 -270l271 270l153 -151l-270 -271l270 -270l-153 -152l-271 271l-270 -271z" />
<glyph unicode="&#xd8;" horiz-adv-x="1638" d="M96 707q0 307 204 523t519 216q203 0 367 -96l112 155l132 -94l-115 -158q227 -217 227 -546q0 -307 -203.5 -520.5t-519.5 -213.5q-207 0 -366 95l-119 -164l-131 94l121 166q-228 215 -228 543zM346 707q0 -205 115 -353l594 815q-104 66 -236 66q-211 0 -342 -154.5 t-131 -373.5zM584 246q104 -61 235 -62q213 0 343 152t130 371q0 209 -116 354z" />
<glyph unicode="&#xd9;" horiz-adv-x="1351" d="M117 516v903h237v-880q0 -162 83 -258.5t239 -96.5q158 0 240.5 97.5t82.5 261.5v876h236v-901q0 -240 -154.5 -392.5t-404.5 -152.5t-404.5 153.5t-154.5 389.5zM442 1849h228l127 -303h-185z" />
<glyph unicode="&#xda;" horiz-adv-x="1351" d="M117 516v903h237v-880q0 -162 83 -258.5t239 -96.5q158 0 240.5 97.5t82.5 261.5v876h236v-901q0 -240 -154.5 -392.5t-404.5 -152.5t-404.5 153.5t-154.5 389.5zM553 1546l129 303h225l-168 -303h-186z" />
<glyph unicode="&#xdb;" horiz-adv-x="1351" d="M117 516v903h237v-880q0 -162 83 -258.5t239 -96.5q158 0 240.5 97.5t82.5 261.5v876h236v-901q0 -240 -154.5 -392.5t-404.5 -152.5t-404.5 153.5t-154.5 389.5zM365 1546l200 303h223l201 -303h-219l-94 172l-92 -172h-219z" />
<glyph unicode="&#xdc;" horiz-adv-x="1351" d="M117 516v903h237v-880q0 -162 83 -258.5t239 -96.5q158 0 240.5 97.5t82.5 261.5v876h236v-901q0 -240 -154.5 -392.5t-404.5 -152.5t-404.5 153.5t-154.5 389.5zM358 1696q0 51 37 90t88.5 39t89 -38t37.5 -91.5t-36.5 -90t-90.5 -36.5q-51 0 -88 38t-37 89zM739 1696 q0 51 37 90t88 39q53 0 91 -38t38 -91q0 -51 -38 -89t-91 -38q-51 0 -88 38t-37 89z" />
<glyph unicode="&#xdd;" horiz-adv-x="1269" d="M49 1419h266l316 -604l321 604h269l-469 -837v-582h-242v580zM514 1546l127 303h227l-170 -303h-184z" />
<glyph unicode="&#xde;" horiz-adv-x="1110" d="M147 0v1419h238v-205h170q213 0 349 -116.5t136 -321.5t-141 -322.5t-356 -117.5h-158v-336h-238zM385 541h125q152 0 221.5 64.5t69.5 170.5q0 229 -279 230h-137v-465z" />
<glyph unicode="&#xdf;" horiz-adv-x="1255" d="M27 877v159h168v125q0 168 102 263.5t266 95.5t267.5 -95.5t103.5 -263.5q0 -78 -41 -147.5t-82 -133t-41 -124.5q0 -47 43 -83t105.5 -64.5t125 -65.5t105.5 -103.5t43 -156.5q0 -145 -112.5 -227.5t-254.5 -82.5q-172 0 -325 84l57 193q156 -76 258 -76q68 0 107 29.5 t39 81.5q0 47 -43.5 81.5t-105.5 62.5t-124.5 63.5t-105.5 103.5t-43 160q0 61 25.5 116.5t57 90t57.5 87t26 107.5q0 160 -142 160q-139 0 -139 -162v-1155h-229v877h-168z" />
<glyph unicode="&#xe0;" d="M82 518q0 221 135 382t348 161q182 0 305 -135v108l230 -20v-1014h-199l-20 123q-119 -150 -316 -150q-217 0 -350 162t-133 383zM319 518q0 -143 74 -242.5t199 -99.5q121 0 207 94.5t86 249.5q0 150 -84 244t-209 94q-123 0 -198 -97t-75 -243zM369 1495h225l129 -303 h-186z" />
<glyph unicode="&#xe1;" d="M82 518q0 221 135 382t348 161q182 0 305 -135v108l230 -20v-1014h-199l-20 123q-119 -150 -316 -150q-217 0 -350 162t-133 383zM319 518q0 -143 74 -242.5t199 -99.5q121 0 207 94.5t86 249.5q0 150 -84 244t-209 94q-123 0 -198 -97t-75 -243zM496 1192l129 303h225 l-168 -303h-186z" />
<glyph unicode="&#xe2;" d="M82 518q0 221 135 382t348 161q182 0 305 -135v108l230 -20v-1014h-199l-20 123q-119 -150 -316 -150q-217 0 -350 162t-133 383zM301 1192l201 303h223l201 -303h-219l-95 172l-92 -172h-219zM319 518q0 -143 74 -242.5t199 -99.5q121 0 207 94.5t86 249.5 q0 150 -84 244t-209 94q-123 0 -198 -97t-75 -243z" />
<glyph unicode="&#xe3;" d="M82 518q0 221 135 382t348 161q182 0 305 -135v108l230 -20v-1014h-199l-20 123q-119 -150 -316 -150q-217 0 -350 162t-133 383zM297 1372q51 63 91 88t104 25q51 0 126.5 -42t100.5 -42q49 0 102 63l97 -133q-51 -63 -91.5 -88.5t-103.5 -25.5q-51 0 -127 41.5 t-100 41.5q-52 0 -103 -63zM319 518q0 -143 74 -242.5t199 -99.5q121 0 207 94.5t86 249.5q0 150 -84 244t-209 94q-123 0 -198 -97t-75 -243z" />
<glyph unicode="&#xe4;" d="M82 518q0 221 135 382t348 161q182 0 305 -135v108l230 -20v-1014h-199l-20 123q-119 -150 -316 -150q-217 0 -350 162t-133 383zM295 1339.5q0 51.5 37 90t88 38.5t89 -37.5t38 -91t-38 -90.5t-89 -37t-88 38t-37 89.5zM319 518q0 -143 74 -242.5t199 -99.5 q121 0 207 94.5t86 249.5q0 150 -84 244t-209 94q-123 0 -198 -97t-75 -243zM676 1339.5q0 51.5 37 90t88 38.5t90 -37.5t39 -91.5q0 -51 -38 -89t-91 -38q-51 0 -88 38t-37 89.5z" />
<glyph unicode="&#xe5;" d="M82 518q0 221 135 382t348 161q182 0 305 -135v108l230 -20v-1014h-199l-20 123q-119 -150 -316 -150q-217 0 -350 162t-133 383zM319 518q0 -143 74 -242.5t199 -99.5q121 0 207 94.5t86 249.5q0 150 -84 244t-209 94q-123 0 -198 -97t-75 -243zM399 1370 q0 86 61.5 145.5t149.5 59.5q90 0 151.5 -59.5t61.5 -145.5q0 -84 -62.5 -143.5t-150.5 -59.5t-149.5 59.5t-61.5 143.5zM563 1370.5q0 -18.5 12.5 -33t33 -14.5t34.5 14.5t14 33t-13 32.5t-32 14q-20 0 -34.5 -14t-14.5 -32.5z" />
<glyph unicode="&#xe6;" horiz-adv-x="1816" d="M74 332q0 147 113.5 226t320.5 79h254q-27 104 -92.5 160.5t-159.5 56.5q-170 0 -334 -72l-47 199q176 80 381 80q256 0 385 -193q135 193 375 193q231 0 353 -160t122 -422h-733q12 -135 90 -219t227 -84q143 0 303 66l45 -195q-168 -74 -354 -74q-279 0 -428 201 q-135 -201 -393 -201q-199 0 -313.5 101.5t-114.5 257.5zM311 334q0 -72 52.5 -113t138.5 -41q113 0 188.5 69.5t83.5 221.5h-266q-197 0 -197 -137zM1020 637h493q-41 221 -243 221q-90 0 -157.5 -53t-92.5 -168z" />
<glyph unicode="&#xe7;" horiz-adv-x="1046" d="M82 518q0 229 149.5 386t399.5 157q174 0 354 -78l-65 -184q-152 59 -285 59q-145 0 -230.5 -98t-85.5 -241.5t85 -243t231 -99.5q127 0 285 64l61 -193q-141 -68 -315 -74l-11 -73q84 0 133.5 -44t49.5 -124q0 -88 -60.5 -145.5t-173.5 -57.5q-94 0 -172 35l31 137 q70 -25 141 -25q78 0 78 56q0 51 -80 51q-51 0 -123 -12l35 213q-201 37 -316.5 185t-115.5 349z" />
<glyph unicode="&#xe8;" horiz-adv-x="1116" d="M82 516q0 229 133 387t354 158q231 0 353 -160t122 -422h-733q12 -135 90 -219t228 -84q143 0 303 66l45 -195q-168 -74 -354 -74q-252 0 -396.5 156t-144.5 387zM315 1495h226l129 -303h-187zM319 637h494q-41 221 -244 221q-90 0 -157.5 -53t-92.5 -168z" />
<glyph unicode="&#xe9;" horiz-adv-x="1116" d="M82 516q0 229 133 387t354 158q231 0 353 -160t122 -422h-733q12 -135 90 -219t228 -84q143 0 303 66l45 -195q-168 -74 -354 -74q-252 0 -396.5 156t-144.5 387zM319 637h494q-41 221 -244 221q-90 0 -157.5 -53t-92.5 -168zM463 1192l129 303h225l-168 -303h-186z" />
<glyph unicode="&#xea;" horiz-adv-x="1116" d="M82 516q0 229 133 387t354 158q231 0 353 -160t122 -422h-733q12 -135 90 -219t228 -84q143 0 303 66l45 -195q-168 -74 -354 -74q-252 0 -396.5 156t-144.5 387zM248 1192l201 303h223l200 -303h-219l-94 172l-92 -172h-219zM319 637h494q-41 221 -244 221 q-90 0 -157.5 -53t-92.5 -168z" />
<glyph unicode="&#xeb;" horiz-adv-x="1116" d="M82 516q0 229 133 387t354 158q231 0 353 -160t122 -422h-733q12 -135 90 -219t228 -84q143 0 303 66l45 -195q-168 -74 -354 -74q-252 0 -396.5 156t-144.5 387zM240 1339.5q0 51.5 36.5 90t88 38.5t89.5 -37.5t38 -91t-37 -90.5t-90 -37q-51 0 -88 38t-37 89.5z M319 637h494q-41 221 -244 221q-90 0 -157.5 -53t-92.5 -168zM621 1339.5q0 51.5 36.5 90t87.5 38.5q53 0 91 -37.5t38 -91.5q0 -51 -38 -89t-91 -38q-51 0 -87.5 38t-36.5 89.5z" />
<glyph unicode="&#xec;" horiz-adv-x="483" d="M-23 1495h228l127 -303h-185zM127 0v1034h229v-1034h-229z" />
<glyph unicode="&#xed;" horiz-adv-x="483" d="M127 0v1034h229v-1034h-229zM147 1192l127 303h228l-170 -303h-185z" />
<glyph unicode="&#xee;" horiz-adv-x="483" d="M-70 1192l201 303h223l201 -303h-219l-94 172l-92 -172h-220zM127 0v1034h229v-1034h-229z" />
<glyph unicode="&#xef;" horiz-adv-x="483" d="M-74 1339.5q0 51.5 37 90t88 38.5t89 -37.5t38 -91t-38 -90.5t-89 -37t-88 38t-37 89.5zM127 0v1034h229v-1034h-229zM307 1339.5q0 51.5 37 90t88 38.5t90 -37.5t39 -91.5q0 -51 -38 -89t-91 -38q-51 0 -88 38t-37 89.5z" />
<glyph unicode="&#xf0;" horiz-adv-x="1236" d="M86 489.5q0 215.5 150.5 368t381.5 152.5q100 0 189 -41q-37 84 -105 192l-170 -61l-49 137l138 49q-31 49 -119 162l196 68q82 -90 127 -156l162 59l49 -137l-125 -45q240 -379 240 -745q0 -213 -150.5 -366t-382.5 -153q-233 0 -382.5 150.5t-149.5 366zM324 489 q0 -139 85 -226t209.5 -87t209.5 87t85 226q0 141 -84 230.5t-211 89.5q-125 0 -209.5 -89t-84.5 -231z" />
<glyph unicode="&#xf1;" horiz-adv-x="1130" d="M127 0v1014l197 20l20 -133q111 160 328 160q156 0 249 -106.5t93 -288.5v-666h-230v635q0 102 -38.5 162.5t-120.5 60.5q-125 0 -197 -101.5t-72 -279.5v-477h-229zM254 1372q51 63 91 88t104 25q51 0 127.5 -42t99.5 -42q49 0 102 63l96 -133q-51 -63 -91 -88.5 t-103 -25.5q-51 0 -127 41.5t-100 41.5q-52 0 -103 -63z" />
<glyph unicode="&#xf2;" horiz-adv-x="1228" d="M82 516q0 225 150.5 385t382 160t382 -160t150.5 -385t-149.5 -384t-383 -159t-383 159t-149.5 384zM319 516q0 -147 85 -243.5t210 -96.5t210 95.5t85 245t-86 245.5t-208.5 96t-209 -96t-86.5 -246zM367 1495h225l129 -303h-186z" />
<glyph unicode="&#xf3;" horiz-adv-x="1228" d="M82 516q0 225 150.5 385t382 160t382 -160t150.5 -385t-149.5 -384t-383 -159t-383 159t-149.5 384zM319 516q0 -147 85 -243.5t210 -96.5t210 95.5t85 245t-86 245.5t-208.5 96t-209 -96t-86.5 -246zM508 1192l129 303h225l-168 -303h-186z" />
<glyph unicode="&#xf4;" horiz-adv-x="1228" d="M82 516q0 225 150.5 385t382 160t382 -160t150.5 -385t-149.5 -384t-383 -159t-383 159t-149.5 384zM303 1192l201 303h223l201 -303h-219l-95 172l-92 -172h-219zM319 516q0 -147 85 -243.5t210 -96.5t210 95.5t85 245t-86 245.5t-208.5 96t-209 -96t-86.5 -246z" />
<glyph unicode="&#xf5;" horiz-adv-x="1228" d="M82 516q0 225 150.5 385t382 160t382 -160t150.5 -385t-149.5 -384t-383 -159t-383 159t-149.5 384zM303 1372q53 63 92 88t103 25q53 0 128.5 -42t100.5 -42q49 0 102 63l97 -133q-55 -66 -93 -90t-102 -24q-51 0 -128 41.5t-101 41.5q-52 0 -103 -63zM319 516 q0 -147 85 -243.5t210 -96.5t210 95.5t85 245t-86 245.5t-208.5 96t-209 -96t-86.5 -246z" />
<glyph unicode="&#xf6;" horiz-adv-x="1228" d="M82 516q0 225 150.5 385t382 160t382 -160t150.5 -385t-149.5 -384t-383 -159t-383 159t-149.5 384zM297 1339.5q0 51.5 37 90t88 38.5t89 -37.5t38 -91t-37 -90.5t-90 -37q-51 0 -88 38t-37 89.5zM319 516q0 -147 85 -243.5t210 -96.5t210 95.5t85 245t-86 245.5 t-208.5 96t-209 -96t-86.5 -246zM678 1339.5q0 51.5 37 90t88 38.5q53 0 91 -37.5t38 -91.5q0 -51 -38 -89t-91 -38q-51 0 -88 38t-37 89.5z" />
<glyph unicode="&#xf8;" horiz-adv-x="1228" d="M82 516q0 225 150.5 385t381.5 160q137 0 258 -66l111 154l133 -96l-115 -158q145 -156 146 -379q0 -225 -150 -384t-383 -159q-133 0 -243 56l-119 -164l-131 96l119 162q-158 158 -158 393zM319 516q0 -119 56 -207l373 514q-63 35 -134 35q-123 0 -209 -96t-86 -246z M496 201q55 -25 118 -25q125 0 210 95.5t85 244.5q0 106 -47 189z" />
<glyph unicode="&#xf9;" horiz-adv-x="1130" d="M117 369v665h229v-635q0 -102 40 -162.5t122 -60.5q123 0 194.5 101.5t71.5 279.5v477h230v-1034h-197l-21 133q-109 -160 -327 -160q-156 0 -249 107t-93 289zM313 1495h226l129 -303h-187z" />
<glyph unicode="&#xfa;" horiz-adv-x="1130" d="M117 369v665h229v-635q0 -102 40 -162.5t122 -60.5q123 0 194.5 101.5t71.5 279.5v477h230v-1034h-197l-21 133q-109 -160 -327 -160q-156 0 -249 107t-93 289zM455 1192l129 303h225l-168 -303h-186z" />
<glyph unicode="&#xfb;" horiz-adv-x="1130" d="M117 369v665h229v-635q0 -102 40 -162.5t122 -60.5q123 0 194.5 101.5t71.5 279.5v477h230v-1034h-197l-21 133q-109 -160 -327 -160q-156 0 -249 107t-93 289zM252 1192l201 303h223l201 -303h-220l-94 172l-92 -172h-219z" />
<glyph unicode="&#xfc;" horiz-adv-x="1130" d="M117 369v665h229v-635q0 -102 40 -162.5t122 -60.5q123 0 194.5 101.5t71.5 279.5v477h230v-1034h-197l-21 133q-109 -160 -327 -160q-156 0 -249 107t-93 289zM248 1339.5q0 51.5 37 90t88 38.5t89 -37.5t38 -91t-37 -90.5t-90 -37q-51 0 -88 38t-37 89.5zM629 1339.5 q0 51.5 36.5 90t88.5 38.5q53 0 91 -37.5t38 -91.5q0 -51 -38 -89t-91 -38q-51 0 -88 38t-37 89.5z" />
<glyph unicode="&#xfd;" horiz-adv-x="1052" d="M33 -414l65 181q82 -39 150 -39q49 0 78.5 31.5t52.5 99.5l47 141h-23l-366 1034h242l174 -524q35 -109 77 -283q59 227 78 283l168 524h240l-432 -1265q-41 -117 -125 -180.5t-187 -63.5q-131 0 -239 61zM410 1192l129 303h225l-168 -303h-186z" />
<glyph unicode="&#xfe;" d="M127 -449v1940h229v-565q119 135 306 135q213 0 348 -160t135 -383q0 -221 -134 -383t-349 -162q-188 0 -306 136v-558h-229zM342 518q0 -156 86 -249t207 -93q123 0 197.5 99.5t74.5 242.5q0 145 -73.5 242.5t-198.5 97.5t-209 -94t-84 -246z" />
<glyph unicode="&#xff;" horiz-adv-x="1052" d="M33 -414l65 181q82 -39 150 -39q49 0 78.5 31.5t52.5 99.5l47 141h-23l-366 1034h242l174 -524q35 -109 77 -283q59 227 78 283l168 524h240l-432 -1265q-41 -117 -125 -180.5t-187 -63.5q-131 0 -239 61zM209 1339.5q0 51.5 37 90t88 38.5t89 -37.5t38 -91t-38 -90.5 t-89 -37t-88 38t-37 89.5zM590 1339.5q0 51.5 37 90t88 38.5t90 -37.5t39 -91.5q0 -51 -38 -89t-91 -38q-51 0 -88 38t-37 89.5z" />
<glyph unicode="&#x152;" horiz-adv-x="2209" d="M96 706.5q0 307.5 204 523.5t519 216q291 0 484 -199v172h798v-209h-561v-387h516l-24 -205h-492v-409h576v-209h-813v168q-190 -195 -484 -195q-315 0 -519 213t-204 520.5zM346 706.5q0 -219.5 130 -371t343 -151.5q217 0 348 151.5t131 371t-132 374t-347 154.5 q-211 0 -342 -154.5t-131 -374z" />
<glyph unicode="&#x153;" horiz-adv-x="1951" d="M82 516q0 225 150.5 385t381.5 160q258 0 408 -201q135 201 383 201q231 0 353 -160t122 -422h-733q10 -135 89 -219t228 -84q143 0 301 66l47 -195q-168 -74 -354 -74q-283 0 -432 203q-145 -203 -412 -203q-233 0 -382.5 159t-149.5 384zM319 516q0 -147 85 -243.5 t210 -96.5q129 0 214 95.5t85 245t-86 245.5t-213 96q-123 0 -209 -96t-86 -246zM1155 637h494q-41 221 -244 221q-90 0 -157.5 -53t-92.5 -168z" />
<glyph unicode="&#x178;" horiz-adv-x="1269" d="M49 1419h266l316 -604l321 604h269l-469 -837v-582h-242v580zM317 1696q0 51 37 90t88.5 39t89 -38t37.5 -91.5t-36.5 -90t-90.5 -36.5q-51 0 -88 38t-37 89zM698 1696q0 51 37 90t88 39q53 0 91 -38t38 -91q0 -51 -38 -89t-91 -38q-51 0 -88 38t-37 89z" />
<glyph unicode="&#x2c6;" horiz-adv-x="827" d="M100 1192l201 303h223l201 -303h-219l-94 172l-93 -172h-219z" />
<glyph unicode="&#x2dc;" horiz-adv-x="780" d="M80 1372q51 63 91 88t103 25q51 0 127 -42t101 -42q49 0 102 63l96 -133q-51 -63 -91 -88.5t-103 -25.5q-51 0 -127 41.5t-100 41.5q-52 0 -103 -63z" />
<glyph unicode="&#x2000;" horiz-adv-x="964" />
<glyph unicode="&#x2001;" horiz-adv-x="1929" />
<glyph unicode="&#x2002;" horiz-adv-x="964" />
<glyph unicode="&#x2003;" horiz-adv-x="1929" />
<glyph unicode="&#x2004;" horiz-adv-x="643" />
<glyph unicode="&#x2005;" horiz-adv-x="482" />
<glyph unicode="&#x2006;" horiz-adv-x="321" />
<glyph unicode="&#x2007;" horiz-adv-x="321" />
<glyph unicode="&#x2008;" horiz-adv-x="241" />
<glyph unicode="&#x2009;" horiz-adv-x="385" />
<glyph unicode="&#x200a;" horiz-adv-x="107" />
<glyph unicode="&#x2010;" horiz-adv-x="937" d="M139 430v197h660v-197h-660z" />
<glyph unicode="&#x2011;" horiz-adv-x="937" d="M139 430v197h660v-197h-660z" />
<glyph unicode="&#x2012;" horiz-adv-x="937" d="M139 430v197h660v-197h-660z" />
<glyph unicode="&#x2013;" horiz-adv-x="1024" d="M0 471v203h1024v-203h-1024z" />
<glyph unicode="&#x2014;" horiz-adv-x="2048" d="M0 471v203h2048v-203h-2048z" />
<glyph unicode="&#x2018;" horiz-adv-x="532" d="M150 983l153 514l141 -22l-88 -529z" />
<glyph unicode="&#x2019;" horiz-adv-x="532" d="M152 969l88 528l206 -37l-155 -514z" />
<glyph unicode="&#x201a;" horiz-adv-x="512" d="M100 -252l88 528l207 -36l-153 -514z" />
<glyph unicode="&#x201c;" horiz-adv-x="886" d="M135 983l156 514l139 -22l-88 -529zM477 983l156 514l139 -22l-88 -529z" />
<glyph unicode="&#x201d;" horiz-adv-x="886" d="M145 969l88 528l207 -37l-155 -514zM485 969l88 528l207 -37l-153 -514z" />
<glyph unicode="&#x201e;" horiz-adv-x="845" d="M100 -252l88 528l207 -36l-153 -514zM442 -252l88 528l207 -36l-155 -514z" />
<glyph unicode="&#x2022;" horiz-adv-x="960" d="M150 590q0 137 95 233.5t232 96.5q139 0 236.5 -96.5t97.5 -233.5t-98.5 -234.5t-235.5 -97.5t-232 97.5t-95 234.5z" />
<glyph unicode="&#x2026;" horiz-adv-x="1744" d="M129 125q0 63 43 107t107 44q61 0 106 -44t45 -107q0 -61 -45 -104.5t-106 -43.5q-63 0 -106.5 43.5t-43.5 104.5zM743 125q0 63 43 107t106.5 44t106.5 -44t43 -107q0 -61 -43 -104.5t-106.5 -43.5t-106.5 43.5t-43 104.5zM1331 125q0 63 44 107t106 44q63 0 107 -44 t44 -107q0 -61 -44 -104.5t-107 -43.5q-61 0 -105.5 43.5t-44.5 104.5z" />
<glyph unicode="&#x202f;" horiz-adv-x="385" />
<glyph unicode="&#x2039;" horiz-adv-x="704" d="M115 526l288 416l187 -125l-199 -291l199 -286l-187 -129z" />
<glyph unicode="&#x203a;" horiz-adv-x="704" d="M113 238l202 288l-202 289l190 127l287 -416l-287 -415z" />
<glyph unicode="&#x205f;" horiz-adv-x="482" />
<glyph unicode="&#x20ac;" horiz-adv-x="1187" d="M113 451v151h77q-6 53 -6 108.5t6 108.5h-77v152h104q57 221 209 348t369 127q186 0 327 -55l-63 -195q-104 39 -250 39q-272 0 -352 -264h516l-39 -152h-506q-6 -51 -6 -108q0 -55 6 -109h442l-39 -151h-374q80 -266 352 -267q141 0 250 41l63 -196q-141 -55 -327 -56 q-217 0 -369 128t-209 350h-104z" />
<glyph unicode="&#x2122;" horiz-adv-x="1603" d="M82 1272v147h541v-147h-193v-533h-156v533h-192zM670 741l102 678h164l149 -512l152 512h164l102 -678h-160l-49 408l-127 -408h-161l-129 408l-48 -408h-159z" />
<glyph unicode="&#x25fc;" horiz-adv-x="1034" d="M0 0v1034h1034v-1034h-1034z" />
</font>
</defs>
</svg>
