<?xml version="1.0" standalone="no"?>
<!DOCTYPE svg PUBLIC "-//W3C//DTD SVG 1.1//EN" "http://www.w3.org/Graphics/SVG/1.1/DTD/svg11.dtd" >
<svg xmlns="http://www.w3.org/2000/svg">
<metadata></metadata>
<defs>
<font id="faricynew-lightituploadedfile" horiz-adv-x="1187" >
<font-face units-per-em="2048" ascent="1561" descent="-487" />
<missing-glyph horiz-adv-x="512" />
<glyph unicode="&#xfb01;" horiz-adv-x="1046" d="M57 -449l238 1360h-164l19 103h163l31 174q57 330 393 330q125 0 264 -43l-34 -107q-125 35 -236 35q-129 0 -190.5 -53.5t-81.5 -173.5l-29 -162h557l-174 -1014h-117l156 911h-440l-238 -1360h-117z" />
<glyph unicode="&#xfb02;" horiz-adv-x="1064" d="M57 -449l238 1360h-164l19 103h163l31 174q57 330 393 330q123 0 219 -27h115l-233 -1317q-18 -94 69 -94l-37 -105q-82 0 -125 42t-28 126l219 1235q-98 25 -205 25q-129 0 -190.5 -53.5t-81.5 -173.5l-29 -162h270l-18 -103h-270l-238 -1360h-117z" />
<glyph unicode="&#xfb03;" horiz-adv-x="1673" d="M57 -449l238 1360h-164l19 103h163l35 194q27 152 124 231t241 79q78 0 145 -23l-41 -111q-55 18 -115 19q-109 0 -166 -51.5t-75 -155.5l-33 -182h512l31 174q57 330 393 330q125 0 264 -43l-35 -107q-125 35 -235 35q-129 0 -190.5 -53.5t-82.5 -173.5l-28 -162h557 l-174 -1014h-117l156 911h-441l-237 -1360h-117l238 1360h-510l-238 -1360h-117z" />
<glyph unicode="&#xfb04;" horiz-adv-x="1691" d="M57 -449l238 1360h-164l19 103h163l35 194q27 152 124 231t241 79q78 0 145 -23l-41 -111q-55 18 -115 19q-109 0 -166 -51.5t-75 -155.5l-33 -182h512l31 174q57 330 393 330q123 0 219 -27h115l-234 -1317q-18 -94 70 -94l-37 -105q-82 0 -125 42t-29 126l220 1235 q-98 25 -205 25q-129 0 -190.5 -53.5t-82.5 -173.5l-28 -162h270l-18 -103h-271l-237 -1360h-117l238 1360h-510l-238 -1360h-117z" />
<glyph horiz-adv-x="0" />
<glyph unicode="&#xd;" horiz-adv-x="681" />
<glyph unicode=" "  horiz-adv-x="512" />
<glyph unicode="&#x09;" horiz-adv-x="512" />
<glyph unicode="&#xa0;" horiz-adv-x="512" />
<glyph unicode="!" horiz-adv-x="522" d="M121 68q0 39 26.5 63.5t67.5 24.5q39 0 65.5 -25t26.5 -63q0 -37 -26.5 -65t-65.5 -28t-66.5 28t-27.5 65zM209 360l186 1059h117l-186 -1059h-117z" />
<glyph unicode="&#x22;" horiz-adv-x="692" d="M279 999l65 492h117l-106 -492h-76zM500 999l65 492h117l-106 -492h-76z" />
<glyph unicode="#" horiz-adv-x="1200" d="M100 352l21 115h170l123 467h-164l20 115h174l91 354h112l-92 -354h346l92 354h113l-92 -354h162l-21 -115h-172l-121 -467h144l-21 -115h-154l-90 -352h-112l92 352h-348l-92 -352h-113l92 352h-160zM403 467h347l120 467h-344z" />
<glyph unicode="$" horiz-adv-x="1003" d="M29 76l41 110q178 -94 323 -94q154 0 261.5 87t107.5 218q0 80 -57.5 136.5t-138 93.5t-161.5 76.5t-138.5 109.5t-57.5 168q0 176 111.5 290.5t290.5 131.5l41 229h114l-41 -229q117 -10 252 -72l-43 -112q-145 68 -278 67q-139 0 -229.5 -79t-90.5 -208 q0 -76 57.5 -132t138.5 -94t161.5 -80t138 -113.5t57.5 -169.5q0 -174 -124 -293t-306 -140l-39 -231h-117l39 229q-156 12 -313 101z" />
<glyph unicode="%" horiz-adv-x="1824" d="M233 989q0 174 121 305t287 131q129 0 207 -82.5t78 -209.5q0 -166 -121 -302.5t-293 -136.5q-127 0 -203 84t-76 211zM340 989q0 -90 49 -142t141 -52q127 0 207 99t80 236q0 92 -48 144.5t-144 52.5q-125 0 -205 -97t-80 -241zM508 0l795 1401h120l-794 -1401h-121z M1012 268q0 174 120.5 305.5t286.5 131.5q129 0 207 -83t78 -210q0 -166 -121 -302.5t-293 -136.5q-127 0 -202.5 84t-75.5 211zM1118 268q0 -90 49.5 -142t141.5 -52q127 0 206.5 99t79.5 237q0 92 -48 144t-144 52q-125 0 -205 -97.5t-80 -240.5z" />
<glyph unicode="&#x26;" horiz-adv-x="1263" d="M123 276q0 166 95 279t263 213q-47 137 -47 262q0 186 109.5 301t277.5 115q119 0 179.5 -67.5t60.5 -174.5q0 -80 -35 -148.5t-109.5 -130t-133 -97t-162.5 -93.5q82 -231 247 -454q121 121 183 247l98 -41q-100 -168 -219 -286q84 -98 145 -152l-92 -74 q-63 55 -137 150q-186 -152 -377 -152q-170 0 -258 87t-88 216zM250 301q0 -106 65.5 -159.5t173.5 -53.5q141 0 295 119q-172 231 -268 463q-127 -80 -196.5 -168t-69.5 -201zM559 1040q0 -100 31 -211q90 51 134 79t102.5 76t84 98.5t25.5 109.5q0 145 -133 145 q-117 0 -180.5 -80.5t-63.5 -216.5z" />
<glyph unicode="'" horiz-adv-x="471" d="M295 999l65 492h117l-106 -492h-76z" />
<glyph unicode="(" horiz-adv-x="765" d="M231 330q0 678 531 1278h115q-526 -639 -527 -1246q0 -369 176 -737h-114q-181 338 -181 705z" />
<glyph unicode=")" horiz-adv-x="768" d="M-51 -375q528 643 528 1237q0 371 -178 746h115q182 -346 182 -711q0 -672 -533 -1272h-114z" />
<glyph unicode="*" horiz-adv-x="894" d="M262 1200l60 117l237 -109l29 283h117l-70 -283l278 109l15 -117l-285 -67l143 -215l-106 -72l-107 239l-186 -239l-82 72l215 215z" />
<glyph unicode="+" horiz-adv-x="1150" d="M156 467v119h381v381h118v-381h381v-119h-381v-381h-118v381h-381z" />
<glyph unicode="," horiz-adv-x="440" d="M-16 -322l168 486l120 -23l-211 -477z" />
<glyph unicode="-" horiz-adv-x="913" d="M164 471l20 115h566l-21 -115h-565z" />
<glyph unicode="." horiz-adv-x="499" d="M90 70q0 39 27.5 66.5t66.5 27.5q37 0 66 -27.5t29 -66.5q0 -37 -29 -66t-66 -29q-39 0 -66.5 29t-27.5 66z" />
<glyph unicode="/" horiz-adv-x="851" d="M-2 -199l793 1694h116l-790 -1694h-119z" />
<glyph unicode="0" horiz-adv-x="1107" d="M115 436q0 109 19.5 235t65.5 265t112.5 251.5t174 185.5t236.5 73q166 0 259 -118t93 -351q0 -109 -19.5 -236t-66.5 -264t-114.5 -248.5t-175 -183.5t-236.5 -72q-166 0 -257 117t-91 346zM236 442q-1 -354 247 -354q127 0 224.5 95.5t147.5 240.5t74.5 284.5 t24.5 262.5q0 360 -252 360q-127 0 -224 -96t-146 -243.5t-72.5 -287t-23.5 -262.5z" />
<glyph unicode="1" horiz-adv-x="864" d="M64 0l20 115h281l207 1179l-303 -129l-27 105l361 149h108l-229 -1304h245l-20 -115h-643z" />
<glyph unicode="2" horiz-adv-x="1034" d="M16 0l19 109q401 313 536 444q283 272 297 500v28q0 106 -65.5 178t-181.5 72q-145 0 -302 -74l-26 103q166 86 346 86q156 0 253 -89t97 -247q0 -76 -26.5 -158t-64.5 -151.5t-106.5 -151.5t-124 -141t-147.5 -141t-148.5 -128t-152.5 -124h600l-20 -115h-783z" />
<glyph unicode="3" horiz-adv-x="925" d="M-23 43l31 104q141 -59 275 -59q178 0 286.5 99.5t108.5 248.5q0 121 -91 188.5t-225 67.5h-75l18 115h82q131 0 246 85t115 220q0 98 -67 158.5t-173 60.5q-141 0 -293 -69l-29 102q170 82 340 82q162 0 252 -81t90 -226q0 -121 -79.5 -227.5t-206.5 -161.5 q217 -72 217 -295q0 -193 -141.5 -337.5t-368.5 -144.5q-156 0 -312 70z" />
<glyph unicode="4" horiz-adv-x="1095" d="M74 346l8 107l721 966h187l-168 -958h178l-21 -115h-178l-61 -346h-117l61 346h-610zM209 461h496l151 868z" />
<glyph unicode="5" horiz-adv-x="1050" d="M4 72l57 106q180 -90 316 -90q193 0 316.5 123t123.5 311q0 115 -71.5 190.5t-227.5 75.5q-135 0 -316 -69l168 700h666l-20 -114h-551l-109 -435q109 33 193 33q199 0 294 -104.5t95 -259.5q0 -242 -165 -404t-417 -162q-172 1 -352 99z" />
<glyph unicode="6" horiz-adv-x="1120" d="M86 389q0 49 22.5 134t57.5 145l455 751h129l-318 -508q98 47 209 47q170 0 276.5 -118.5t106.5 -294.5q0 -227 -168 -399.5t-389 -172.5q-170 0 -275.5 119t-105.5 297zM207 406q0 -135 76.5 -226.5t203.5 -91.5q166 0 291 132t125 308q0 135 -77.5 225.5t-204.5 90.5 q-168 0 -291 -131t-123 -307z" />
<glyph unicode="7" horiz-adv-x="983" d="M174 0l768 1305h-743l20 114h877l-17 -98l-772 -1321h-133z" />
<glyph unicode="8" horiz-adv-x="1095" d="M78 303q0 162 100.5 258t280.5 174q-215 117 -215 303q0 129 75.5 225.5t181 139.5t216.5 43q141 0 242.5 -79t101.5 -220q0 -147 -90 -238.5t-250 -167.5q121 -63 187.5 -136t66.5 -189q0 -197 -156.5 -320t-359.5 -123q-162 0 -271.5 89t-109.5 241zM199 319 q0 -104 83 -166.5t197 -62.5q143 0 259 84t116 219q0 53 -20.5 96t-67.5 79t-84 56.5t-107 53.5q-90 -39 -144 -66.5t-114.5 -71.5t-89 -98.5t-28.5 -122.5zM365 1059q0 -90 60 -147.5t179 -114.5q164 70 250 141.5t86 187.5q0 86 -64.5 145.5t-177.5 59.5q-141 0 -237 -82 t-96 -190z" />
<glyph unicode="9" horiz-adv-x="1120" d="M172 874q0 227 167 399.5t388 172.5q170 0 275.5 -119t105.5 -297q0 -145 -66 -254l-462 -776h-129l311 508q-102 -49 -209 -49q-170 0 -275.5 118.5t-105.5 296.5zM293 889q0 -135 76.5 -225.5t203.5 -90.5q168 0 291 132.5t123 308.5q0 135 -75.5 226t-202.5 91 q-168 0 -292 -133t-124 -309z" />
<glyph unicode=":" horiz-adv-x="518" d="M102 70q0 39 28 66.5t67 27.5q37 0 65.5 -27.5t28.5 -66.5q0 -37 -29 -66t-65 -29q-39 0 -67 29t-28 66zM229 791q0 37 28 65.5t67 28.5q37 0 65.5 -29t28.5 -65q0 -39 -28.5 -67t-65.5 -28q-39 0 -67 28t-28 67z" />
<glyph unicode=";" horiz-adv-x="516" d="M-33 -322l168 486l121 -23l-211 -477zM215 791q0 37 27.5 65.5t66.5 28.5q37 0 65.5 -29t28.5 -65q0 -39 -28.5 -67t-65.5 -28q-39 0 -66.5 28t-27.5 67z" />
<glyph unicode="&#x3c;" horiz-adv-x="1116" d="M176 528l602 508l80 -90l-493 -418l493 -417l-80 -91z" />
<glyph unicode="=" horiz-adv-x="1232" d="M176 246v119h881v-119h-881zM176 688v119h881v-119h-881z" />
<glyph unicode="&#x3e;" horiz-adv-x="1116" d="M279 111l493 417l-493 418l79 90l603 -508l-603 -508z" />
<glyph unicode="?" horiz-adv-x="1028" d="M301 66q0 39 26.5 64.5t67.5 25.5q39 0 66.5 -26t27.5 -64q0 -37 -27.5 -64t-66.5 -27q-41 0 -67.5 27t-26.5 64zM309 1343q188 102 338 103q154 0 234 -83t80 -196q0 -88 -40 -168.5t-100.5 -146.5t-123 -131.5t-116 -152.5t-69.5 -183h-119q18 111 71.5 207t115 161.5 t121 127t98.5 129t39 137.5q0 80 -52.5 130t-156.5 50q-125 0 -283 -88z" />
<glyph unicode="@" horiz-adv-x="1968" d="M135 295q0 319 145.5 568t383 379t520.5 130q326 0 510 -186.5t184 -507.5q0 -301 -124 -489.5t-322 -188.5q-92 0 -136.5 54.5t-44.5 144.5q-145 -199 -366 -199q-162 0 -257.5 107.5t-95.5 275.5q0 231 157 407.5t366 176.5q201 0 286 -170l25 143l104 -18l-116 -656 q-4 -43 -2 -82t29.5 -67.5t76.5 -28.5q119 0 216.5 140.5t97.5 430.5q0 287 -161 451t-446 164q-248 0 -456.5 -113.5t-338.5 -337t-130 -510.5q0 -283 170 -448.5t458 -165.5q174 0 367 78l12 -96q-203 -80 -395 -80q-328 0 -522.5 186t-194.5 508zM643 395 q0 -133 71.5 -212t186.5 -79q168 0 282.5 145.5t114.5 321.5q0 133 -74.5 212t-187.5 79q-147 0 -270 -132t-123 -335z" />
<glyph unicode="A" horiz-adv-x="1222" d="M-23 0l721 1419h154l219 -1419h-119l-71 457h-547l-232 -457h-125zM391 571h471l-80 508q-10 63 -28 224q-68 -152 -105 -224z" />
<glyph unicode="B" horiz-adv-x="1136" d="M88 0l250 1419h364q188 0 280.5 -86t92.5 -223q0 -121 -61.5 -215t-177.5 -145q100 -39 153 -116t53 -177q0 -186 -150.5 -321.5t-383.5 -135.5h-420zM229 119h271q205 0 311.5 90t106.5 237q0 111 -80 176.5t-238 65.5h-270zM348 791h240q174 0 267 83.5t93 212.5 q0 98 -71.5 155.5t-208.5 57.5h-230z" />
<glyph unicode="C" horiz-adv-x="1298" d="M135 575q0 229 99.5 426t294 321t442.5 124q211 0 377 -72l-50 -110q-166 61 -348 61q-324 0 -507 -217t-183 -520q0 -219 119 -356.5t354 -137.5q164 0 369 70l12 -119q-199 -72 -401 -72q-279 0 -428.5 169t-149.5 433z" />
<glyph unicode="D" horiz-adv-x="1382" d="M88 0l250 1419h457q264 0 395 -157.5t131 -411.5q0 -227 -84 -416.5t-264 -311.5t-428 -122h-457zM229 119h314q143 0 257.5 43t187.5 113.5t121 166t67.5 192.5t19.5 202q0 205 -105.5 334.5t-338.5 129.5h-316z" />
<glyph unicode="E" horiz-adv-x="1007" d="M88 0l250 1419h711l-21 -119h-592l-90 -522h545l-45 -114h-520l-97 -545h602l-20 -119h-723z" />
<glyph unicode="F" horiz-adv-x="944" d="M88 0l250 1419h684l-21 -119h-563l-92 -524h518l-45 -114h-493l-117 -662h-121z" />
<glyph unicode="G" horiz-adv-x="1468" d="M135 590q0 223 101.5 416.5t305 316.5t468.5 123q221 0 401 -72l-51 -112q-178 63 -371 63q-342 0 -535.5 -214t-193.5 -507q0 -221 129 -366.5t350 -145.5q193 0 412 94l82 461l129 49l-102 -579q-272 -143 -541 -144q-264 0 -424 176.5t-160 440.5z" />
<glyph unicode="H" horiz-adv-x="1306" d="M88 0l250 1419h121l-113 -641h717l113 641h120l-249 -1419h-121l116 659h-716l-117 -659h-121z" />
<glyph unicode="I" horiz-adv-x="468" d="M88 0l250 1419h121l-250 -1419h-121z" />
<glyph unicode="J" horiz-adv-x="933" d="M-14 47l43 113q129 -68 256 -68q295 0 356 365l170 962h121l-174 -989q-39 -223 -165 -340t-310 -117q-154 0 -297 74z" />
<glyph unicode="K" horiz-adv-x="1181" d="M88 0l250 1419h121l-158 -889l791 889h139l-561 -631l362 -788h-133l-317 690l-314 -352l-59 -338h-121z" />
<glyph unicode="L" horiz-adv-x="970" d="M88 0l250 1419l125 25l-234 -1325h592l-20 -119h-713z" />
<glyph unicode="M" horiz-adv-x="1673" d="M-2 0l444 1419h156l147 -1063q14 -109 25 -247q59 152 107 247l507 1063h156l-37 -1419h-121l25 1026q4 117 12 221l-102 -221l-488 -1014h-155l-144 1014q-20 145 -28 227q-29 -109 -64 -227l-319 -1026h-121z" />
<glyph unicode="N" horiz-adv-x="1366" d="M88 0l244 1386l127 33l563 -1206l213 1206h121l-250 -1419h-121l-565 1202l-211 -1202h-121z" />
<glyph unicode="O" horiz-adv-x="1595" d="M135 586q0 342 246 601t584 259q260 0 414.5 -178t154.5 -443q0 -344 -243.5 -598t-583.5 -254q-260 0 -416 174.5t-156 438.5zM260 598q0 -219 125 -362.5t342 -143.5q285 0 483.5 214t198.5 505q0 221 -125 368.5t-340 147.5q-285 0 -484.5 -219t-199.5 -510z" />
<glyph unicode="P" horiz-adv-x="1075" d="M88 0l250 1419h373q186 0 282.5 -91t96.5 -249q0 -219 -148.5 -359t-390.5 -140h-240l-102 -580h-121zM330 694h221q229 0 322.5 106.5t93.5 266.5q0 233 -299 233h-230z" />
<glyph unicode="Q" horiz-adv-x="1595" d="M135 586q0 342 246 601t584 259q260 0 414.5 -178t154.5 -443q0 -299 -188.5 -536.5t-471.5 -296.5l23 -346l-125 -29l-24 358q-14 -2 -41 -2q-260 0 -416 174.5t-156 438.5zM260 598q0 -219 125 -362.5t342 -143.5q285 0 483.5 214t198.5 505q0 221 -125 368.5 t-340 147.5q-285 0 -484.5 -219t-199.5 -510z" />
<glyph unicode="R" horiz-adv-x="1085" d="M88 0l250 1419h373q186 0 282.5 -91t96.5 -249q0 -182 -112 -314t-282 -171l199 -594h-131l-197 582h-256l-102 -582h-121zM330 694h221q223 0 319.5 105.5t96.5 265.5q0 235 -296 235h-3h-232z" />
<glyph unicode="S" horiz-adv-x="991" d="M6 76l43 110q178 -94 326 -94q154 0 260 84t106 215q0 84 -55 144.5t-133 100.5t-157 83t-134 117.5t-55 177.5q0 207 138 319.5t314 112.5q170 0 328 -76l-41 -110q-148 67 -287 67h-4q-147 0 -235 -83t-88 -208q0 -80 55 -139t134 -101t158 -87t134 -121t55 -178 q0 -193 -144 -315t-357 -122q-179 1 -361 103z" />
<glyph unicode="T" horiz-adv-x="1083" d="M217 1300l21 119h933l-20 -119h-408l-227 -1300h-121l228 1300h-406z" />
<glyph unicode="U" horiz-adv-x="1314" d="M190 512l160 907h121l-156 -887q-12 -64 -12 -119q0 -119 55 -201q80 -120 271 -120q188 0 310 119t159 321l155 887h121l-160 -907q-41 -231 -208.5 -385t-397.5 -154q-231 0 -345 153q-84 113 -84 268q0 56 11 118z" />
<glyph unicode="V" horiz-adv-x="1200" d="M217 1419h121l168 -1079q20 -147 26 -221l107 221l547 1079h125l-719 -1419h-154z" />
<glyph unicode="W" horiz-adv-x="1724" d="M248 1419h121l28 -1026q2 -61 2 -227l117 229l383 740h152l125 -740q12 -78 32 -231q43 127 82 229l393 1026h121l-540 -1419h-140l-135 803q-27 147 -35 223q-72 -154 -108 -223l-418 -803h-139z" />
<glyph unicode="X" horiz-adv-x="1212" d="M-12 0l592 731l-314 688h135l269 -590l479 590h141l-557 -686l340 -733h-135l-295 633l-514 -633h-141z" />
<glyph unicode="Y" horiz-adv-x="1181" d="M227 1419h131l265 -717l528 717h131l-612 -833l-103 -586h-125l103 586z" />
<glyph unicode="Z" horiz-adv-x="1085" d="M31 0l16 98l918 1202h-689l23 119h844l-19 -98l-917 -1202h735l-20 -119h-891z" />
<glyph unicode="[" horiz-adv-x="569" d="M45 -375l350 1983h283l-21 -113h-165l-310 -1759h166l-20 -111h-283z" />
<glyph unicode="\" horiz-adv-x="851" d="M297 1495h117l194 -1694h-119z" />
<glyph unicode="]" horiz-adv-x="567" d="M-72 -375l19 111h168l309 1759h-168l20 113h285l-350 -1983h-283z" />
<glyph unicode="^" horiz-adv-x="1101" d="M258 780l412 639h118l187 -639h-117l-149 523l-334 -523h-117z" />
<glyph unicode="_" horiz-adv-x="1024" d="M-55 -172h1024v-111h-1024v111z" />
<glyph unicode="`" horiz-adv-x="460" d="M252 1471h141l53 -289h-106z" />
<glyph unicode="a" d="M96 414q0 252 171 439t403 187q223 0 317 -198l33 172l113 -21l-175 -993h-88l11 170q-160 -197 -400 -197q-176 0 -280.5 125t-104.5 316zM217 428q0 -152 80 -246t205 -94q170 0 304 141.5t134 356.5q0 154 -83 247t-208 93q-166 0 -299 -140.5t-133 -357.5z" />
<glyph unicode="b" horiz-adv-x="1198" d="M68 0l258 1473l125 45l-115 -652q160 174 385 174q172 0 278.5 -127t106.5 -315q0 -250 -169 -437.5t-405 -187.5q-231 0 -327 215l-49 -188h-88zM262 430q0 -156 83 -249t208 -93q170 0 301 142.5t131 355.5q0 154 -82 247t-203 93q-170 0 -304 -140.5t-134 -355.5z" />
<glyph unicode="c" horiz-adv-x="1030" d="M96 416q0 254 173 439t442 185q170 0 321 -69l-57 -107q-139 61 -285 62q-211 0 -342 -148.5t-131 -341.5q0 -150 84 -249t240 -99q123 0 305 68l20 -111q-162 -72 -344 -72q-203 0 -314.5 125t-111.5 318z" />
<glyph unicode="d" d="M96 414q0 252 171 439t403 187q223 0 317 -196l117 647h117l-263 -1491h-86l11 172q-162 -199 -402 -199q-176 0 -280.5 125t-104.5 316zM217 428q0 -152 80 -246t205 -94q170 0 304 141.5t134 356.5q0 154 -83 247t-208 93q-166 0 -299 -140.5t-133 -357.5z" />
<glyph unicode="e" horiz-adv-x="1097" d="M96 414q0 252 168 439t400 187q219 0 303 -150q56 -100 56 -236q0 -67 -13 -142h-787q-9 -53 -9 -100q0 -118 58 -204q82 -120 258 -120q140 1 306 62v-115q-156 -61 -326 -62q-195 0 -304.5 124t-109.5 317zM252 614h653v25q1 140 -63 210q-70 77 -199 77 q-125 0 -230.5 -80t-160.5 -232z" />
<glyph unicode="f" horiz-adv-x="630" d="M57 -449l240 1360h-166l19 103h163l35 194q27 152 124 231t241 79q78 0 145 -23l-41 -111q-55 18 -115 19q-109 0 -166 -51.5t-75 -155.5l-33 -182h272l-18 -103h-268l-240 -1360h-117z" />
<glyph unicode="g" horiz-adv-x="1185" d="M96 -408l41 105q117 -57 279 -57q174 0 284.5 101t141.5 273l26 158q-160 -174 -385 -174q-178 0 -282.5 123t-104.5 309q0 244 171 427t401 183q221 0 319 -194l31 168l112 -21l-176 -1003q-35 -205 -186.5 -335t-359.5 -130h-5q-176 0 -307 67zM217 442 q0 -150 80 -239.5t207 -89.5q170 0 303 135t133 346q0 150 -84 241t-209 91q-166 0 -298 -135.5t-132 -348.5z" />
<glyph unicode="h" horiz-adv-x="1097" d="M68 0l258 1468l125 50l-121 -682q142 204 385 204h2q149 0 223 -104q52 -74 52 -183q0 -46 -9 -98l-115 -655h-116l110 625q9 50 9 92q0 77 -30 129q-46 80 -161 80q-150 0 -262.5 -123t-153.5 -346l-80 -457h-116z" />
<glyph unicode="i" horiz-adv-x="391" d="M47 0l178 1014h117l-178 -1014h-117zM258 1354q0 35 23.5 58.5t62.5 23.5q35 0 59.5 -23.5t24.5 -58.5t-24.5 -59.5t-59.5 -24.5q-37 0 -61.5 24.5t-24.5 59.5z" />
<glyph unicode="j" horiz-adv-x="409" d="M-334 -451l21 111q61 -20 112 -20q109 0 166.5 53t75.5 157l205 1164h116l-206 -1176q-55 -313 -342 -313h-5q-62 0 -143 24zM274 1354q0 35 25 58.5t63 23.5q35 0 61 -23.5t26 -58.5t-26 -59.5t-61 -24.5q-39 0 -63.5 24.5t-24.5 59.5z" />
<glyph unicode="k" horiz-adv-x="954" d="M68 0l258 1468l125 50l-177 -1012l510 508h148l-406 -402l303 -612h-127l-262 526l-198 -196l-58 -330h-116z" />
<glyph unicode="l" horiz-adv-x="444" d="M106 143l234 1325l127 50l-238 -1344q-3 -16 -3 -29q0 -65 73 -65l-39 -105q-82 0 -125 42q-32 32 -32 87q0 18 3 39z" />
<glyph unicode="m" horiz-adv-x="1675" d="M68 0l174 993l100 21l-12 -164q135 190 348 190q109 0 174.5 -56t81.5 -159q139 215 373 215q150 0 217 -101q46 -70 47 -175q0 -47 -10 -102l-117 -662h-117l111 631q10 56 10 101q0 194 -178 194q-123 0 -227.5 -104.5t-139.5 -305.5l-90 -516h-117l111 631 q10 56 10 101q0 194 -178 194q-123 0 -227.5 -110.5t-141.5 -319.5l-86 -496h-116z" />
<glyph unicode="n" horiz-adv-x="1097" d="M68 0l176 993l98 21l-14 -180q142 206 387 206h2q149 0 223 -104q52 -74 52 -183q0 -46 -9 -98l-115 -655h-116l108 625q9 50 9 92q0 77 -30 129q-46 80 -159 80q-150 0 -262.5 -123t-153.5 -346l-80 -457h-116z" />
<glyph unicode="o" horiz-adv-x="1202" d="M96 420q0 248 179.5 434t422.5 186q186 0 299 -128t113 -320q0 -248 -178 -433.5t-422 -185.5q-188 0 -301 128t-113 319zM217 434q0 -150 84 -248t229 -98q193 0 326 146.5t133 345.5q0 150 -83 248t-228 98q-190 0 -325.5 -146.5t-135.5 -345.5z" />
<glyph unicode="p" horiz-adv-x="1196" d="M-14 -449l254 1442l90 21l-11 -166q161 192 398 192h2q176 0 280.5 -124.5t104.5 -315.5q0 -252 -171 -439.5t-403 -187.5q-223 0 -319 195l-109 -617h-116zM258 428q0 -154 83 -247t210 -93q166 0 299 140.5t133 357.5q0 152 -80 246t-205 94q-170 0 -305 -141.5 t-135 -356.5z" />
<glyph unicode="q" d="M96 416q0 252 169 438t405 186q117 0 199.5 -58t125.5 -161l54 193l84 -21l-246 -1392l-125 -50l106 601q-158 -178 -387 -179q-174 0 -279.5 127t-105.5 316zM217 428q0 -156 81 -248t204 -92q168 0 303 140.5t135 355.5q0 156 -83 249t-208 93q-170 0 -301 -142.5 t-131 -355.5z" />
<glyph unicode="r" horiz-adv-x="669" d="M68 0l176 993l98 21l-12 -185q156 211 403 211l-22 -114q-156 0 -281 -122t-156 -290l-90 -514h-116z" />
<glyph unicode="s" horiz-adv-x="749" d="M2 53l51 107q127 -72 238 -72q96 0 166.5 58.5t70.5 136.5q0 51 -38.5 90t-93 67.5t-110 60t-94 88t-38.5 134.5q0 150 107.5 233.5t244.5 83.5q45 0 84 -9t62.5 -18t72.5 -34l-45 -102q-109 49 -195 49q-92 0 -151.5 -55.5t-59.5 -131.5q0 -51 39 -91t94.5 -68.5 t110.5 -61.5t94 -87t39 -128q0 -145 -110.5 -237.5t-270.5 -92.5q-121 0 -268 80z" />
<glyph unicode="t" horiz-adv-x="659" d="M115 911l18 103h143l46 258l127 53l-56 -311h246l-18 -103h-246l-109 -614q-7 -36 -7 -66q0 -143 155 -143q59 0 118 18l7 -110q-84 -23 -154 -23q-131 0 -198 81q-48 58 -48 151q0 37 8 80l111 626h-143z" />
<glyph unicode="u" horiz-adv-x="1087" d="M154 358l114 656h117l-109 -625q-9 -49 -9 -91q1 -78 31 -130q46 -80 159 -80q150 0 262 123t151 346l80 457h117l-178 -1014h-96l12 178q-139 -205 -385 -205q-150 1 -224 105q-52 74 -51 182q0 46 9 98z" />
<glyph unicode="v" horiz-adv-x="954" d="M137 1014h121l121 -672q23 -135 33 -227q53 117 112 227l357 672h123l-537 -1014h-150z" />
<glyph unicode="w" horiz-adv-x="1443" d="M145 1014h119l72 -672q8 -86 16 -221l92 221l299 672h142l59 -672q8 -82 12 -231q72 178 97 231l309 672h119l-465 -1014h-148l-61 670q-10 106 -14 227l-97 -227l-295 -670h-145z" />
<glyph unicode="x" horiz-adv-x="921" d="M-31 0l439 539l-220 475h127l174 -385l314 385h135l-389 -471l252 -543h-119l-211 457l-373 -457h-129z" />
<glyph unicode="y" horiz-adv-x="919" d="M-137 -436l31 108q64 -32 138 -32h5q117 0 192 151l103 209h-41l-166 993l121 21l114 -748q23 -166 23 -174q29 68 80 174l366 748h123l-633 -1276q-104 -213 -278 -213q-100 0 -178 39z" />
<glyph unicode="z" horiz-adv-x="866" d="M8 0l15 86l647 813h-477l20 115h635l-17 -86l-649 -813h523l-19 -115h-678z" />
<glyph unicode="{" horiz-adv-x="749" d="M172 559l21 115q78 0 141 47t80 147l73 412q55 326 334 328l-20 -111q-96 0 -138 -49t-63 -168l-74 -412q-18 -98 -60 -154.5t-136 -97.5q80 -41 103.5 -98t4.5 -153l-73 -412q-20 -119 4 -168t123 -49l-21 -111q-274 2 -219 328l74 412q16 100 -30 147t-124 47z" />
<glyph unicode="|" horiz-adv-x="468" d="M246 -203v1778h112v-1778h-112z" />
<glyph unicode="}" horiz-adv-x="749" d="M-31 -375l21 111q96 0 137 49t61 168l74 412q16 96 60.5 153t140.5 98q-82 43 -105.5 99.5t-7.5 152.5l74 412q20 119 -4.5 168t-120.5 49l20 111q274 -2 220 -328l-74 -412q-16 -100 30 -147t123 -47l-20 -115q-78 0 -141.5 -48t-79.5 -146l-74 -412q-55 -326 -334 -328 z" />
<glyph unicode="~" horiz-adv-x="1144" d="M348 1178q23 125 92.5 195.5t169.5 70.5q45 0 88 -27.5t71 -60.5t62.5 -60.5t63.5 -27.5q57 0 84 39t41 112h117q-23 -125 -92.5 -195.5t-170.5 -70.5q-45 0 -88 27.5t-70.5 60.5t-62.5 60.5t-63 27.5q-100 1 -125 -151h-117z" />
<glyph unicode="&#xa1;" horiz-adv-x="516" d="M94 -229l187 1058h116l-186 -1058h-117zM299 1122q0 37 26.5 64.5t65.5 27.5t66.5 -27.5t27.5 -64.5q0 -39 -26.5 -63.5t-67.5 -24.5q-39 0 -65.5 24.5t-26.5 63.5z" />
<glyph unicode="&#xa2;" horiz-adv-x="1103" d="M111 416q0 236 151.5 416t390.5 204l43 232h117l-43 -230q143 -6 277 -67l-58 -107q-139 61 -284 62q-211 0 -342.5 -148.5t-131.5 -341.5q0 -150 84 -249t240 -99q123 0 305 68l21 -111q-147 -63 -297 -70l-39 -229h-117l39 231q-170 20 -263 141.5t-93 297.5z" />
<glyph unicode="&#xa3;" horiz-adv-x="1015" d="M65 0l19 115q100 84 167.5 201.5t71.5 244.5h-190l18 103h168q-10 143 -10 190q0 276 126 434t357 158q137 0 289 -74l-37 -108q-125 66 -252 65q-190 0 -274 -125t-84 -327q0 -10 12 -213h344l-18 -103h-326q-6 -137 -70.5 -254t-148.5 -188h647l-20 -119h-789z" />
<glyph unicode="&#xa4;" horiz-adv-x="1036" d="M135 227l113 113q-55 84 -55 184q0 102 57 185l-115 116l84 84l115 -116q86 59 186 59q102 0 182 -57l115 114l84 -84l-113 -112q59 -86 60 -189q0 -100 -60 -186l113 -111l-84 -84l-112 111q-82 -57 -185 -57q-106 0 -188 59l-113 -113zM301 524q0 -90 64.5 -154.5 t154.5 -64.5t154.5 64.5t64.5 154.5t-64.5 154.5t-154.5 64.5t-154.5 -64.5t-64.5 -154.5z" />
<glyph unicode="&#xa5;" horiz-adv-x="1085" d="M142 248l18 102h295l33 197h-293l16 102h264l-262 770h127l240 -702l489 702h131l-536 -770h262l-16 -102h-297l-33 -197h295l-19 -102h-295l-43 -248h-124l43 248h-295z" />
<glyph unicode="&#xa6;" horiz-adv-x="468" d="M246 -203v656h112v-656h-112zM246 920v655h112v-655h-112z" />
<glyph unicode="&#xa7;" horiz-adv-x="1024" d="M18 -84l39 113q127 -68 269 -68q115 0 191.5 60.5t76.5 166.5q0 63 -43 110.5t-104.5 78.5t-124 64.5t-105.5 91t-43 135.5q0 113 59.5 196.5t155.5 124.5q-20 45 -20 96q0 158 108.5 259.5t261.5 101.5q141 0 256 -57l-34 -111q-111 49 -226 49q-113 0 -175 -60.5 t-62 -160.5q0 -47 30.5 -86t77.5 -62.5t101.5 -53.5t101.5 -60.5t78 -83.5t31 -121q0 -104 -59.5 -191.5t-156.5 -134.5q20 -47 21 -100q0 -156 -119 -263.5t-282 -107.5t-304 74zM303 682q0 -66 51.5 -110t143.5 -89t133 -80q158 51 157 213q0 70 -47 115t-141 90t-129 72 q-80 -16 -124 -72.5t-44 -138.5z" />
<glyph unicode="&#xa8;" horiz-adv-x="798" d="M303 1323q0 41 28.5 69.5t69.5 28.5t69 -28.5t28 -69.5t-29 -69.5t-68 -28.5q-41 0 -69.5 28.5t-28.5 69.5zM645 1323q0 41 27.5 69.5t68.5 28.5t70 -28.5t29 -69.5t-29 -69.5t-70 -28.5q-39 0 -67.5 28.5t-28.5 69.5z" />
<glyph unicode="&#xa9;" horiz-adv-x="1550" d="M150 684q0 291 185 487.5t476 196.5t475 -196.5t184 -487.5t-184 -486.5t-475 -195.5t-476 195.5t-185 486.5zM262 684q0 -244 152.5 -408.5t396.5 -164.5t395.5 164.5t151.5 408.5q0 242 -151.5 409t-395.5 167t-396.5 -167t-152.5 -409zM455 684q0 160 95 265.5 t263 105.5q98 0 211 -43l-29 -86q-94 37 -182 37q-127 0 -192.5 -79t-65.5 -200q0 -119 65.5 -196.5t192.5 -77.5q92 0 188 43l27 -93q-106 -43 -215 -43q-168 0 -263 103.5t-95 263.5z" />
<glyph unicode="&#xaa;" horiz-adv-x="866" d="M193 967q0 178 120.5 316t282.5 138q152 0 217 -123l18 105l97 -14l-121 -701h-82l8 119q-113 -137 -270 -137q-125 0 -197.5 84t-72.5 213zM295 979q0 -96 52 -155.5t136 -59.5q129 0 212 109.5t83 236.5q0 98 -55 157.5t-139 59.5q-109 0 -199 -100.5t-90 -247.5z" />
<glyph unicode="&#xab;" horiz-adv-x="940" d="M174 530l326 379l82 -67l-269 -312l158 -311l-104 -67zM481 530l326 379l82 -67l-271 -312l160 -311l-104 -67z" />
<glyph unicode="&#xac;" horiz-adv-x="1310" d="M186 467v119h879v-443h-117v324h-762z" />
<glyph unicode="&#xad;" horiz-adv-x="0" />
<glyph unicode="&#xae;" horiz-adv-x="1550" d="M150 684q0 291 185 487.5t476 196.5t475 -196.5t184 -487.5t-184 -486.5t-475 -195.5t-476 195.5t-185 486.5zM262 684q0 -244 152.5 -408.5t396.5 -164.5t395.5 164.5t151.5 408.5q0 242 -151.5 409t-395.5 167t-396.5 -167t-152.5 -409zM594 348v703h199 q121 0 181 -59.5t60 -162.5q0 -72 -36.5 -128t-108.5 -78l137 -275h-104l-129 264h-101v-264h-98zM692 698h94q147 0 148 131q0 129 -148 129h-94v-260z" />
<glyph unicode="&#xaf;" horiz-adv-x="815" d="M279 1274l20 112h526l-20 -112h-526z" />
<glyph unicode="&#xb0;" horiz-adv-x="724" d="M217 1175.5q0 104.5 72.5 177t175.5 72.5q104 0 176 -72.5t72 -177t-72 -177t-176 -72.5q-102 0 -175 72.5t-73 177zM311 1175.5q0 -65.5 45 -110.5t108.5 -45t108.5 45t45 110.5t-45 110.5t-108.5 45t-108.5 -45t-45 -110.5z" />
<glyph unicode="&#xb1;" horiz-adv-x="1159" d="M129 14h881v-118h-881v118zM129 467v119h381v332h119v-332h381v-119h-381v-332h-119v332h-381z" />
<glyph unicode="&#xb4;" horiz-adv-x="690" d="M375 1182l155 288h142l-189 -288h-108z" />
<glyph unicode="&#xb5;" horiz-adv-x="1097" d="M-12 -449l258 1463h116l-106 -604q-25 -133 32.5 -227.5t195 -94.5t226.5 93t113 229l107 604h117l-111 -627q-33 -174 -163 -294t-310 -120q-174 0 -264 113l-95 -535h-116z" />
<glyph unicode="&#xb6;" horiz-adv-x="1114" d="M178 946q0 188 142.5 330.5t320.5 142.5h485l-274 -1566h-115l254 1450h-231l-254 -1450h-117l135 765q-156 0 -251 92.5t-95 235.5z" />
<glyph unicode="&#xb7;" horiz-adv-x="473" d="M137 524q0 41 27.5 69.5t68.5 28.5t70 -28.5t29 -69.5t-29 -69.5t-70 -28.5q-39 0 -67.5 28.5t-28.5 69.5z" />
<glyph unicode="&#xb8;" horiz-adv-x="614" d="M0 -438l29 86q59 -27 116 -27q59 0 88 30t29 62q0 66 -94 66q-31 0 -92 -10l78 231h98l-47 -143q158 0 157 -129q0 -90 -64.5 -145.5t-160.5 -55.5q-80 0 -137 35z" />
<glyph unicode="&#xba;" horiz-adv-x="903" d="M201 971q0 170 125 310t301 140q135 0 214 -86t79 -217q0 -178 -127 -313t-297 -135q-135 0 -215 85t-80 216zM305 985q0 -96 56.5 -158.5t150.5 -62.5q125 0 214 101.5t89 240.5q0 98 -55 159.5t-150 61.5q-123 0 -214 -103.5t-91 -238.5z" />
<glyph unicode="&#xbb;" horiz-adv-x="940" d="M150 217l268 311l-158 312l107 67l190 -379l-326 -378zM457 217l268 311l-158 312l107 67l190 -379l-325 -378z" />
<glyph unicode="&#xbf;" horiz-adv-x="1038" d="M119 47q0 88 40 169t100 146.5t122.5 131t116 152.5t69.5 183h119q-18 -111 -71.5 -207t-115 -161.5t-121 -127t-98 -129t-38.5 -136.5q0 -80 52 -130.5t157 -50.5q124 0 282 88l37 -104q-188 -102 -338 -102q-154 0 -233.5 82.5t-79.5 195.5zM590 1149q0 37 27.5 63.5 t66.5 26.5q41 0 67.5 -26.5t26.5 -63.5q0 -39 -26.5 -64.5t-67.5 -25.5q-39 0 -66.5 25.5t-27.5 64.5z" />
<glyph unicode="&#xc0;" horiz-adv-x="1222" d="M-23 0l721 1419h154l219 -1419h-119l-71 457h-547l-232 -457h-125zM391 571h471l-80 508q-10 63 -28 224q-68 -152 -105 -224zM651 1845h141l53 -289h-106z" />
<glyph unicode="&#xc1;" horiz-adv-x="1222" d="M-23 0l721 1419h154l219 -1419h-119l-71 457h-547l-232 -457h-125zM391 571h471l-80 508q-10 63 -28 224q-68 -152 -105 -224zM735 1557l155 288h142l-189 -288h-108z" />
<glyph unicode="&#xc2;" horiz-adv-x="1222" d="M-23 0l721 1419h154l219 -1419h-119l-71 457h-547l-232 -457h-125zM391 571h471l-80 508q-10 63 -28 224q-68 -152 -105 -224zM532 1557l244 288h131l141 -288h-135l-82 202l-149 -202h-150z" />
<glyph unicode="&#xc3;" horiz-adv-x="1222" d="M-23 0l721 1419h154l219 -1419h-119l-71 457h-547l-232 -457h-125zM391 571h471l-80 508q-10 63 -28 224q-68 -152 -105 -224zM539 1708q82 90 170 90q51 0 113.5 -41t88.5 -41q49 0 111 61l41 -82q-82 -90 -172 -90q-49 0 -111.5 41t-91.5 41q-47 0 -110 -61z" />
<glyph unicode="&#xc4;" horiz-adv-x="1222" d="M-23 0l721 1419h154l219 -1419h-119l-71 457h-547l-232 -457h-125zM391 571h471l-80 508q-10 63 -28 224q-68 -152 -105 -224zM526 1698q0 41 28.5 69.5t69.5 28.5t69 -28.5t28 -69.5t-29 -69.5t-68 -28.5q-41 0 -69.5 28.5t-28.5 69.5zM868 1698q0 41 27.5 69.5 t68.5 28.5t70 -28.5t29 -69.5t-29 -69.5t-70 -28.5q-39 0 -67.5 28.5t-28.5 69.5z" />
<glyph unicode="&#xc5;" horiz-adv-x="1222" d="M-23 0l721 1419h154l219 -1419h-119l-71 457h-547l-232 -457h-125zM391 571h471l-80 508q-10 63 -28 224q-68 -152 -105 -224zM612 1702q0 76 54.5 129t130 53t129 -53t53.5 -129t-53.5 -129t-129 -53t-130 53t-54.5 129zM707 1702q0 -39 26.5 -65.5t63.5 -26.5 t64.5 26.5t27.5 65.5q0 37 -27.5 64.5t-64.5 27.5t-63.5 -27.5t-26.5 -64.5z" />
<glyph unicode="&#xc6;" horiz-adv-x="1808" d="M-23 0l941 1419h727v-119h-562v-524h539l-18 -114h-523v-543h578v-119h-694v457h-545l-297 -457h-146zM496 571h469v719z" />
<glyph unicode="&#xc7;" horiz-adv-x="1298" d="M135 575q0 229 99.5 426t294 321t442.5 124q211 0 377 -72l-50 -110q-166 61 -348 61q-324 0 -507 -217t-183 -520q0 -219 119 -356.5t354 -137.5q164 0 369 70l12 -119q-199 -72 -401 -72h-15l-36 -116q158 0 157 -129q0 -90 -64.5 -145.5t-160.5 -55.5q-80 0 -137 35 l28 86q59 -27 117 -27q59 0 88 30t29 62q0 66 -94 66q-31 0 -93 -10l72 213q-227 33 -348 195.5t-121 397.5z" />
<glyph unicode="&#xc8;" horiz-adv-x="1007" d="M88 0l250 1419h711l-21 -119h-592l-90 -522h545l-45 -114h-520l-97 -545h602l-20 -119h-723zM592 1845h141l53 -289h-106z" />
<glyph unicode="&#xc9;" horiz-adv-x="1007" d="M88 0l250 1419h711l-21 -119h-592l-90 -522h545l-45 -114h-520l-97 -545h602l-20 -119h-723zM633 1557l155 288h142l-189 -288h-108z" />
<glyph unicode="&#xca;" horiz-adv-x="1007" d="M88 0l250 1419h711l-21 -119h-592l-90 -522h545l-45 -114h-520l-97 -545h602l-20 -119h-723zM459 1557l244 288h131l141 -288h-135l-82 202l-149 -202h-150z" />
<glyph unicode="&#xcb;" horiz-adv-x="1007" d="M88 0l250 1419h711l-21 -119h-592l-90 -522h545l-45 -114h-520l-97 -545h602l-20 -119h-723zM442 1698q0 41 28.5 69.5t69.5 28.5t69 -28.5t28 -69.5t-29 -69.5t-68 -28.5q-41 0 -69.5 28.5t-28.5 69.5zM784 1698q0 41 27.5 69.5t68.5 28.5t70 -28.5t29 -69.5t-29 -69.5 t-70 -28.5q-39 0 -67.5 28.5t-28.5 69.5z" />
<glyph unicode="&#xcc;" horiz-adv-x="468" d="M88 0l250 1419h121l-250 -1419h-121zM289 1845h141l53 -289h-106z" />
<glyph unicode="&#xcd;" horiz-adv-x="468" d="M88 0l250 1419h121l-250 -1419h-121zM355 1557l155 288h142l-189 -288h-108z" />
<glyph unicode="&#xce;" horiz-adv-x="468" d="M88 0l250 1419h121l-250 -1419h-121zM155 1557l244 288h131l141 -288h-135l-82 202l-149 -202h-150z" />
<glyph unicode="&#xcf;" horiz-adv-x="468" d="M88 0l250 1419h121l-250 -1419h-121zM162 1698q0 41 28.5 69.5t69.5 28.5t69 -28.5t28 -69.5t-29 -69.5t-68 -28.5q-41 0 -69.5 28.5t-28.5 69.5zM504 1698q0 41 27.5 69.5t68.5 28.5t70 -28.5t29 -69.5t-29 -69.5t-70 -28.5q-39 0 -67.5 28.5t-28.5 69.5z" />
<glyph unicode="&#xd0;" horiz-adv-x="1384" d="M68 672l18 102h139l115 645h457q264 0 395 -157.5t131 -411.5q0 -227 -84 -416.5t-264 -311.5t-428 -122h-457l117 672h-139zM231 119h314q143 0 258 43t187.5 113.5t120.5 166t67.5 192.5t19.5 202q0 205 -105.5 334.5t-338.5 129.5h-316l-92 -526h363l-19 -102h-362z " />
<glyph unicode="&#xd1;" horiz-adv-x="1366" d="M88 0l244 1386l127 33l563 -1206l213 1206h121l-250 -1419h-121l-565 1202l-211 -1202h-121zM607 1708q82 90 170 90q51 0 113.5 -41t88.5 -41q49 0 111 61l41 -82q-82 -90 -172 -90q-49 0 -111.5 41t-91.5 41q-47 0 -110 -61z" />
<glyph unicode="&#xd2;" horiz-adv-x="1595" d="M135 586q0 342 246 601t584 259q260 0 414.5 -178t154.5 -443q0 -344 -243.5 -598t-583.5 -254q-260 0 -416 174.5t-156 438.5zM260 598q0 -219 125 -362.5t342 -143.5q285 0 483.5 214t198.5 505q0 221 -125 368.5t-340 147.5q-285 0 -484.5 -219t-199.5 -510zM858 1845 h141l53 -289h-106z" />
<glyph unicode="&#xd3;" horiz-adv-x="1595" d="M135 586q0 342 246 601t584 259q260 0 414.5 -178t154.5 -443q0 -344 -243.5 -598t-583.5 -254q-260 0 -416 174.5t-156 438.5zM260 598q0 -219 125 -362.5t342 -143.5q285 0 483.5 214t198.5 505q0 221 -125 368.5t-340 147.5q-285 0 -484.5 -219t-199.5 -510zM903 1557 l155 288h142l-189 -288h-108z" />
<glyph unicode="&#xd4;" horiz-adv-x="1595" d="M135 586q0 342 246 601t584 259q260 0 414.5 -178t154.5 -443q0 -344 -243.5 -598t-583.5 -254q-260 0 -416 174.5t-156 438.5zM260 598q0 -219 125 -362.5t342 -143.5q285 0 483.5 214t198.5 505q0 221 -125 368.5t-340 147.5q-285 0 -484.5 -219t-199.5 -510zM729 1557 l244 288h131l141 -288h-135l-82 202l-149 -202h-150z" />
<glyph unicode="&#xd5;" horiz-adv-x="1595" d="M135 586q0 342 246 601t584 259q260 0 414.5 -178t154.5 -443q0 -344 -243.5 -598t-583.5 -254q-260 0 -416 174.5t-156 438.5zM260 598q0 -219 125 -362.5t342 -143.5q285 0 483.5 214t198.5 505q0 221 -125 368.5t-340 147.5q-285 0 -484.5 -219t-199.5 -510zM740 1708 q82 90 170 90q51 0 113.5 -41t88.5 -41q49 0 111 61l41 -82q-82 -90 -172 -90q-49 0 -111.5 41t-91.5 41q-47 0 -110 -61z" />
<glyph unicode="&#xd6;" horiz-adv-x="1595" d="M135 586q0 342 246 601t584 259q260 0 414.5 -178t154.5 -443q0 -344 -243.5 -598t-583.5 -254q-260 0 -416 174.5t-156 438.5zM260 598q0 -219 125 -362.5t342 -143.5q285 0 483.5 214t198.5 505q0 221 -125 368.5t-340 147.5q-285 0 -484.5 -219t-199.5 -510zM723 1698 q0 41 28.5 69.5t69.5 28.5t69 -28.5t28 -69.5t-29 -69.5t-68 -28.5q-41 0 -69.5 28.5t-28.5 69.5zM1065 1698q0 41 27.5 69.5t68.5 28.5t70 -28.5t29 -69.5t-29 -69.5t-70 -28.5q-39 0 -67.5 28.5t-28.5 69.5z" />
<glyph unicode="&#xd7;" horiz-adv-x="964" d="M121 260l270 270l-270 271l84 84l270 -271l270 271l84 -84l-270 -271l270 -270l-84 -84l-270 270l-270 -270z" />
<glyph unicode="&#xd8;" horiz-adv-x="1597" d="M121 -6l155 168q-141 170 -141 424q0 342 246 601t584 259q219 0 368 -133l148 160l67 -58l-153 -168q139 -170 139 -422q0 -344 -243.5 -598t-583.5 -254q-219 0 -369 127l-150 -163zM260 598q1 -203 105 -338l880 957q-121 111 -301 110q-285 0 -484.5 -219 t-199.5 -510zM426 195q119 -102 301 -103q285 0 483.5 214t198.5 505q0 197 -104 340z" />
<glyph unicode="&#xd9;" horiz-adv-x="1314" d="M190 512l160 907h121l-156 -887q-37 -201 43 -320.5t271 -119.5q188 0 310 119t159 321l155 887h121l-160 -907q-41 -231 -208.5 -385t-397.5 -154q-231 0 -345 153t-73 386zM766 1845h141l53 -289h-106z" />
<glyph unicode="&#xda;" horiz-adv-x="1314" d="M190 512l160 907h121l-156 -887q-37 -201 43 -320.5t271 -119.5q188 0 310 119t159 321l155 887h121l-160 -907q-41 -231 -208.5 -385t-397.5 -154q-231 0 -345 153t-73 386zM791 1557l155 288h142l-189 -288h-108z" />
<glyph unicode="&#xdb;" horiz-adv-x="1314" d="M190 512l160 907h121l-156 -887q-37 -201 43 -320.5t271 -119.5q188 0 310 119t159 321l155 887h121l-160 -907q-41 -231 -208.5 -385t-397.5 -154q-231 0 -345 153t-73 386zM627 1557l244 288h131l141 -288h-135l-82 202l-149 -202h-150z" />
<glyph unicode="&#xdc;" horiz-adv-x="1314" d="M190 512l160 907h121l-156 -887q-37 -201 43 -320.5t271 -119.5q188 0 310 119t159 321l155 887h121l-160 -907q-41 -231 -208.5 -385t-397.5 -154q-231 0 -345 153t-73 386zM622 1698q0 41 28.5 69.5t69.5 28.5t69 -28.5t28 -69.5t-29 -69.5t-68 -28.5q-41 0 -69.5 28.5 t-28.5 69.5zM964 1698q0 41 27.5 69.5t68.5 28.5t70 -28.5t29 -69.5t-29 -69.5t-70 -28.5q-39 0 -67.5 28.5t-28.5 69.5z" />
<glyph unicode="&#xdd;" horiz-adv-x="1181" d="M227 1419h131l265 -717l528 717h131l-612 -833l-103 -586h-125l103 586zM690 1557l155 288h142l-189 -288h-108z" />
<glyph unicode="&#xde;" horiz-adv-x="1075" d="M88 0l250 1419h121l-37 -205h252q186 0 282.5 -91t96.5 -249q0 -219 -148.5 -359t-390.5 -140h-240l-65 -375h-121zM295 489h219q229 0 322.5 106.5t93.5 266.5q0 233 -299 234h-230z" />
<glyph unicode="&#xdf;" horiz-adv-x="1132" d="M57 -449l238 1360h-164l19 103h163l33 180q29 156 121 240t244 84q123 0 195.5 -67t72.5 -185q0 -96 -50 -176t-109.5 -125t-110 -106.5t-50.5 -127.5q0 -59 58.5 -106t128 -76t128 -90.5t58.5 -147.5q0 -145 -106.5 -241.5t-261.5 -96.5q-137 0 -277 82l49 109 q135 -76 236 -76q96 0 166.5 59.5t70.5 139.5q0 51 -39 90t-94 66.5t-109.5 59.5t-93 85t-38.5 127q0 78 32.5 141.5t79.5 105.5t94 81.5t80 91t33 112.5q0 156 -164 156q-195 0 -231 -217l-285 -1635h-117z" />
<glyph unicode="&#xe0;" d="M96 414q0 252 171 439t403 187q223 0 317 -198l33 172l113 -21l-175 -993h-88l11 170q-160 -197 -400 -197q-176 0 -280.5 125t-104.5 316zM217 428q0 -152 80 -246t205 -94q170 0 304 141.5t134 356.5q0 154 -83 247t-208 93q-166 0 -299 -140.5t-133 -357.5zM584 1471 h141l53 -289h-106z" />
<glyph unicode="&#xe1;" d="M96 414q0 252 171 439t403 187q223 0 317 -198l33 172l113 -21l-175 -993h-88l11 170q-160 -197 -400 -197q-176 0 -280.5 125t-104.5 316zM217 428q0 -152 80 -246t205 -94q170 0 304 141.5t134 356.5q0 154 -83 247t-208 93q-166 0 -299 -140.5t-133 -357.5zM651 1182 l155 288h142l-189 -288h-108z" />
<glyph unicode="&#xe2;" d="M96 414q0 252 171 439t403 187q223 0 317 -198l33 172l113 -21l-175 -993h-88l11 170q-160 -197 -400 -197q-176 0 -280.5 125t-104.5 316zM217 428q0 -152 80 -246t205 -94q170 0 304 141.5t134 356.5q0 154 -83 247t-208 93q-166 0 -299 -140.5t-133 -357.5zM473 1182 l244 288h131l141 -288h-135l-82 202l-149 -202h-150z" />
<glyph unicode="&#xe3;" d="M96 414q0 252 171 439t403 187q223 0 317 -198l33 172l113 -21l-175 -993h-88l11 170q-160 -197 -400 -197q-176 0 -280.5 125t-104.5 316zM217 428q0 -152 80 -246t205 -94q170 0 304 141.5t134 356.5q0 154 -83 247t-208 93q-166 0 -299 -140.5t-133 -357.5zM482 1334 q82 90 170 90q51 0 113.5 -41t88.5 -41q49 0 111 61l41 -82q-82 -90 -172 -90q-49 0 -111.5 41t-91.5 41q-47 0 -110 -61z" />
<glyph unicode="&#xe4;" d="M96 414q0 252 171 439t403 187q223 0 317 -198l33 172l113 -21l-175 -993h-88l11 170q-160 -197 -400 -197q-176 0 -280.5 125t-104.5 316zM217 428q0 -152 80 -246t205 -94q170 0 304 141.5t134 356.5q0 154 -83 247t-208 93q-166 0 -299 -140.5t-133 -357.5zM471 1323 q0 41 28.5 69.5t69.5 28.5t69 -28.5t28 -69.5t-29 -69.5t-68 -28.5q-41 0 -69.5 28.5t-28.5 69.5zM813 1323q0 41 27.5 69.5t68.5 28.5t70 -28.5t29 -69.5t-29 -69.5t-70 -28.5q-39 0 -67.5 28.5t-28.5 69.5z" />
<glyph unicode="&#xe5;" d="M96 414q0 252 171 439t403 187q223 0 317 -198l33 172l113 -21l-175 -993h-88l11 170q-160 -197 -400 -197q-176 0 -280.5 125t-104.5 316zM217 428q0 -152 80 -246t205 -94q170 0 304 141.5t134 356.5q0 154 -83 247t-208 93q-166 0 -299 -140.5t-133 -357.5zM551 1327 q0 76 54 129t130 53t129 -52t53 -130q0 -76 -53 -129t-129 -53t-130 53t-54 129zM645 1327q0 -39 26.5 -65.5t63.5 -26.5t64.5 26.5t27.5 65.5q0 37 -27.5 64.5t-64.5 27.5t-63.5 -27.5t-26.5 -64.5z" />
<glyph unicode="&#xe6;" horiz-adv-x="1871" d="M96 260q0 172 124.5 263t314.5 91h352q0 311 -273 312q-139 0 -307 -62v115q154 61 328 61q121 0 218 -63.5t130 -194.5q80 119 200 188.5t255 69.5q219 0 303 -149.5t43 -378.5h-787q-33 -184 49 -304t259 -120q139 0 305 62v-115q-156 -61 -326 -62q-150 0 -250 74 t-139 199q-158 -272 -453 -273q-164 0 -255 81t-91 206zM215 272q0 -92 65.5 -138t182.5 -46q168 0 284 125t130 299h-357q-305 0 -305 -240zM1026 614h653q6 158 -63.5 235t-198.5 77q-125 0 -230.5 -80t-160.5 -232z" />
<glyph unicode="&#xe7;" horiz-adv-x="1030" d="M96 416q0 254 173 439t442 185q170 0 321 -69l-57 -107q-139 61 -285 62q-211 0 -342 -148.5t-131 -341.5q0 -150 84 -249t240 -99q123 0 305 68l20 -111q-156 -68 -329 -72l-37 -116q158 0 157 -129q0 -90 -64.5 -145.5t-160.5 -55.5q-80 0 -137 35l29 86 q59 -27 116 -27q59 0 88 30t29 62q0 66 -94 66q-31 0 -92 -10l69 211q-166 25 -255 144.5t-89 291.5z" />
<glyph unicode="&#xe8;" horiz-adv-x="1097" d="M96 414q0 252 168 439t400 187q219 0 303 -149.5t43 -378.5h-787q-33 -184 49 -304t258 -120q140 1 306 62v-115q-156 -61 -326 -62q-195 0 -304.5 124t-109.5 317zM252 614h653q6 158 -63.5 235t-198.5 77q-125 0 -230.5 -80t-160.5 -232zM551 1471h141l53 -289h-106z " />
<glyph unicode="&#xe9;" horiz-adv-x="1097" d="M96 414q0 252 168 439t400 187q219 0 303 -149.5t43 -378.5h-787q-33 -184 49 -304t258 -120q140 1 306 62v-115q-156 -61 -326 -62q-195 0 -304.5 124t-109.5 317zM252 614h653q6 158 -63.5 235t-198.5 77q-125 0 -230.5 -80t-160.5 -232zM651 1182l155 288h142 l-189 -288h-108z" />
<glyph unicode="&#xea;" horiz-adv-x="1097" d="M96 414q0 252 168 439t400 187q219 0 303 -149.5t43 -378.5h-787q-33 -184 49 -304t258 -120q140 1 306 62v-115q-156 -61 -326 -62q-195 0 -304.5 124t-109.5 317zM252 614h653q6 158 -63.5 235t-198.5 77q-125 0 -230.5 -80t-160.5 -232zM448 1182l244 288h131 l141 -288h-135l-82 202l-149 -202h-150z" />
<glyph unicode="&#xeb;" horiz-adv-x="1097" d="M96 414q0 252 168 439t400 187q219 0 303 -149.5t43 -378.5h-787q-33 -184 49 -304t258 -120q140 1 306 62v-115q-156 -61 -326 -62q-195 0 -304.5 124t-109.5 317zM252 614h653q6 158 -63.5 235t-198.5 77q-125 0 -230.5 -80t-160.5 -232zM430 1323q0 41 28.5 69.5 t69.5 28.5t69 -28.5t28 -69.5t-29 -69.5t-68 -28.5q-41 0 -69.5 28.5t-28.5 69.5zM772 1323q0 41 27.5 69.5t68.5 28.5t70 -28.5t29 -69.5t-29 -69.5t-70 -28.5q-39 0 -67.5 28.5t-28.5 69.5z" />
<glyph unicode="&#xec;" horiz-adv-x="391" d="M47 0l178 1014h117l-178 -1014h-117zM166 1471h141l53 -289h-106z" />
<glyph unicode="&#xed;" horiz-adv-x="391" d="M47 0l178 1014h117l-178 -1014h-117zM264 1182l155 288h142l-189 -288h-108z" />
<glyph unicode="&#xee;" horiz-adv-x="391" d="M47 0l178 1014h117l-178 -1014h-117zM63 1182l244 288h131l141 -288h-135l-82 202l-149 -202h-150z" />
<glyph unicode="&#xef;" horiz-adv-x="391" d="M47 0l178 1014h117l-178 -1014h-117zM55 1323q0 41 28.5 69.5t69.5 28.5t69 -28.5t28 -69.5t-29 -69.5t-68 -28.5q-41 0 -69.5 28.5t-28.5 69.5zM397 1323q0 41 27.5 69.5t68.5 28.5t70 -28.5t29 -69.5t-29 -69.5t-70 -28.5q-39 0 -67.5 28.5t-28.5 69.5z" />
<glyph unicode="&#xf0;" horiz-adv-x="1261" d="M96 403q0 236 178.5 410t417.5 174q154 0 275 -98q-37 160 -115 321l-207 -71l-18 98l182 63q-12 25 -27.5 51.5t-33 55.5t-25.5 45l111 64q53 -76 104 -170l213 73l20 -98l-188 -66q152 -330 127 -706q-16 -236 -188 -406t-408 -170q-188 0 -303 124t-115 306zM217 416 q0 -141 86.5 -234.5t231.5 -93.5q180 0 316 132t136 327q0 143 -84 234t-231 91q-190 0 -322.5 -134t-132.5 -322z" />
<glyph unicode="&#xf1;" horiz-adv-x="1097" d="M68 0l176 993l98 21l-14 -180q143 207 389 206q150 0 223.5 -104.5t42.5 -280.5l-115 -655h-116l108 625q25 141 -21 221t-159 80q-150 0 -262.5 -123t-153.5 -346l-80 -457h-116zM412 1334q82 90 170 90q51 0 113.5 -41t88.5 -41q49 0 111 61l41 -82q-82 -90 -172 -90 q-49 0 -111.5 41t-91.5 41q-47 0 -110 -61z" />
<glyph unicode="&#xf2;" horiz-adv-x="1202" d="M96 420q0 248 179.5 434t422.5 186q186 0 299 -128t113 -320q0 -248 -178 -433.5t-422 -185.5q-188 0 -301 128t-113 319zM217 434q0 -150 84 -248t229 -98q193 0 326 146.5t133 345.5q0 150 -83 248t-228 98q-190 0 -325.5 -146.5t-135.5 -345.5zM584 1471h141l53 -289 h-106z" />
<glyph unicode="&#xf3;" horiz-adv-x="1202" d="M96 420q0 248 179.5 434t422.5 186q186 0 299 -128t113 -320q0 -248 -178 -433.5t-422 -185.5q-188 0 -301 128t-113 319zM217 434q0 -150 84 -248t229 -98q193 0 326 146.5t133 345.5q0 150 -83 248t-228 98q-190 0 -325.5 -146.5t-135.5 -345.5zM686 1182l155 288h142 l-189 -288h-108z" />
<glyph unicode="&#xf4;" horiz-adv-x="1202" d="M96 420q0 248 179.5 434t422.5 186q186 0 299 -128t113 -320q0 -248 -178 -433.5t-422 -185.5q-188 0 -301 128t-113 319zM217 434q0 -150 84 -248t229 -98q193 0 326 146.5t133 345.5q0 150 -83 248t-228 98q-190 0 -325.5 -146.5t-135.5 -345.5zM471 1182l244 288h131 l141 -288h-135l-82 202l-149 -202h-150z" />
<glyph unicode="&#xf5;" horiz-adv-x="1202" d="M96 420q0 248 179.5 434t422.5 186q186 0 299 -128t113 -320q0 -248 -178 -433.5t-422 -185.5q-188 0 -301 128t-113 319zM217 434q0 -150 84 -248t229 -98q193 0 326 146.5t133 345.5q0 150 -83 248t-228 98q-190 0 -325.5 -146.5t-135.5 -345.5zM494 1334q82 90 170 90 q51 0 113.5 -41t88.5 -41q49 0 111 61l41 -82q-82 -90 -172 -90q-49 0 -111.5 41t-91.5 41q-47 0 -110 -61z" />
<glyph unicode="&#xf6;" horiz-adv-x="1202" d="M96 420q0 248 179.5 434t422.5 186q186 0 299 -128t113 -320q0 -248 -178 -433.5t-422 -185.5q-188 0 -301 128t-113 319zM217 434q0 -150 84 -248t229 -98q193 0 326 146.5t133 345.5q0 150 -83 248t-228 98q-190 0 -325.5 -146.5t-135.5 -345.5zM496 1323 q0 41 28.5 69.5t69.5 28.5t69 -28.5t28 -69.5t-29 -69.5t-68 -28.5q-41 0 -69.5 28.5t-28.5 69.5zM838 1323q0 41 27.5 69.5t68.5 28.5t70 -28.5t29 -69.5t-29 -69.5t-70 -28.5q-39 0 -67.5 28.5t-28.5 69.5z" />
<glyph unicode="&#xf8;" horiz-adv-x="1204" d="M37 -47l156 170q-94 119 -95 297q0 248 179.5 434t422.5 186q147 0 256 -88l152 166l70 -57l-160 -172q94 -123 94 -297q0 -248 -178 -433.5t-422 -185.5q-152 0 -256 86l-152 -163zM219 434q1 -129 60 -219l593 645q-82 66 -192 66q-190 0 -325.5 -146.5t-135.5 -345.5z M340 152q76 -63 192 -64q193 0 326 146.5t133 345.5q0 125 -59 215z" />
<glyph unicode="&#xf9;" horiz-adv-x="1087" d="M154 358l114 656h117l-109 -625q-25 -141 21.5 -221t159.5 -80q150 0 262 123t151 346l80 457h117l-178 -1014h-96l12 178q-139 -205 -385 -205q-150 0 -223.5 104.5t-42.5 280.5zM571 1471h141l53 -289h-106z" />
<glyph unicode="&#xfa;" horiz-adv-x="1087" d="M154 358l114 656h117l-109 -625q-25 -141 21.5 -221t159.5 -80q150 0 262 123t151 346l80 457h117l-178 -1014h-96l12 178q-139 -205 -385 -205q-150 0 -223.5 104.5t-42.5 280.5zM615 1182l155 288h142l-189 -288h-108z" />
<glyph unicode="&#xfb;" horiz-adv-x="1087" d="M154 358l114 656h117l-109 -625q-25 -141 21.5 -221t159.5 -80q150 0 262 123t151 346l80 457h117l-178 -1014h-96l12 178q-139 -205 -385 -205q-150 0 -223.5 104.5t-42.5 280.5zM430 1182l244 288h131l141 -288h-135l-82 202l-149 -202h-150z" />
<glyph unicode="&#xfc;" horiz-adv-x="1087" d="M154 358l114 656h117l-109 -625q-25 -141 21.5 -221t159.5 -80q150 0 262 123t151 346l80 457h117l-178 -1014h-96l12 178q-139 -205 -385 -205q-150 0 -223.5 104.5t-42.5 280.5zM453 1323q0 41 28.5 69.5t69.5 28.5t69 -28.5t28 -69.5t-29 -69.5t-68 -28.5 q-41 0 -69.5 28.5t-28.5 69.5zM795 1323q0 41 27.5 69.5t68.5 28.5t70 -28.5t29 -69.5t-29 -69.5t-70 -28.5q-39 0 -67.5 28.5t-28.5 69.5z" />
<glyph unicode="&#xfd;" horiz-adv-x="919" d="M-137 -436l31 108q66 -33 143 -32q117 0 192 151l103 209h-41l-166 993l121 21l114 -748q23 -166 23 -174q29 68 80 174l366 748h123l-633 -1276q-104 -213 -278 -213q-100 0 -178 39zM475 1182l155 288h142l-189 -288h-108z" />
<glyph unicode="&#xfe;" horiz-adv-x="1198" d="M-14 -449l340 1940h118l-108 -625q158 174 383 174q176 0 280.5 -124.5t104.5 -315.5q0 -252 -171 -439.5t-403 -187.5q-223 0 -319 195l-109 -617h-116zM258 428q0 -154 83 -247t210 -93q166 0 299 140.5t133 357.5q0 152 -80 246t-205 94q-170 0 -305 -141.5 t-135 -356.5z" />
<glyph unicode="&#xff;" horiz-adv-x="919" d="M-137 -436l31 108q66 -33 143 -32q117 0 192 151l103 209h-41l-166 993l121 21l114 -748q23 -166 23 -174q29 68 80 174l366 748h123l-633 -1276q-104 -213 -278 -213q-100 0 -178 39zM305 1323q0 41 28.5 69.5t69.5 28.5t69 -28.5t28 -69.5t-29 -69.5t-68 -28.5 q-41 0 -69.5 28.5t-28.5 69.5zM647 1323q0 41 27.5 69.5t68.5 28.5t70 -28.5t29 -69.5t-29 -69.5t-70 -28.5q-39 0 -67.5 28.5t-28.5 69.5z" />
<glyph unicode="&#x152;" horiz-adv-x="2195" d="M135 586q0 342 246 601t584 259q184 0 315 -94.5t193 -253.5l57 321h706l-20 -119h-592l-90 -522h545l-45 -114h-521l-96 -545h602l-20 -119h-719l49 276q-115 -141 -276.5 -222t-345.5 -81q-260 0 -416 174.5t-156 438.5zM260 598q0 -219 125 -362.5t342 -143.5 q285 0 483.5 214t198.5 505q0 221 -125 368.5t-340 147.5q-285 0 -484.5 -219t-199.5 -510z" />
<glyph unicode="&#x153;" horiz-adv-x="1976" d="M96 420q0 248 179.5 434t422.5 186q139 0 238.5 -74.5t142.5 -201.5q78 127 200 201.5t263 74.5q219 0 303 -149.5t43 -378.5h-786q-33 -184 49 -304t258 -120q139 1 305 62v-115q-156 -61 -325 -62q-150 0 -249.5 75t-138.5 202q-82 -127 -212 -202t-279 -75 q-188 0 -301 128t-113 319zM217 434q0 -150 84 -248t229 -98q193 0 326 146.5t133 345.5q0 150 -83 248t-228 98q-190 0 -325.5 -146.5t-135.5 -345.5zM1130 614h654q6 158 -63.5 235t-198.5 77q-125 0 -231 -80t-161 -232z" />
<glyph unicode="&#x178;" horiz-adv-x="1181" d="M227 1419h131l265 -717l528 717h131l-612 -833l-103 -586h-125l103 586zM502 1698q0 41 28.5 69.5t69.5 28.5t69 -28.5t28 -69.5t-29 -69.5t-68 -28.5q-41 0 -69.5 28.5t-28.5 69.5zM844 1698q0 41 27.5 69.5t68.5 28.5t70 -28.5t29 -69.5t-29 -69.5t-70 -28.5 q-39 0 -67.5 28.5t-28.5 69.5z" />
<glyph unicode="&#x2c6;" horiz-adv-x="655" d="M178 1182l244 288h131l141 -288h-135l-82 202l-149 -202h-150z" />
<glyph unicode="&#x2dc;" horiz-adv-x="743" d="M285 1334q82 90 170 90q51 0 113.5 -41t88.5 -41q49 0 111 61l41 -82q-82 -90 -172 -90q-49 0 -111.5 41t-91.5 41q-47 0 -110 -61z" />
<glyph unicode="&#x2000;" horiz-adv-x="942" />
<glyph unicode="&#x2001;" horiz-adv-x="1884" />
<glyph unicode="&#x2002;" horiz-adv-x="942" />
<glyph unicode="&#x2003;" horiz-adv-x="1884" />
<glyph unicode="&#x2004;" horiz-adv-x="628" />
<glyph unicode="&#x2005;" horiz-adv-x="471" />
<glyph unicode="&#x2006;" horiz-adv-x="314" />
<glyph unicode="&#x2007;" horiz-adv-x="314" />
<glyph unicode="&#x2008;" horiz-adv-x="235" />
<glyph unicode="&#x2009;" horiz-adv-x="376" />
<glyph unicode="&#x200a;" horiz-adv-x="104" />
<glyph unicode="&#x2010;" horiz-adv-x="913" d="M164 471l20 115h566l-21 -115h-565z" />
<glyph unicode="&#x2011;" horiz-adv-x="913" d="M164 471l20 115h566l-21 -115h-565z" />
<glyph unicode="&#x2012;" horiz-adv-x="913" d="M164 471l20 115h566l-21 -115h-565z" />
<glyph unicode="&#x2013;" horiz-adv-x="1024" d="M0 512v119h1024v-119h-1024z" />
<glyph unicode="&#x2014;" horiz-adv-x="2048" d="M0 508v119h2048v-119h-2048z" />
<glyph unicode="&#x2018;" horiz-adv-x="438" d="M219 1042l199 453l76 -14l-156 -461z" />
<glyph unicode="&#x2019;" horiz-adv-x="438" d="M238 1034l155 461l117 -22l-197 -453z" />
<glyph unicode="&#x201a;" horiz-adv-x="419" d="M-23 -297l156 461l119 -23l-199 -452z" />
<glyph unicode="&#x201c;" horiz-adv-x="700" d="M236 1042l196 453l78 -14l-158 -461zM475 1042l199 453l76 -14l-156 -461z" />
<glyph unicode="&#x201d;" horiz-adv-x="700" d="M256 1034l156 461l116 -22l-196 -453zM498 1034l153 461l119 -22l-199 -453z" />
<glyph unicode="&#x201e;" horiz-adv-x="659" d="M-20 -297l155 461l119 -23l-199 -452zM219 -297l158 461l117 -23l-197 -452z" />
<glyph unicode="&#x2022;" horiz-adv-x="1007" d="M229 590q0 135 95.5 231.5t230.5 96.5t230.5 -96.5t95.5 -231.5t-95.5 -230.5t-230.5 -95.5t-230.5 95.5t-95.5 230.5z" />
<glyph unicode="&#x2026;" horiz-adv-x="1681" d="M68 70q0 39 27.5 66.5t66.5 27.5q37 0 65.5 -27.5t28.5 -66.5q0 -37 -28.5 -66t-65.5 -29q-39 0 -66.5 29t-27.5 66zM705 70q0 39 28.5 66.5t65.5 27.5q39 0 66.5 -27.5t27.5 -66.5q0 -37 -27.5 -66t-66.5 -29q-37 0 -65.5 29t-28.5 66zM1278 70q0 39 27.5 66.5 t66.5 27.5q37 0 65.5 -27.5t28.5 -66.5q0 -37 -28.5 -66t-65.5 -29q-39 0 -66.5 29t-27.5 66z" />
<glyph unicode="&#x202f;" horiz-adv-x="376" />
<glyph unicode="&#x2039;" horiz-adv-x="638" d="M143 528l328 379l82 -67l-270 -312l159 -311l-106 -67z" />
<glyph unicode="&#x203a;" horiz-adv-x="636" d="M123 217l268 311l-158 312l107 67l192 -379l-327 -378z" />
<glyph unicode="&#x205f;" horiz-adv-x="471" />
<glyph unicode="&#x20ac;" horiz-adv-x="1134" d="M129 473l18 107h84q4 137 37 262h-84l18 106h101q86 225 258 361.5t397 136.5q135 0 256 -35l-35 -117q-104 33 -241 33q-178 0 -308.5 -102.5t-201.5 -276.5h583l-53 -106h-565q-33 -125 -37 -262h500l-54 -107h-444q18 -176 109.5 -278.5t252.5 -102.5q137 0 254 33 l7 -117q-137 -35 -281 -35q-207 0 -328 136.5t-139 363.5h-104z" />
<glyph unicode="&#x2122;" horiz-adv-x="1503" d="M219 1321l17 96h493l-16 -96h-197l-100 -571h-101l101 571h-197zM682 752l211 665h123l74 -559l270 559h123l-23 -665h-102l24 528l-262 -528h-98l-78 532l-160 -532h-102z" />
<glyph unicode="&#x25fc;" horiz-adv-x="1013" d="M0 0v1014h1014v-1014h-1014z" />
</font>
</defs>
</svg>
