<?xml version="1.0" standalone="no"?>
<!DOCTYPE svg PUBLIC "-//W3C//DTD SVG 1.1//EN" "http://www.w3.org/Graphics/SVG/1.1/DTD/svg11.dtd" >
<svg xmlns="http://www.w3.org/2000/svg">
<metadata></metadata>
<defs>
<font id="faricynew-bolduploaded_file" horiz-adv-x="1228" >
<font-face units-per-em="2048" ascent="1561" descent="-487" />
<missing-glyph horiz-adv-x="471" />
<glyph unicode="&#xfb01;" horiz-adv-x="1220" d="M27 860v184h166v89q0 385 434 385q145 0 291 -43l-41 -232q-119 29 -228 29q-100 0 -136 -31t-36 -111v-86h631v-1044h-285v860h-346v-860h-284v860h-166z" />
<glyph unicode="&#xfb02;" horiz-adv-x="1230" d="M27 860v184h166v89q0 385 430 385q90 0 200 -27h285v-1182q0 -47 17.5 -67.5t60.5 -20.5l-23 -246q-168 0 -254 70t-86 236v964q-102 27 -184 27q-92 0 -127 -31t-35 -111v-86h217v-184h-217v-860h-284v860h-166z" />
<glyph unicode="&#xfb03;" horiz-adv-x="1904" d="M27 860v184h166v109q0 176 100 270.5t272 94.5q100 0 209 -35l-49 -238q-80 27 -150 27q-55 0 -76.5 -27.5t-21.5 -93.5v-107h400v89q0 385 434 385q147 0 291 -43l-41 -232q-119 29 -228 29q-100 0 -136 -31t-36 -111v-86h631v-1044h-285v860h-346v-860h-284v860h-400 v-860h-284v860h-166z" />
<glyph unicode="&#xfb04;" horiz-adv-x="1914" d="M27 860v184h166v109q0 176 100 270.5t272 94.5q100 0 209 -35l-49 -238q-80 27 -150 27q-55 0 -76.5 -27.5t-21.5 -93.5v-107h400v89q0 385 430 385q90 0 200 -27h285v-1182q0 -47 17.5 -67.5t60.5 -20.5l-23 -246q-168 0 -254 70t-86 236v964q-102 27 -184 27 q-92 0 -127 -31t-35 -111v-86h217v-184h-217v-860h-284v860h-400v-860h-284v860h-166z" />
<glyph horiz-adv-x="0" />
<glyph unicode="&#xd;" horiz-adv-x="681" />
<glyph unicode=" "  horiz-adv-x="471" />
<glyph unicode="&#x09;" horiz-adv-x="471" />
<glyph unicode="&#xa0;" horiz-adv-x="471" />
<glyph unicode="!" horiz-adv-x="632" d="M135 154q0 76 55.5 127t127 51t126 -51.5t54.5 -126.5q0 -74 -53.5 -126.5t-127.5 -52.5q-76 0 -129 53.5t-53 125.5zM176 510v909h285v-909h-285z" />
<glyph unicode="&#x22;" horiz-adv-x="919" d="M133 1491h260l-53 -569h-154zM518 1491h260l-53 -569h-154z" />
<glyph unicode="#" horiz-adv-x="1290" d="M125 319v254h166l24 256h-141v254h166l31 322h254l-31 -322h174l31 322h254l-31 -322h147v-254h-172l-24 -256h145v-254h-170l-30 -319h-254l30 319h-172l-30 -319h-254l30 319h-143zM545 573h174l24 256h-174z" />
<glyph unicode="$" horiz-adv-x="1093" d="M80 82l80 240q190 -92 356 -93q92 0 141.5 42t49.5 114q0 63 -61.5 107.5t-148.5 78t-173 77.5t-147.5 132t-61.5 217q0 141 87 248t238 144v243h222v-231q127 -12 292 -86l-84 -234q-158 68 -290 68q-82 0 -122 -41t-40 -111q0 -61 61.5 -105t147.5 -80t173 -82 t148.5 -134t61.5 -211q0 -150 -96.5 -254t-251.5 -141v-244h-222v231q-186 17 -360 105z" />
<glyph unicode="%" horiz-adv-x="2037" d="M70 1016q0 168 115.5 289.5t291.5 121.5q178 0 293 -120.5t115 -290.5q0 -166 -116 -287t-292 -121t-291.5 121t-115.5 287zM299 1016q0 -92 49 -150.5t129 -58.5q82 0 130 58.5t48 150.5q0 96 -48 154.5t-130 58.5q-80 0 -129 -58.5t-49 -154.5zM639 0l555 1403h207 l-555 -1403h-207zM1153 381q0 168 115.5 290t292.5 122q178 0 292.5 -121t114.5 -291q0 -166 -115.5 -287t-292 -121t-292 121t-115.5 287zM1382 381q0 -92 49.5 -150.5t129.5 -58.5q82 0 130 58.5t48 150.5q0 96 -48.5 154.5t-129.5 58.5q-80 0 -129.5 -58.5t-49.5 -154.5z " />
<glyph unicode="&#x26;" horiz-adv-x="1366" d="M104 373q0 242 252 397q-74 164 -73 295q0 172 107.5 276.5t266.5 104.5q154 0 257.5 -97.5t103.5 -224.5q0 -145 -87 -242.5t-243 -191.5q86 -129 236 -278q76 96 133 231l215 -100q-72 -162 -174 -289q92 -78 143 -115l-174 -164q-63 37 -149 107q-160 -109 -347 -109 q-221 0 -344 116t-123 284zM401 399q0 -84 47.5 -130t133.5 -46q74 0 149 33q-150 154 -248 295q-82 -72 -82 -152zM553 1083q0 -92 31 -184q166 100 166 213q0 100 -93 100q-49 0 -76.5 -33.5t-27.5 -95.5z" />
<glyph unicode="'" horiz-adv-x="555" d="M147 1491h261l-54 -569h-153z" />
<glyph unicode="(" horiz-adv-x="886" d="M203 616.5q0 544.5 354 1040.5h272q-172 -248 -263 -523.5t-91 -517t91 -517t263 -523.5h-272q-354 496 -354 1040.5z" />
<glyph unicode=")" horiz-adv-x="886" d="M57 -424q172 248 263.5 523.5t91.5 517t-91.5 517t-263.5 523.5h273q354 -496 354 -1040.5t-354 -1040.5h-273z" />
<glyph unicode="*" horiz-adv-x="1036" d="M84 1073l88 266l219 -86l-14 238h282l-14 -238l219 86l88 -266l-229 -61l151 -183l-227 -163l-129 202l-129 -202l-225 163l149 183z" />
<glyph unicode="+" horiz-adv-x="1318" d="M145 389v266h381v381h267v-381h381v-266h-381v-381h-267v381h-381z" />
<glyph unicode="," horiz-adv-x="559" d="M84 -317l115 647l272 -47l-205 -631z" />
<glyph unicode="-" horiz-adv-x="954" d="M127 410v237h700v-237h-700z" />
<glyph unicode="." horiz-adv-x="606" d="M125 154q0 74 51 125t127 51t127 -51.5t51 -124.5q0 -76 -51 -127.5t-127 -51.5t-127 51.5t-51 127.5z" />
<glyph unicode="/" horiz-adv-x="878" d="M80 -199l493 1694h226l-494 -1694h-225z" />
<glyph unicode="0" horiz-adv-x="1183" d="M80 706.5q0 352.5 134 546t378 193.5t378 -193.5t134 -546t-133 -543t-379 -190.5t-379 190.5t-133 543zM369 707q0 -488 223 -488t223 488q0 494 -223 493.5t-223 -493.5z" />
<glyph unicode="1" horiz-adv-x="1011" d="M80 1245l414 174h217v-1173h254v-246h-830v246h287v852l-225 -99z" />
<glyph unicode="2" horiz-adv-x="1116" d="M80 1329q205 117 399 117q211 0 352.5 -116t141.5 -331q0 -182 -115 -357t-352 -396h483v-246h-901v207q358 322 477 485.5t119 296.5q0 86 -56.5 148.5t-150.5 62.5q-143 0 -299 -86z" />
<glyph unicode="3" horiz-adv-x="1015" d="M35 1339q180 106 371 107q211 0 339.5 -107.5t128.5 -304.5q0 -76 -43 -152.5t-139 -125.5q127 -53 178.5 -144.5t51.5 -185.5q0 -199 -141.5 -326t-370.5 -127q-170 0 -373 82l74 238q172 -74 303 -74q98 0 158.5 62.5t60.5 144.5q0 90 -68.5 148.5t-195.5 58.5h-101 v231h113q96 0 150.5 51.5t54.5 119t-48.5 116.5t-127.5 49q-129 0 -269 -78z" />
<glyph unicode="4" horiz-adv-x="1187" d="M68 504l559 915h311v-870h182v-246h-182v-303h-285v303h-551zM387 549h266v461z" />
<glyph unicode="5" horiz-adv-x="1134" d="M55 84l84 221q188 -86 344 -86q123 0 196 73t73 191q0 92 -55.5 160t-190.5 68q-162 0 -342 -66l53 774h756v-245h-516l-17 -240q63 14 111 14q240 0 364.5 -132t124.5 -322q0 -229 -151.5 -375t-394.5 -146q-230 0 -439 111z" />
<glyph unicode="6" horiz-adv-x="1177" d="M80 496q0 119 45 215l324 708h309l-213 -411q29 4 45 4q213 0 360.5 -151.5t147.5 -364.5q0 -219 -141.5 -371t-366.5 -152t-367.5 152t-142.5 371zM369 496q0 -117 57 -197t163.5 -80t163 80t56.5 197q0 113 -55.5 186.5t-164 73.5t-164.5 -73.5t-56 -186.5z" />
<glyph unicode="7" horiz-adv-x="1036" d="M35 1174v245h973v-170l-514 -1249h-314l512 1174h-657z" />
<glyph unicode="8" horiz-adv-x="1142" d="M86 387q0 207 219 336q-180 115 -180 338q0 129 70.5 220t167 128t207 37t207.5 -37t168 -128t71 -220q0 -193 -187 -309q227 -137 228 -365q0 -199 -144.5 -306.5t-343 -107.5t-341 107.5t-142.5 306.5zM377 393q0 -74 53 -124t139 -50t141.5 50t55.5 124 q0 78 -55.5 124t-165.5 93q-168 -90 -168 -217zM414 1060.5q0 -61.5 46 -105.5t132 -87q135 86 135 193q0 59 -44 99t-113.5 40t-112.5 -39t-43 -100.5z" />
<glyph unicode="9" horiz-adv-x="1177" d="M80 926q0 215 147.5 367.5t360.5 152.5t361.5 -152.5t148.5 -367.5q0 -123 -45 -219l-324 -707h-309l211 408q-29 -4 -43 -5q-213 0 -360.5 154t-147.5 369zM369 926q0 -113 58 -190t160.5 -77t162 77t59.5 190q0 115 -59.5 194.5t-162 79.5t-160.5 -80t-58 -194z" />
<glyph unicode=":" horiz-adv-x="622" d="M133 154q0 76 51.5 127t127 51t126.5 -51.5t51 -126.5q0 -74 -51 -125.5t-126.5 -51.5t-127 51.5t-51.5 125.5zM133 844q0 74 51.5 126t127 52t126.5 -52t51 -126q0 -76 -51 -127t-126.5 -51t-127 51t-51.5 127z" />
<glyph unicode=";" horiz-adv-x="636" d="M80 -317l115 647l272 -47l-205 -631zM147 844q0 74 51.5 126t127 52t127 -52t51.5 -126q0 -76 -51.5 -127t-127 -51t-127 51t-51.5 127z" />
<glyph unicode="&#x3c;" horiz-adv-x="1261" d="M186 526l723 607l166 -203l-483 -404l483 -401l-166 -203z" />
<glyph unicode="=" horiz-adv-x="1318" d="M145 160v266h1029v-266h-1029zM145 627v266h1029v-266h-1029z" />
<glyph unicode="&#x3e;" horiz-adv-x="1261" d="M186 127l484 401l-484 404l166 203l723 -607l-723 -604z" />
<glyph unicode="?" horiz-adv-x="1040" d="M141 1311q197 135 387 135q199 0 308.5 -110.5t109.5 -245.5q0 -78 -27.5 -141.5t-65.5 -108.5t-77 -92.5t-66.5 -118t-27.5 -158.5h-279q0 106 27 190t64.5 135.5t75.5 93.5t65 85t27 90q0 51 -39 83t-111 32q-113 0 -258 -93zM365 156q0 76 53 126t124.5 50t128 -50.5 t56.5 -125.5q0 -74 -55.5 -127.5t-129 -53.5t-125.5 53.5t-52 127.5z" />
<glyph unicode="@" horiz-adv-x="1988" d="M86 475q0 418 252 672t659 254q393 0 648.5 -233.5t255.5 -641.5q0 -225 -104.5 -375.5t-301.5 -150.5q-190 0 -256 141q-102 -141 -285 -141q-193 0 -312.5 144.5t-119.5 343t119 346t313 147.5q143 0 246 -98v69l246 -45v-600q0 -49 21.5 -78.5t58.5 -29.5q76 0 125 85 t49 232q0 344 -198.5 522.5t-504.5 178.5q-303 0 -506.5 -204t-203.5 -536q0 -322 195.5 -506t500.5 -184q168 0 328 61l57 -180q-188 -66 -385 -65q-416 0 -656.5 243.5t-240.5 628.5zM778 487q0 -113 54.5 -190.5t156.5 -77.5q100 0 166 76t66 192q0 125 -68 200t-164 75 q-104 0 -157.5 -82t-53.5 -193z" />
<glyph unicode="A" horiz-adv-x="1353" d="M41 0l461 1419h350l461 -1419h-297l-117 367h-444l-117 -367h-297zM532 616h287l-65 209q-31 94 -78 303q-37 -174 -76 -303z" />
<glyph unicode="B" horiz-adv-x="1183" d="M133 0v1419h414q240 0 365.5 -103.5t125.5 -277.5q0 -195 -182 -278q260 -86 260 -330q0 -188 -141 -309t-375 -121h-467zM426 254h162q106 0 162.5 50t56.5 136q0 184 -223 185h-158v-371zM426 864h131q178 0 178 152q0 149 -186 149h-2h-121v-301z" />
<glyph unicode="C" horiz-adv-x="1318" d="M86 709q0 203 85 368.5t256 267t398 101.5q193 0 402 -74l-68 -239q-172 57 -334 57q-213 0 -321.5 -143.5t-108.5 -338t108.5 -337t321.5 -142.5q166 0 336 54l70 -242q-195 -68 -406 -68q-338 0 -538.5 212.5t-200.5 523.5z" />
<glyph unicode="D" horiz-adv-x="1427" d="M133 0v1419h512q229 0 390 -99t233.5 -256t72.5 -355.5t-72.5 -354t-233.5 -255t-390 -99.5h-512zM426 254h197q113 0 194.5 37t127.5 103.5t66.5 144t20.5 170.5q0 199 -96 327.5t-313 128.5h-197v-911z" />
<glyph unicode="E" horiz-adv-x="1067" d="M133 0v1419h836v-254h-543v-319h498l-25 -250h-473v-342h557v-254h-850z" />
<glyph unicode="F" horiz-adv-x="1007" d="M133 0v1419h807v-254h-514v-319h469l-25 -250h-444v-596h-293z" />
<glyph unicode="G" horiz-adv-x="1527" d="M86 709q0 307 216 522t556 215q246 0 485 -107l-88 -233q-201 84 -397 84q-215 0 -339 -145.5t-124 -335.5q0 -193 114 -336.5t327 -143.5q164 0 311 56v424l278 47v-629q-268 -154 -589 -154q-340 0 -545 213.5t-205 522.5z" />
<glyph unicode="H" horiz-adv-x="1353" d="M133 0v1419h293v-561h502v561h293v-1419h-293v604h-502v-604h-293z" />
<glyph unicode="I" horiz-adv-x="559" d="M133 0v1419h293v-1419h-293z" />
<glyph unicode="J" horiz-adv-x="1017" d="M41 72l90 233q147 -76 279 -76q193 0 192 265v925h293v-946q0 -238 -133 -369t-352 -131q-185 1 -369 99z" />
<glyph unicode="K" horiz-adv-x="1288" d="M133 0v1419h293v-571l418 571h352l-451 -602l502 -817h-362l-328 582l-131 -162v-420h-293z" />
<glyph unicode="L" horiz-adv-x="1013" d="M133 0v1419l293 25v-1190h526v-254h-819z" />
<glyph unicode="M" horiz-adv-x="1806" d="M61 0l209 1419h328l233 -837q37 -141 70 -289q47 199 74 289l233 837h328l209 -1419h-295l-94 711q-14 104 -19 264q-31 -123 -71 -266l-203 -697h-320l-202 697q-29 92 -72 266q-8 -193 -18 -264l-95 -711h-295z" />
<glyph unicode="N" horiz-adv-x="1411" d="M133 0v1391l248 26l604 -880v882h293v-1419h-256l-596 877v-877h-293z" />
<glyph unicode="O" horiz-adv-x="1642" d="M86 708.5q0 307.5 207 522.5t528.5 215t528 -215t206.5 -522.5t-206.5 -521.5t-528 -214t-528.5 214t-207 521.5zM395 709q0 -199 117 -339.5t309.5 -140.5t309 139.5t116.5 340t-116.5 341t-309 140.5t-309.5 -140t-117 -341z" />
<glyph unicode="P" horiz-adv-x="1116" d="M133 0v1419h426q213 0 354.5 -117.5t141.5 -330.5q0 -215 -140.5 -333t-353.5 -118h-135v-520h-293zM426 770h115q119 0 168 50t49 151q0 194 -213 194h-2h-117v-395z" />
<glyph unicode="Q" horiz-adv-x="1642" d="M86 708.5q0 307.5 207 522.5t528.5 215t528 -215t206.5 -522q0 -231 -122.5 -417t-333.5 -267l102 -375l-246 -60l-98 385q-12 -2 -37 -2q-322 0 -528.5 214t-206.5 521.5zM395 709q0 -199 117 -339.5t309.5 -140.5t309 139.5t116.5 340t-116.5 341t-309 140.5 t-309.5 -140t-117 -341z" />
<glyph unicode="R" horiz-adv-x="1161" d="M133 0v1419h426q213 0 354.5 -117.5t141.5 -330.5q0 -145 -67.5 -246.5t-182.5 -153.5l305 -571h-332l-266 524h-86v-524h-293zM426 770h115q119 0 168 50t49 151q0 194 -213 194h-2h-117v-395z" />
<glyph unicode="S" horiz-adv-x="1083" d="M68 82l79 240q190 -92 357 -93q88 0 136 43t48 113q0 63 -59.5 111.5t-144.5 88.5t-171 90t-145 142t-59 221q0 182 133 295t331 113q172 0 375 -90l-84 -234q-158 68 -291 68q-78 0 -116.5 -41t-38.5 -111q0 -61 59.5 -110t144.5 -90t171 -93.5t145 -144.5t59 -215 q0 -184 -141 -298t-352 -114q-219 0 -436 109z" />
<glyph unicode="T" horiz-adv-x="1128" d="M51 1165v254h1026v-254h-366v-1165h-293v1165h-367z" />
<glyph unicode="U" horiz-adv-x="1359" d="M102 518v901h293v-876q0 -143 74 -228.5t211 -85.5t211 87t74 233v870h292v-899q0 -242 -159.5 -394.5t-417.5 -152.5q-256 0 -417 153.5t-161 391.5z" />
<glyph unicode="V" horiz-adv-x="1353" d="M41 1419h303l258 -825q10 -33 74 -303q57 246 76 303l258 825h303l-461 -1419h-350z" />
<glyph unicode="W" horiz-adv-x="1845" d="M51 1419h299l146 -778q20 -102 43 -326q43 215 75 324l160 537h297l160 -537q35 -119 78 -324q18 205 41 326l145 778h299l-301 -1419h-344l-166 553q-25 74 -61 235q-23 -111 -60 -235l-166 -553h-344z" />
<glyph unicode="X" horiz-adv-x="1341" d="M39 0l459 723l-432 696h331l275 -444l280 444h320l-430 -684l456 -735h-337l-295 481l-301 -481h-326z" />
<glyph unicode="Y" horiz-adv-x="1300" d="M41 1419h334l270 -553l281 553h334l-465 -839v-580h-299v578z" />
<glyph unicode="Z" horiz-adv-x="1140" d="M78 0v172l594 993h-578v254h953v-172l-586 -993h602v-254h-985z" />
<glyph unicode="[" horiz-adv-x="673" d="M147 -424v2081h410v-211h-125v-1659h125v-211h-410z" />
<glyph unicode="\" horiz-adv-x="876" d="M80 1495h225l492 -1694h-226z" />
<glyph unicode="]" horiz-adv-x="673" d="M117 -213h125v1659h-125v211h409v-2081h-409v211z" />
<glyph unicode="^" horiz-adv-x="1312" d="M166 780l362 639h265l362 -639h-295l-201 412l-198 -412h-295z" />
<glyph unicode="_" horiz-adv-x="1024" d="M0 -121h1024v-217h-1024v217z" />
<glyph unicode="`" horiz-adv-x="552" d="M74 1507h266l139 -311h-223z" />
<glyph unicode="a" d="M70 524q0 221 135 384t350 163q162 0 276 -108v81l285 -20v-1024h-254l-18 94q-115 -121 -289 -121q-219 0 -352 165t-133 386zM365 524q0 -123 58 -214t171 -91q106 0 182 83t76 222q0 133 -72.5 217t-185.5 84q-111 0 -170 -88t-59 -213z" />
<glyph unicode="b" d="M113 0v1468l284 50v-555q112 108 274 108h3q219 0 352 -165t133 -386t-135 -384t-350 -163q-174 0 -289 119l-18 -92h-254zM377 520q0 -133 72.5 -217t185.5 -84q111 0 170 88t59 213q0 123 -58 214t-171 91q-106 0 -182 -83t-76 -222z" />
<glyph unicode="c" horiz-adv-x="1042" d="M70 522q0 231 153.5 390t409.5 159q174 0 360 -82l-78 -223q-158 59 -276 59q-127 0 -200.5 -87t-73.5 -216q-1 -129 73 -216q73 -87 199 -87h1q126 0 277 64l74 -236q-156 -74 -356 -74q-254 0 -408.5 160t-154.5 389z" />
<glyph unicode="d" d="M70 520q0 221 133 386t352 165q162 0 276 -108v528h285v-1491h-254l-18 92q-115 -119 -289 -119q-215 0 -350 163t-135 384zM365 520q0 -125 59 -213t170 -88q113 0 185.5 84t72.5 217q0 139 -76 222t-182 83q-113 0 -171 -91t-58 -214z" />
<glyph unicode="e" horiz-adv-x="1114" d="M70 520q0 231 134 391t361 160q233 0 361.5 -165t128.5 -443h-701q39 -244 283 -244q141 0 303 68l57 -234q-174 -80 -368 -80q-262 0 -410.5 157t-148.5 390zM362 649h408q-23 106 -76 141t-129 35q-162 0 -203 -176z" />
<glyph unicode="f" horiz-adv-x="710" d="M27 860v184h166v109q0 176 100 270.5t272 94.5q100 0 209 -35l-49 -238q-80 27 -150 27q-55 0 -76.5 -27.5t-21.5 -93.5v-107h217v-184h-217v-860h-284v860h-166z" />
<glyph unicode="g" horiz-adv-x="1230" d="M70 536.5q0 219.5 133 377t352 157.5q176 0 291 -119l18 92l254 -20v-999q0 -221 -150.5 -360.5t-385.5 -139.5q-211 0 -404 100l86 221q162 -75 314 -75h4q121 0 186.5 76.5t65.5 199.5v59q-113 -106 -279 -106q-219 0 -352 158.5t-133 378zM365 537q0 -125 57 -208 t172 -83q109 0 183.5 76.5t74.5 214.5q0 129 -71.5 208.5t-186.5 79.5t-172 -83t-57 -205z" />
<glyph unicode="h" horiz-adv-x="1136" d="M113 0v1468l284 50v-564q109 117 295 117q158 0 250 -107.5t92 -293.5v-670h-284v639q0 186 -121 186q-113 0 -172.5 -93t-59.5 -257v-475h-284z" />
<glyph unicode="i" horiz-adv-x="509" d="M90 1349.5q0 69.5 49 114.5t114.5 45t117 -46t51.5 -113.5t-50 -115.5t-118 -48q-70 0 -117 47t-47 116.5zM113 0v1044h284v-1044h-284z" />
<glyph unicode="j" horiz-adv-x="509" d="M-180 -438l47 235q81 -26 131 -26h4q111 0 111 135v1138h284v-1150q0 -176 -99 -272.5t-269 -96.5q-84 0 -209 37zM90 1349.5q0 69.5 49 114.5t114.5 45t117 -46t51.5 -113.5t-50 -115.5t-118 -48q-70 0 -117 47t-47 116.5z" />
<glyph unicode="k" horiz-adv-x="1081" d="M113 0v1468l284 50v-805l252 331h340l-321 -380l403 -664h-321l-265 444l-88 -102v-342h-284z" />
<glyph unicode="l" horiz-adv-x="520" d="M113 281v1187l284 50v-1209q0 -47 17.5 -67.5t60.5 -20.5l-22 -246q-168 0 -254 70t-86 236z" />
<glyph unicode="m" horiz-adv-x="1675" d="M113 0v1024l245 20l19 -94q98 121 266 121q195 0 285 -160q106 160 303 160q158 0 250 -107.5t92 -293.5v-670h-285v639q0 186 -121 186q-82 0 -132 -89t-50 -253v-483h-285v639q0 186 -120 186q-82 0 -132.5 -85t-50.5 -240v-500h-284z" />
<glyph unicode="n" horiz-adv-x="1136" d="M113 0v1024l245 20l21 -110q111 137 313 137q158 0 250 -107.5t92 -293.5v-670h-284v639q0 186 -121 186q-113 0 -172.5 -93t-59.5 -257v-475h-284z" />
<glyph unicode="o" d="M70 522q0 225 153.5 387t391 162t391 -161.5t153.5 -387.5q0 -227 -151.5 -388t-393 -161t-393 161t-151.5 388zM365 522q0 -135 73.5 -219t176 -84t176 84t73.5 219t-74.5 219t-175 84t-175 -84t-74.5 -219z" />
<glyph unicode="p" d="M113 -449v1493h254l18 -94q115 121 289 121q215 0 350 -163t135 -384t-133 -386t-352 -165q-168 0 -277 109v-531h-284zM377 524q0 -139 76 -222t182 -83q113 0 171 91t58 214q0 125 -59.5 213t-169.5 88q-113 0 -185.5 -84t-72.5 -217z" />
<glyph unicode="q" horiz-adv-x="1218" d="M70 526.5q0 221.5 135 383t350 161.5q174 0 289 -119l18 92h254v-1443l-285 -50v531q-115 -109 -276 -109q-219 0 -352 166t-133 387.5zM365 526q0 -125 58 -216t171 -91q106 0 182 84t76 223q0 133 -72.5 216t-185.5 83q-111 0 -170 -87t-59 -212z" />
<glyph unicode="r" horiz-adv-x="706" d="M113 0v1024l245 20l27 -126q103 153 308 153h3v-246q-150 0 -224.5 -100t-74.5 -285v-440h-284z" />
<glyph unicode="s" horiz-adv-x="825" d="M41 57l65 232q162 -72 261 -72q108 0 108 81q0 38 -42 68.5t-102.5 57.5t-119.5 63.5t-101 105.5t-42 165q0 137 105.5 225t260.5 88q147 0 303 -72l-82 -219q-100 47 -198 47q-94 0 -95 -69q0 -35 42 -65.5t101.5 -60.5t120 -69t102.5 -108.5t42 -159.5 q0 -139 -113.5 -230.5t-275.5 -91.5q-180 0 -340 84z" />
<glyph unicode="t" horiz-adv-x="763" d="M27 860v184h133v228l284 53v-281h230v-184h-230v-520q0 -66 21.5 -93.5t77.5 -27.5q70 0 149 27l49 -238q-109 -35 -209 -35q-174 0 -273 86t-99 260v541h-133z" />
<glyph unicode="u" horiz-adv-x="1136" d="M102 375v669h285v-638q0 -186 121 -187q113 0 172 93.5t59 256.5v475h285v-1044h-246l-22 111q-109 -137 -312 -138q-158 0 -250 108t-92 294z" />
<glyph unicode="v" horiz-adv-x="1067" d="M20 1044h293l146 -466q33 -109 73 -304q49 215 76 304l146 466h293l-365 -1044h-297z" />
<glyph unicode="w" horiz-adv-x="1581" d="M31 1044h291l98 -440q23 -109 51 -278q37 182 64 276l122 442h267l123 -442q27 -94 63 -276q29 170 51 278l99 440h290l-276 -1044h-297l-129 467q-27 92 -57 246q-31 -154 -58 -246l-129 -467h-297z" />
<glyph unicode="x" horiz-adv-x="1021" d="M18 0l328 541l-297 503h313l150 -258l154 258h303l-299 -491l331 -553h-313l-184 307l-185 -307h-301z" />
<glyph unicode="y" horiz-adv-x="1103" d="M31 1044h301l131 -413q31 -104 92 -338q57 225 92 340l129 411h297l-440 -1261q-43 -123 -133 -190.5t-199 -67.5q-141 0 -264 72l82 217q86 -43 145 -43q45 0 69.5 28.5t45.5 91.5l37 109h-13z" />
<glyph unicode="z" horiz-adv-x="913" d="M59 0v143l394 656h-369v245h756v-143l-394 -655h408v-246h-795z" />
<glyph unicode="{" horiz-adv-x="833" d="M139 532v168q90 0 133 42t43 102v426q0 195 86 290t295 95v-254q-59 0 -81.5 -23.5t-22.5 -93.5v-440q0 -78 -32 -132.5t-124 -95.5q92 -41 124 -95t32 -132v-440q0 -70 22.5 -93.5t81.5 -23.5v-254q-209 0 -295 95t-86 290v426q0 59 -43 101t-133 42z" />
<glyph unicode="|" horiz-adv-x="546" d="M135 -203v1778h277v-1778h-277z" />
<glyph unicode="}" horiz-adv-x="833" d="M137 -168q59 0 82 23.5t23 93.5v440q0 78 31.5 132t123.5 95q-92 41 -123.5 95.5t-31.5 132.5v440q0 70 -22.5 93.5t-82.5 23.5v254q209 0 295 -95.5t86 -289.5v-426q0 -59 43 -101.5t133 -42.5v-168q-90 0 -133 -41.5t-43 -101.5v-426q0 -195 -86 -290t-295 -95v254z " />
<glyph unicode="~" horiz-adv-x="1189" d="M143 1102q0 160 77 251t222 91q66 0 120 -32t93 -64.5t68 -32.5q61 0 61 104h263q0 -160 -78 -251t-221 -91q-66 0 -120.5 33t-93 64.5t-67.5 31.5q-61 0 -61 -104h-263z" />
<glyph unicode="&#xa1;" horiz-adv-x="632" d="M135 1028q0 74 53.5 126t126.5 52q76 0 129.5 -53t53.5 -125q0 -76 -55.5 -127t-127 -51t-126 51t-54.5 127zM172 -238v910h285v-910h-285z" />
<glyph unicode="&#xa2;" horiz-adv-x="1138" d="M96 522q0 201 118 350.5t321 186.5v239h221v-233q131 -18 264 -76l-78 -223q-158 59 -276 59q-131 0 -206 -87t-75 -216t75 -216t206 -87q127 0 276 64l74 -236q-115 -55 -260 -70v-231h-221v240q-201 37 -320 187.5t-119 348.5z" />
<glyph unicode="&#xa3;" horiz-adv-x="1081" d="M100 543v192h129q-45 125 -45 262q0 207 129 328t344 121q170 0 357 -96l-86 -232q-143 70 -271 70q-92 0 -139 -49t-47 -142q0 -106 59 -262h328v-192h-283q4 -41 5 -62q0 -145 -113 -239h537v-242h-873v217q55 47 84 77t53.5 80t24.5 105q0 33 -6 64h-187z" />
<glyph unicode="&#xa4;" horiz-adv-x="1183" d="M104 223l142 142q-31 70 -31 151q0 84 35 158l-146 147l189 189l147 -150q76 33 152 33q78 0 149 -33l150 150l188 -189l-147 -147q37 -78 37 -158q0 -76 -33 -151l143 -142l-188 -188l-141 139q-74 -35 -158 -35t-160 35l-139 -139zM479 516q0 -45 33 -79t80 -34t80 34 t33 79t-33 79t-80 34t-80 -34t-33 -79z" />
<glyph unicode="&#xa5;" horiz-adv-x="1177" d="M27 1419h327l234 -555l235 555h328l-338 -700h182v-193h-260v-153h260v-193h-260v-180h-293v180h-258v193h258v153h-258v193h178z" />
<glyph unicode="&#xa6;" horiz-adv-x="546" d="M135 -203v654h277v-654h-277zM135 920v655h277v-655h-277z" />
<glyph unicode="&#xa7;" horiz-adv-x="1103" d="M106 -78l66 221q150 -63 279 -63q127 0 127 108q0 45 -45.5 79t-109 61.5t-128 64.5t-109.5 111t-45 176q0 184 152 281q-29 61 -29 145q0 143 102.5 241.5t268.5 98.5q152 0 309 -68l-67 -221q-127 51 -224 51q-100 0 -100 -92q0 -43 45 -77.5t108.5 -64.5t128 -70 t109.5 -112.5t45 -170.5q0 -174 -155 -279q33 -66 32 -147q0 -150 -118.5 -251.5t-284.5 -101.5q-175 0 -357 80zM430 690q0 -23 10.5 -42t36 -37.5t44 -29t62.5 -32t62 -31.5q55 23 55 96q0 23 -10 41.5t-34.5 36t-42 27.5t-59.5 29.5t-60 29.5q-63 -16 -64 -88z" />
<glyph unicode="&#xa8;" horiz-adv-x="913" d="M115 1348q0 57 41 101t98 44t100 -43t43 -102q0 -57 -42 -99.5t-101 -42.5q-57 0 -98 43.5t-41 98.5zM516 1348q0 57 41 101t98.5 44t100.5 -43t43 -102q0 -57 -42.5 -99.5t-101.5 -42.5q-57 0 -98 43t-41 99z" />
<glyph unicode="&#xa9;" horiz-adv-x="1501" d="M86 684q0 291 187.5 487.5t478 196.5t477 -196.5t186.5 -487.5t-186.5 -486.5t-477 -195.5t-478 196.5t-187.5 485.5zM244 684q0 -225 141 -377.5t366.5 -152.5t365.5 152.5t140 377.5q0 223 -140 378t-365.5 155t-366.5 -155t-141 -378zM397 686q0 158 99.5 260.5 t273.5 102.5q111 0 217 -43l-47 -146q-88 31 -170 31q-94 0 -143 -60.5t-49 -144.5t49 -144.5t143 -60.5q82 0 170 31l47 -145q-106 -43 -217 -43q-174 0 -273.5 102t-99.5 260z" />
<glyph unicode="&#xaa;" horiz-adv-x="913" d="M82 1028q0 154 92 272.5t250 118.5q100 0 174 -61v41l233 -15v-720h-210l-15 45q-72 -66 -182 -66q-152 0 -247 115.5t-95 269.5zM317 1028q0 -76 35 -131t107 -55q70 0 113.5 52t43.5 134q0 90 -46 140.5t-111 50.5q-78 0 -110 -57.5t-32 -133.5z" />
<glyph unicode="&#xab;" horiz-adv-x="1243" d="M100 526l297 435l236 -156l-193 -279l193 -276l-236 -158zM610 526l299 435l234 -156l-191 -279l191 -276l-234 -158z" />
<glyph unicode="&#xac;" horiz-adv-x="1345" d="M178 385v274h975v-514h-274v240h-701z" />
<glyph unicode="&#xad;" horiz-adv-x="0" />
<glyph unicode="&#xae;" horiz-adv-x="1501" d="M86 684q0 291 187.5 487.5t478 196.5t477 -196.5t186.5 -487.5t-186.5 -486.5t-477 -195.5t-478 196.5t-187.5 485.5zM244 684q0 -225 141 -377.5t366.5 -152.5t365.5 152.5t140 377.5q0 223 -140 378t-365.5 155t-366.5 -155t-141 -378zM522 348v703h228 q131 0 199.5 -60.5t68.5 -173.5q0 -139 -115 -192l125 -277h-182l-107 248h-39v-248h-178zM700 739h56q35 0 58.5 19.5t23.5 56.5q0 78 -82 78h-56v-154z" />
<glyph unicode="&#xaf;" horiz-adv-x="692" d="M66 1245v217h561v-217h-561z" />
<glyph unicode="&#xb0;" horiz-adv-x="745" d="M84 1134.5q0 118.5 85 203.5t204 85t204 -85t85 -203.5t-84 -202.5t-205 -84q-119 0 -204 84t-85 202.5zM264 1135q0 -45 32 -78t77 -33t77.5 33t32.5 78t-32.5 78.5t-77.5 33.5t-77 -32.5t-32 -79.5z" />
<glyph unicode="&#xb1;" horiz-adv-x="1318" d="M145 -86h1029v-246h-1029v246zM145 389v266h381v332h267v-332h381v-266h-381v-332h-267v332h-381z" />
<glyph unicode="&#xb4;" horiz-adv-x="552" d="M74 1196l139 311h266l-182 -311h-223z" />
<glyph unicode="&#xb5;" horiz-adv-x="1128" d="M102 -449v1493h285v-600q0 -96 44 -160.5t132 -64.5q86 0 132 64.5t46 160.5v600h285v-620q0 -186 -129 -318.5t-334 -132.5q-96 0 -176 29v-451h-285z" />
<glyph unicode="&#xb6;" horiz-adv-x="1284" d="M66 975q0 184 140 314t337 130h624v-1566h-288v1292h-109v-1292h-289v684q-176 23 -295.5 147.5t-119.5 290.5z" />
<glyph unicode="&#xb7;" horiz-adv-x="561" d="M127 526q0 63 44 110.5t107.5 47.5t109.5 -46t46 -112q0 -63 -44.5 -108t-110.5 -45q-63 0 -107.5 46t-44.5 107z" />
<glyph unicode="&#xb8;" horiz-adv-x="630" d="M98 -436l37 164q70 -25 150 -25q63 0 63 43q0 39 -65 39q-61 0 -138 -12l39 227h178l-12 -78q80 -2 130 -48t50 -128q0 -94 -64.5 -155.5t-182.5 -61.5q-99 0 -185 35z" />
<glyph unicode="&#xba;" horiz-adv-x="940" d="M82 1030q0 158 109.5 273.5t279.5 115.5t278.5 -114.5t108.5 -274.5t-107.5 -273.5t-279.5 -113.5q-174 0 -281.5 113.5t-107.5 273.5zM317 1030q0 -86 46.5 -137t107.5 -51t105.5 51t44.5 137t-46.5 137.5t-103.5 51.5q-59 0 -106.5 -51.5t-47.5 -137.5z" />
<glyph unicode="&#xbb;" horiz-adv-x="1243" d="M100 248l191 278l-191 277l234 158l299 -435l-299 -434zM610 248l193 278l-193 277l236 158l297 -435l-297 -434z" />
<glyph unicode="&#xbf;" horiz-adv-x="1040" d="M94 117q0 78 28 141.5t65.5 108.5t76.5 92t66.5 117.5t27.5 158.5h279q0 -106 -26.5 -190t-64.5 -135.5t-76 -93.5t-64.5 -85t-26.5 -90q0 -115 143 -114q119 0 264 92l113 -223q-197 -135 -387 -136q-199 0 -308.5 111t-109.5 246zM313 1051q0 74 55.5 127t129 53 t126 -53.5t52.5 -126.5q0 -76 -53.5 -126.5t-125 -50.5t-128 50.5t-56.5 126.5z" />
<glyph unicode="&#xc0;" horiz-adv-x="1353" d="M41 0l461 1419h350l461 -1419h-297l-117 367h-444l-117 -367h-297zM397 1851h267l139 -311h-223zM532 616h287l-65 209q-31 94 -78 303q-37 -174 -76 -303z" />
<glyph unicode="&#xc1;" horiz-adv-x="1353" d="M41 0l461 1419h350l461 -1419h-297l-117 367h-444l-117 -367h-297zM532 616h287l-65 209q-31 94 -78 303q-37 -174 -76 -303zM541 1540l139 311h266l-182 -311h-223z" />
<glyph unicode="&#xc2;" horiz-adv-x="1353" d="M41 0l461 1419h350l461 -1419h-297l-117 367h-444l-117 -367h-297zM340 1540l203 311h268l203 -311h-256l-82 158l-80 -158h-256zM532 616h287l-65 209q-31 94 -78 303q-37 -174 -76 -303z" />
<glyph unicode="&#xc3;" horiz-adv-x="1353" d="M41 0l461 1419h350l461 -1419h-297l-117 367h-444l-117 -367h-297zM342 1733q63 74 103 99.5t110 25.5q51 0 131 -42t100 -42q49 0 103 63l117 -160q-63 -74 -103.5 -99.5t-109.5 -25.5q-51 0 -131 42t-101 42q-49 0 -102 -63zM532 616h287l-65 209q-31 94 -78 303 q-37 -174 -76 -303z" />
<glyph unicode="&#xc4;" horiz-adv-x="1353" d="M41 0l461 1419h350l461 -1419h-297l-117 367h-444l-117 -367h-297zM332 1692q0 57 41 101t98 44t100 -43t43 -102q0 -57 -42 -99.5t-101 -42.5q-57 0 -98 43t-41 99zM532 616h287l-65 209q-31 94 -78 303q-37 -174 -76 -303zM733 1692q0 57 41 101t98.5 44t100.5 -43 t43 -102q0 -57 -42.5 -99.5t-101.5 -42.5q-57 0 -98 43t-41 99z" />
<glyph unicode="&#xc5;" horiz-adv-x="1353" d="M41 0l461 1419h350l461 -1419h-297l-117 367h-444l-117 -367h-297zM449 1737q0 90 64.5 152.5t160.5 62.5q94 0 160.5 -63.5t66.5 -151.5q0 -90 -67.5 -152.5t-159.5 -62.5q-94 0 -159.5 62.5t-65.5 152.5zM532 616h287l-65 209q-31 94 -78 303q-37 -174 -76 -303z M618 1736.5q0 -22.5 15.5 -38t40.5 -15.5q23 0 39 15.5t16 38t-16.5 39t-38.5 16.5q-25 0 -40.5 -16.5t-15.5 -39z" />
<glyph unicode="&#xc6;" horiz-adv-x="2002" d="M41 0l741 1419h912l47 -254h-541l57 -319h523l43 -250h-520l59 -342h557l43 -254h-846l-65 371h-498l-186 -371h-326zM680 621h326l-84 477z" />
<glyph unicode="&#xc7;" horiz-adv-x="1318" d="M86 709q0 203 85 368.5t256 267t398 101.5q193 0 402 -74l-68 -239q-172 57 -334 57q-213 0 -321.5 -143.5t-108.5 -338t108.5 -337t321.5 -142.5q166 0 336 54l70 -242q-188 -63 -389 -68l-8 -51q80 -2 130 -48t50 -128q0 -94 -64.5 -155.5t-183.5 -61.5q-96 0 -184 35 l36 164q70 -25 150 -25q63 0 63 43q0 39 -65 39q-61 0 -137 -12l37 215q-270 49 -425 249.5t-155 471.5z" />
<glyph unicode="&#xc8;" horiz-adv-x="1067" d="M133 0v1419h836v-254h-543v-319h498l-25 -250h-473v-342h557v-254h-850zM287 1851h266l139 -311h-223z" />
<glyph unicode="&#xc9;" horiz-adv-x="1067" d="M133 0v1419h836v-254h-543v-319h498l-25 -250h-473v-342h557v-254h-850zM397 1540l140 311h266l-182 -311h-224z" />
<glyph unicode="&#xca;" horiz-adv-x="1067" d="M133 0v1419h836v-254h-543v-319h498l-25 -250h-473v-342h557v-254h-850zM225 1540l203 311h268l203 -311h-256l-82 158l-80 -158h-256z" />
<glyph unicode="&#xcb;" horiz-adv-x="1067" d="M133 0v1419h836v-254h-543v-319h498l-25 -250h-473v-342h557v-254h-850zM223 1692q0 57 41 101t98.5 44t100.5 -43t43 -102q0 -57 -42.5 -99.5t-101.5 -42.5q-57 0 -98 43t-41 99zM625 1692q0 57 41 101t98 44t100 -43t43 -102q0 -57 -42 -99.5t-101 -42.5q-57 0 -98 43 t-41 99z" />
<glyph unicode="&#xcc;" horiz-adv-x="559" d="M4 1851h266l140 -311h-224zM133 0v1419h293v-1419h-293z" />
<glyph unicode="&#xcd;" horiz-adv-x="559" d="M133 0v1419h293v-1419h-293zM147 1540l140 311h266l-182 -311h-224z" />
<glyph unicode="&#xce;" horiz-adv-x="559" d="M-57 1540l202 311h269l202 -311h-256l-81 158l-80 -158h-256zM133 0v1419h293v-1419h-293z" />
<glyph unicode="&#xcf;" horiz-adv-x="559" d="M-63 1692q0 57 40.5 101t98 44t100.5 -43t43 -102q0 -57 -42 -99.5t-101 -42.5q-57 0 -98 43t-41 99zM133 0v1419h293v-1419h-293zM338 1692q0 57 41 101t98.5 44t100.5 -43t43 -102q0 -57 -42.5 -99.5t-101.5 -42.5q-57 0 -98 43t-41 99z" />
<glyph unicode="&#xd0;" horiz-adv-x="1427" d="M-14 606v205h147v608h512q229 0 390 -99t233.5 -256t72.5 -355.5t-72.5 -354t-233.5 -255t-390 -99.5h-512v606h-147zM426 254h197q113 0 194.5 37t127.5 103.5t66.5 144t20.5 170.5q0 199 -96 327.5t-313 128.5h-197v-354h260v-205h-260v-352z" />
<glyph unicode="&#xd1;" horiz-adv-x="1411" d="M133 0v1391l248 26l604 -880v882h293v-1419h-256l-596 877v-877h-293zM371 1733q63 74 103 99.5t110 25.5q51 0 131 -42t100 -42q49 0 103 63l116 -160q-63 -74 -103 -99.5t-110 -25.5q-51 0 -131 42t-100 42q-50 0 -103 -63z" />
<glyph unicode="&#xd2;" horiz-adv-x="1642" d="M86 708.5q0 307.5 207 522.5t528.5 215t528 -215t206.5 -522.5t-206.5 -521.5t-528 -214t-528.5 214t-207 521.5zM395 709q0 -199 117 -339.5t309.5 -140.5t309 139.5t116.5 340t-116.5 341t-309 140.5t-309.5 -140t-117 -341zM537 1851h266l139 -311h-223z" />
<glyph unicode="&#xd3;" horiz-adv-x="1642" d="M86 708.5q0 307.5 207 522.5t528.5 215t528 -215t206.5 -522.5t-206.5 -521.5t-528 -214t-528.5 214t-207 521.5zM395 709q0 -199 117 -339.5t309.5 -140.5t309 139.5t116.5 340t-116.5 341t-309 140.5t-309.5 -140t-117 -341zM686 1540l139 311h267l-183 -311h-223z" />
<glyph unicode="&#xd4;" horiz-adv-x="1642" d="M86 708.5q0 307.5 207 522.5t528.5 215t528 -215t206.5 -522.5t-206.5 -521.5t-528 -214t-528.5 214t-207 521.5zM395 709q0 -199 117 -339.5t309.5 -140.5t309 139.5t116.5 340t-116.5 341t-309 140.5t-309.5 -140t-117 -341zM485 1540l203 311h268l203 -311h-256 l-82 158l-80 -158h-256z" />
<glyph unicode="&#xd5;" horiz-adv-x="1642" d="M86 708.5q0 307.5 207 522.5t528.5 215t528 -215t206.5 -522.5t-206.5 -521.5t-528 -214t-528.5 214t-207 521.5zM395 709q0 -199 117 -339.5t309.5 -140.5t309 139.5t116.5 340t-116.5 341t-309 140.5t-309.5 -140t-117 -341zM489 1733q63 74 103.5 99.5t109.5 25.5 q51 0 131 -42t101 -42q49 0 102 63l117 -160q-63 -74 -103 -99.5t-110 -25.5q-51 0 -131 42t-100 42q-50 0 -103 -63z" />
<glyph unicode="&#xd6;" horiz-adv-x="1642" d="M86 708.5q0 307.5 207 522.5t528.5 215t528 -215t206.5 -522.5t-206.5 -521.5t-528 -214t-528.5 214t-207 521.5zM395 709q0 -199 117 -339.5t309.5 -140.5t309 139.5t116.5 340t-116.5 341t-309 140.5t-309.5 -140t-117 -341zM479 1692q0 57 41 101t98.5 44t100.5 -43 t43 -102q0 -57 -42.5 -99.5t-101.5 -42.5q-57 0 -98 43t-41 99zM881 1692q0 57 41 101t98 44t100 -43t43 -102q0 -57 -42 -99.5t-101 -42.5q-57 0 -98 43t-41 99z" />
<glyph unicode="&#xd7;" horiz-adv-x="1107" d="M96 254l271 270l-271 271l187 186l270 -270l270 270l187 -186l-271 -271l271 -270l-187 -186l-270 270l-270 -270z" />
<glyph unicode="&#xd8;" horiz-adv-x="1642" d="M86 709q0 307 207 522t528 215q188 0 355 -86l112 156l156 -115l-113 -154q225 -219 225 -538q0 -307 -206.5 -521.5t-528.5 -214.5q-193 0 -354 84l-119 -163l-155 114l116 162q-223 213 -223 539zM395 709q0 -172 88 -301l533 733q-88 49 -195 49q-193 0 -309.5 -140 t-116.5 -341zM627 276q88 -47 194 -47q193 0 309.5 139.5t116.5 340.5q0 172 -88 301z" />
<glyph unicode="&#xd9;" horiz-adv-x="1359" d="M102 518v901h293v-876q0 -143 74 -228.5t211 -85.5t211 87t74 233v870h292v-899q0 -242 -159.5 -394.5t-417.5 -152.5q-256 0 -417 153.5t-161 391.5zM393 1851h266l140 -311h-224z" />
<glyph unicode="&#xda;" horiz-adv-x="1359" d="M102 518v901h293v-876q0 -143 74 -228.5t211 -85.5t211 87t74 233v870h292v-899q0 -242 -159.5 -394.5t-417.5 -152.5q-256 0 -417 153.5t-161 391.5zM530 1540l140 311h266l-182 -311h-224z" />
<glyph unicode="&#xdb;" horiz-adv-x="1359" d="M102 518v901h293v-876q0 -143 74 -228.5t211 -85.5t211 87t74 233v870h292v-899q0 -242 -159.5 -394.5t-417.5 -152.5q-256 0 -417 153.5t-161 391.5zM344 1540l203 311h268l203 -311h-256l-82 158l-80 -158h-256z" />
<glyph unicode="&#xdc;" horiz-adv-x="1359" d="M102 518v901h293v-876q0 -143 74 -228.5t211 -85.5t211 87t74 233v870h292v-899q0 -242 -159.5 -394.5t-417.5 -152.5q-256 0 -417 153.5t-161 391.5zM336 1692q0 57 41 101t98 44t100 -43t43 -102q0 -57 -42 -99.5t-101 -42.5q-57 0 -98 43t-41 99zM737 1692 q0 57 41 101t98.5 44t100.5 -43t43 -102q0 -57 -42 -99.5t-101 -42.5q-57 0 -98.5 43t-41.5 99z" />
<glyph unicode="&#xdd;" horiz-adv-x="1300" d="M41 1419h334l270 -553l281 553h334l-465 -839v-580h-299v578zM508 1540l139 311h266l-182 -311h-223z" />
<glyph unicode="&#xde;" horiz-adv-x="1116" d="M133 0v1419h293v-205h133q213 0 354.5 -117.5t141.5 -330.5t-146.5 -332t-361.5 -119h-121v-315h-293zM426 565h88q244 0 244 201q0 195 -232 195h-100v-396z" />
<glyph unicode="&#xdf;" horiz-adv-x="1312" d="M27 860v187h168v96q0 174 111.5 275.5t283.5 101.5t282.5 -100.5t110.5 -274.5q0 -92 -63.5 -209t-63.5 -182q0 -33 29.5 -61.5t75 -48t96.5 -50.5t96 -65.5t74.5 -95t29.5 -138.5q0 -152 -118.5 -237t-266.5 -85q-184 0 -340 84l66 234q154 -74 260 -74q115 0 115 80 q0 33 -30 60.5t-75 47t-96 49t-96 64.5t-75 96.5t-30 139.5q0 84 65.5 193.5t65.5 193.5q0 133 -112 133q-111 0 -111 -135v-1139h-284v860h-168z" />
<glyph unicode="&#xe0;" d="M70 524q0 221 135 384t350 163q162 0 276 -108v81l285 -20v-1024h-254l-18 94q-115 -121 -289 -121q-219 0 -352 165t-133 386zM346 1507h266l140 -311h-224zM365 524q0 -123 58 -214t171 -91q106 0 182 83t76 222q0 133 -72.5 217t-185.5 84q-111 0 -170 -88t-59 -213z " />
<glyph unicode="&#xe1;" d="M70 524q0 221 135 384t350 163q162 0 276 -108v81l285 -20v-1024h-254l-18 94q-115 -121 -289 -121q-219 0 -352 165t-133 386zM365 524q0 -123 58 -214t171 -91q106 0 182 83t76 222q0 133 -72.5 217t-185.5 84q-111 0 -170 -88t-59 -213zM473 1196l139 311h267 l-183 -311h-223z" />
<glyph unicode="&#xe2;" d="M70 524q0 221 135 384t350 163q162 0 276 -108v81l285 -20v-1024h-254l-18 94q-115 -121 -289 -121q-219 0 -352 165t-133 386zM279 1196l202 311h269l202 -311h-256l-82 158l-79 -158h-256zM365 524q0 -123 58 -214t171 -91q106 0 182 83t76 222q0 133 -72.5 217 t-185.5 84q-111 0 -170 -88t-59 -213z" />
<glyph unicode="&#xe3;" d="M70 524q0 221 135 384t350 163q162 0 276 -108v81l285 -20v-1024h-254l-18 94q-115 -121 -289 -121q-219 0 -352 165t-133 386zM279 1389q63 74 103 99t110 25q53 0 130.5 -41.5t100.5 -41.5q49 0 102 63l117 -160q-63 -74 -103 -99.5t-110 -25.5q-53 0 -131 42t-100 42 q-50 0 -103 -63zM365 524q0 -123 58 -214t171 -91q106 0 182 83t76 222q0 133 -72.5 217t-185.5 84q-111 0 -170 -88t-59 -213z" />
<glyph unicode="&#xe4;" d="M70 524q0 221 135 384t350 163q162 0 276 -108v81l285 -20v-1024h-254l-18 94q-115 -121 -289 -121q-219 0 -352 165t-133 386zM272 1348q0 57 41 101t98.5 44t100.5 -43t43 -102q0 -57 -42 -99.5t-101 -42.5q-57 0 -98.5 43t-41.5 99zM365 524q0 -123 58 -214t171 -91 q106 0 182 83t76 222q0 133 -72.5 217t-185.5 84q-111 0 -170 -88t-59 -213zM674 1348q0 57 41 101t98 44t100 -43t43 -102q0 -57 -42 -99.5t-101 -42.5q-57 0 -98 43t-41 99z" />
<glyph unicode="&#xe5;" d="M70 524q0 221 135 384t350 163q162 0 276 -108v81l285 -20v-1024h-254l-18 94q-115 -121 -289 -121q-219 0 -352 165t-133 386zM365 524q0 -123 58 -214t171 -91q106 0 182 83t76 222q0 133 -72.5 217t-185.5 84q-111 0 -170 -88t-59 -213zM385 1393q0 90 64.5 152.5 t160.5 62.5q94 0 161 -63.5t67 -151.5q0 -90 -68 -152.5t-160 -62.5q-94 0 -159.5 62.5t-65.5 152.5zM555 1392.5q0 -22.5 15.5 -38t39.5 -15.5q23 0 39.5 15.5t16.5 38t-16.5 39t-39.5 16.5q-25 0 -40 -16.5t-15 -39z" />
<glyph unicode="&#xe6;" horiz-adv-x="1785" d="M57 338q0 150 117 230.5t340 80.5h201q-27 84 -84.5 126t-126.5 42q-180 0 -350 -76l-58 240q186 90 408 90q236 0 375 -156q135 156 358 156q233 0 361 -165t128 -443h-700q39 -244 283 -244q141 0 303 68l57 -234q-174 -80 -369 -80q-264 0 -417 164 q-147 -164 -387 -164q-205 0 -322 102.5t-117 262.5zM352 340q0 -51 39 -83t105 -32q94 0 158.5 53.5t76.5 172.5h-217q-162 0 -162 -111zM1034 649h408q-23 106 -76 141t-129 35q-162 0 -203 -176z" />
<glyph unicode="&#xe7;" horiz-adv-x="1042" d="M70 522q0 231 153.5 390t409.5 159q174 0 360 -82l-78 -223q-158 59 -276 59q-127 0 -200.5 -87t-73.5 -216t73.5 -216t200.5 -87t276 64l74 -236q-141 -66 -301 -72l-8 -53q80 -2 130 -48t50 -128q0 -94 -64.5 -155.5t-183.5 -61.5q-96 0 -184 35l37 164q70 -25 149 -25 q63 0 64 43q0 39 -66 39q-61 0 -137 -12l35 213q-203 37 -321.5 187.5t-118.5 348.5z" />
<glyph unicode="&#xe8;" horiz-adv-x="1114" d="M70 520q0 231 134 391t361 160q233 0 361.5 -165t128.5 -443h-701q39 -244 283 -244q141 0 303 68l57 -234q-174 -80 -368 -80q-262 0 -410.5 157t-148.5 390zM268 1507h267l139 -311h-223zM362 649h408q-23 106 -76 141t-129 35q-162 0 -203 -176z" />
<glyph unicode="&#xe9;" horiz-adv-x="1114" d="M70 520q0 231 134 391t361 160q233 0 361.5 -165t128.5 -443h-701q39 -244 283 -244q141 0 303 68l57 -234q-174 -80 -368 -80q-262 0 -410.5 157t-148.5 390zM362 649h408q-23 106 -76 141t-129 35q-162 0 -203 -176zM440 1196l140 311h266l-182 -311h-224z" />
<glyph unicode="&#xea;" horiz-adv-x="1114" d="M70 520q0 231 134 391t361 160q233 0 361.5 -165t128.5 -443h-701q39 -244 283 -244q141 0 303 68l57 -234q-174 -80 -368 -80q-262 0 -410.5 157t-148.5 390zM221 1196l203 311h268l203 -311h-256l-82 158l-80 -158h-256zM362 649h408q-23 106 -76 141t-129 35 q-162 0 -203 -176z" />
<glyph unicode="&#xeb;" horiz-adv-x="1114" d="M70 520q0 231 134 391t361 160q233 0 361.5 -165t128.5 -443h-701q39 -244 283 -244q141 0 303 68l57 -234q-174 -80 -368 -80q-262 0 -410.5 157t-148.5 390zM215 1348q0 57 41 101t98.5 44t100.5 -43t43 -102q0 -57 -42.5 -99.5t-101.5 -42.5q-57 0 -98 43t-41 99z M362 649h408q-23 106 -76 141t-129 35q-162 0 -203 -176zM616 1348q0 57 41 101t98.5 44t100.5 -43t43 -102q0 -57 -42 -99.5t-101 -42.5q-57 0 -98.5 43t-41.5 99z" />
<glyph unicode="&#xec;" horiz-adv-x="509" d="M-41 1507h266l140 -311h-224zM113 0v1044h284v-1044h-284z" />
<glyph unicode="&#xed;" horiz-adv-x="509" d="M113 0v1044h284v-1044h-284zM139 1196l140 311h266l-183 -311h-223z" />
<glyph unicode="&#xee;" horiz-adv-x="509" d="M-82 1196l203 311h268l203 -311h-256l-82 158l-80 -158h-256zM113 0v1044h284v-1044h-284z" />
<glyph unicode="&#xef;" horiz-adv-x="509" d="M-88 1348q0 57 41 101t98.5 44t100.5 -43t43 -102q0 -57 -42.5 -99.5t-101.5 -42.5q-57 0 -98 43t-41 99zM113 0v1044h284v-1044h-284zM313 1348q0 57 41 101t98.5 44t100.5 -43t43 -102q0 -57 -42 -99.5t-101 -42.5q-57 0 -98.5 43t-41.5 99z" />
<glyph unicode="&#xf0;" horiz-adv-x="1236" d="M74 494q0 215 153.5 371.5t390.5 156.5q61 0 134 -14q-25 53 -70 129l-154 -56l-57 156l121 43q-51 80 -123 166l246 70q76 -84 121 -148l139 51l57 -155l-98 -37q229 -371 229 -731q0 -215 -153.5 -369t-391.5 -154q-242 0 -393 153t-151 368zM369 494q0 -127 72.5 -201 t176.5 -74q102 0 176 74t74 201q0 129 -73.5 205.5t-176.5 76.5q-100 0 -174.5 -77.5t-74.5 -204.5z" />
<glyph unicode="&#xf1;" horiz-adv-x="1136" d="M113 0v1024l245 20l21 -110q111 137 313 137q158 0 250 -107.5t92 -293.5v-670h-284v639q0 186 -121 186q-113 0 -172.5 -93t-59.5 -257v-475h-284zM236 1389q63 74 103 99t110 25q51 0 130.5 -41.5t100.5 -41.5q49 0 102 63l117 -160q-63 -74 -103 -99.5t-110 -25.5 q-51 0 -131 42t-100 42q-50 0 -103 -63z" />
<glyph unicode="&#xf2;" d="M70 522q0 225 153.5 387t391 162t391 -161.5t153.5 -387.5q0 -227 -151.5 -388t-393 -161t-393 161t-151.5 388zM330 1507h266l139 -311h-223zM365 522q0 -135 73.5 -219t176 -84t176 84t73.5 219t-74.5 219t-175 84t-175 -84t-74.5 -219z" />
<glyph unicode="&#xf3;" d="M70 522q0 225 153.5 387t391 162t391 -161.5t153.5 -387.5q0 -227 -151.5 -388t-393 -161t-393 161t-151.5 388zM365 522q0 -135 73.5 -219t176 -84t176 84t73.5 219t-74.5 219t-175 84t-175 -84t-74.5 -219zM489 1196l140 311h266l-182 -311h-224z" />
<glyph unicode="&#xf4;" d="M70 522q0 225 153.5 387t391 162t391 -161.5t153.5 -387.5q0 -227 -151.5 -388t-393 -161t-393 161t-151.5 388zM279 1196l202 311h269l202 -311h-256l-82 158l-79 -158h-256zM365 522q0 -135 73.5 -219t176 -84t176 84t73.5 219t-74.5 219t-175 84t-175 -84t-74.5 -219z " />
<glyph unicode="&#xf5;" d="M70 522q0 225 153.5 387t391 162t391 -161.5t153.5 -387.5q0 -227 -151.5 -388t-393 -161t-393 161t-151.5 388zM283 1389q63 74 103 99t110 25q53 0 131 -41.5t100 -41.5q49 0 102 63l117 -160q-63 -74 -103 -99.5t-110 -25.5q-53 0 -131 42t-100 42q-50 0 -103 -63z M365 522q0 -135 73.5 -219t176 -84t176 84t73.5 219t-74.5 219t-175 84t-175 -84t-74.5 -219z" />
<glyph unicode="&#xf6;" d="M70 522q0 225 153.5 387t391 162t391 -161.5t153.5 -387.5q0 -227 -151.5 -388t-393 -161t-393 161t-151.5 388zM272 1348q0 57 41 101t98.5 44t100.5 -43t43 -102q0 -57 -42 -99.5t-101 -42.5q-57 0 -98.5 43t-41.5 99zM365 522q0 -135 73.5 -219t176 -84t176 84 t73.5 219t-74.5 219t-175 84t-175 -84t-74.5 -219zM674 1348q0 57 41 101t98 44t100 -43t43 -102q0 -57 -42 -99.5t-101 -42.5q-57 0 -98 43t-41 99z" />
<glyph unicode="&#xf8;" d="M70 522q0 225 153.5 387t390.5 162q133 0 252 -59l107 147l157 -117l-108 -151q137 -158 137 -369q0 -227 -151.5 -388t-393.5 -161q-123 0 -229 45l-119 -163l-157 116l116 160q-156 156 -155 391zM365 522q0 -84 32 -155l316 434q-45 25 -99 24q-100 0 -174.5 -84 t-74.5 -219zM541 231q32 -12 73 -12q102 0 176 84t74 219q0 63 -20 125z" />
<glyph unicode="&#xf9;" horiz-adv-x="1136" d="M102 375v669h285v-638q0 -186 121 -187q113 0 172 93.5t59 256.5v475h285v-1044h-246l-22 111q-109 -137 -312 -138q-158 0 -250 108t-92 294zM281 1507h266l139 -311h-223z" />
<glyph unicode="&#xfa;" horiz-adv-x="1136" d="M102 375v669h285v-638q0 -186 121 -187q113 0 172 93.5t59 256.5v475h285v-1044h-246l-22 111q-109 -137 -312 -138q-158 0 -250 108t-92 294zM438 1196l140 311h266l-182 -311h-224z" />
<glyph unicode="&#xfb;" horiz-adv-x="1136" d="M102 375v669h285v-638q0 -186 121 -187q113 0 172 93.5t59 256.5v475h285v-1044h-246l-22 111q-109 -137 -312 -138q-158 0 -250 108t-92 294zM231 1196l203 311h268l203 -311h-256l-82 158l-80 -158h-256z" />
<glyph unicode="&#xfc;" horiz-adv-x="1136" d="M102 375v669h285v-638q0 -186 121 -187q113 0 172 93.5t59 256.5v475h285v-1044h-246l-22 111q-109 -137 -312 -138q-158 0 -250 108t-92 294zM221 1348q0 57 41 101t98.5 44t100.5 -43t43 -102q0 -57 -42.5 -99.5t-101.5 -42.5q-57 0 -98 43t-41 99zM623 1348 q0 57 41 101t98 44t100 -43t43 -102q0 -57 -42 -99.5t-101 -42.5q-57 0 -98 43t-41 99z" />
<glyph unicode="&#xfd;" horiz-adv-x="1103" d="M31 1044h301l131 -413q31 -104 92 -338q57 225 92 340l129 411h297l-440 -1261q-43 -123 -133 -190.5t-199 -67.5q-141 0 -264 72l82 217q86 -43 145 -43q45 0 69.5 28.5t45.5 91.5l37 109h-13zM414 1196l139 311h266l-182 -311h-223z" />
<glyph unicode="&#xfe;" d="M113 -449v1940h284v-528q113 109 277 108q215 0 350 -163t135 -384t-133 -386t-352 -165q-168 0 -277 109v-531h-284zM377 524q0 -139 76 -222t182 -83q113 0 171 91t58 214q0 125 -59.5 213t-169.5 88q-113 0 -185.5 -84t-72.5 -217z" />
<glyph unicode="&#xff;" horiz-adv-x="1103" d="M31 1044h301l131 -413q31 -104 92 -338q57 225 92 340l129 411h297l-440 -1261q-43 -123 -133 -190.5t-199 -67.5q-141 0 -264 72l82 217q86 -43 145 -43q45 0 69.5 28.5t45.5 91.5l37 109h-13zM209 1348q0 57 41 101t98.5 44t100.5 -43t43 -102q0 -57 -42.5 -99.5 t-101.5 -42.5q-57 0 -98 43t-41 99zM610 1348q0 57 41 101t98.5 44t100.5 -43t43 -102q0 -57 -42 -99.5t-101 -42.5q-57 0 -98.5 43t-41.5 99z" />
<glyph unicode="&#x152;" horiz-adv-x="2193" d="M86 708.5q0 307.5 207 522.5t528 215q250 0 439 -139v112h835v-254h-543v-319h498l-25 -250h-473v-342h557v-254h-849v111q-190 -137 -439 -138q-322 0 -528.5 214t-206.5 521.5zM395 709q0 -199 116.5 -339.5t309.5 -140.5q197 0 314.5 139.5t117.5 340t-117.5 341 t-314.5 140.5q-193 0 -309.5 -140.5t-116.5 -340.5z" />
<glyph unicode="&#x153;" horiz-adv-x="1918" d="M70 522q0 225 153.5 387t391 162t391.5 -164q137 164 364 164q233 0 361.5 -165t128.5 -443h-701q39 -244 283 -244q141 0 303 68l57 -234q-174 -80 -368 -80q-270 0 -422 168q-154 -168 -398 -168q-242 0 -393 161t-151 388zM365 522q0 -135 73.5 -219t175.5 -84 q106 0 181 84t75 219t-75.5 219t-180.5 84q-100 0 -174.5 -84t-74.5 -219zM1167 649h408q-23 106 -76 141t-129 35q-162 0 -203 -176z" />
<glyph unicode="&#x178;" horiz-adv-x="1300" d="M41 1419h334l270 -553l281 553h334l-465 -839v-580h-299v578zM307 1692q0 57 41 101t98.5 44t100.5 -43t43 -102q0 -57 -42.5 -99.5t-101.5 -42.5q-57 0 -98 43t-41 99zM709 1692q0 57 41 101t98 44t100 -43t43 -102q0 -57 -42 -99.5t-101 -42.5q-57 0 -98 43t-41 99z " />
<glyph unicode="&#x2c6;" horiz-adv-x="862" d="M94 1196l203 311h268l203 -311h-256l-82 158l-80 -158h-256z" />
<glyph unicode="&#x2dc;" horiz-adv-x="794" d="M66 1389q63 74 103 99t110 25q53 0 130.5 -41.5t100.5 -41.5q49 0 102 63l117 -160q-63 -74 -103 -99.5t-110 -25.5q-53 0 -131 42t-100 42q-50 0 -103 -63z" />
<glyph unicode="&#x2000;" horiz-adv-x="976" />
<glyph unicode="&#x2001;" horiz-adv-x="1952" />
<glyph unicode="&#x2002;" horiz-adv-x="976" />
<glyph unicode="&#x2003;" horiz-adv-x="1952" />
<glyph unicode="&#x2004;" horiz-adv-x="650" />
<glyph unicode="&#x2005;" horiz-adv-x="488" />
<glyph unicode="&#x2006;" horiz-adv-x="325" />
<glyph unicode="&#x2007;" horiz-adv-x="325" />
<glyph unicode="&#x2008;" horiz-adv-x="244" />
<glyph unicode="&#x2009;" horiz-adv-x="390" />
<glyph unicode="&#x200a;" horiz-adv-x="108" />
<glyph unicode="&#x2010;" horiz-adv-x="954" d="M127 410v237h700v-237h-700z" />
<glyph unicode="&#x2011;" horiz-adv-x="954" d="M127 410v237h700v-237h-700z" />
<glyph unicode="&#x2012;" horiz-adv-x="954" d="M127 410v237h700v-237h-700z" />
<glyph unicode="&#x2013;" horiz-adv-x="1024" d="M0 451v245h1024v-245h-1024z" />
<glyph unicode="&#x2014;" horiz-adv-x="2048" d="M0 451v245h2048v-245h-2048z" />
<glyph unicode="&#x2018;" horiz-adv-x="565" d="M143 952l172 545l170 -27l-94 -561z" />
<glyph unicode="&#x2019;" horiz-adv-x="565" d="M145 936l95 561l247 -43l-172 -545z" />
<glyph unicode="&#x201a;" horiz-adv-x="544" d="M90 -229l94 561l248 -43l-172 -545z" />
<glyph unicode="&#x201c;" horiz-adv-x="974" d="M135 952l172 545l170 -27l-94 -561zM524 952l172 545l170 -27l-94 -561z" />
<glyph unicode="&#x201d;" horiz-adv-x="974" d="M137 936l94 561l248 -43l-172 -545zM526 936l95 561l247 -43l-172 -545z" />
<glyph unicode="&#x201e;" horiz-adv-x="933" d="M90 -229l94 561l248 -43l-172 -545zM479 -229l94 561l248 -43l-172 -545z" />
<glyph unicode="&#x2022;" horiz-adv-x="935" d="M135 590q0 137 96.5 233.5t233.5 96.5q139 0 237.5 -96.5t98.5 -233.5q0 -139 -99.5 -237.5t-236.5 -98.5t-233.5 98.5t-96.5 237.5z" />
<glyph unicode="&#x2026;" horiz-adv-x="1775" d="M119 154q0 76 51 127t127 51q74 0 126 -51.5t52 -126.5q0 -74 -52 -125.5t-126 -51.5q-76 0 -127 51.5t-51 125.5zM721 154q0 76 51 127t127 51t127 -51.5t51 -126.5q0 -74 -51 -125.5t-127 -51.5t-127 51.5t-51 125.5zM1317 154q0 76 52 127t126 51q76 0 127 -51.5 t51 -126.5q0 -74 -51 -125.5t-127 -51.5q-74 0 -126 51.5t-52 125.5z" />
<glyph unicode="&#x202f;" horiz-adv-x="390" />
<glyph unicode="&#x2039;" horiz-adv-x="733" d="M100 526l299 435l234 -156l-191 -279l191 -276l-234 -158z" />
<glyph unicode="&#x203a;" horiz-adv-x="731" d="M98 248l193 276l-193 279l236 155l297 -434l-297 -434z" />
<glyph unicode="&#x205f;" horiz-adv-x="488" />
<glyph unicode="&#x20ac;" horiz-adv-x="1196" d="M104 438v176h70q-4 31 -4 96.5t4 96.5h-70v176h101q59 217 212.5 340t370.5 123q201 0 351 -66l-80 -233q-109 43 -248 43q-236 0 -309 -207h481l-43 -176h-473q-4 -61 -4 -96t4 -97h414l-43 -176h-336q74 -209 309 -209q135 0 248 45l80 -235q-150 -66 -351 -66 q-217 0 -369.5 124t-213.5 341h-101z" />
<glyph unicode="&#x2122;" horiz-adv-x="1601" d="M68 1247v172h559v-172h-189v-514h-182v514h-188zM662 735l104 684h184l137 -487l140 487h184l105 -684h-187l-39 346l-106 -346h-191l-106 346l-39 -346h-186z" />
<glyph unicode="&#x25fc;" horiz-adv-x="1044" d="M0 0v1044h1044v-1044h-1044z" />
</font>
</defs>
</svg>
